# This file uses centimeters as units for non-parametric coordinates.

mtllib rock_004_LOD3.mtl
g default
v 270.249237 490.779663 -231.247116
v 491.613007 427.845367 -267.967316
v 280.660431 342.290955 -295.679413
v -36.708645 0.000000 -382.761505
v 45.653858 292.955933 -351.279236
v 174.745453 0.000000 -379.520935
v 626.532410 620.269836 217.785599
v 511.580109 457.879028 305.884888
v 976.475037 769.655090 124.981804
v 897.430420 852.164978 77.180389
v 288.830261 724.345886 112.712563
v 601.086792 710.406311 211.064560
v 673.343994 449.634552 210.115814
v 786.485352 533.865601 3.302621
v 464.535553 31.208691 30.422138
v 559.903931 0.000000 -165.952820
v 558.415527 236.145355 -154.440506
v -223.139954 0.000000 479.967102
v -79.927711 0.000000 452.388580
v 23.679489 231.880508 359.453491
v 896.341553 822.325073 -86.879135
v 969.226074 767.881409 -86.498055
v 677.656311 623.116211 -198.870071
v 986.633057 786.221436 58.483879
v 176.708145 409.716309 369.343567
v 313.980652 478.875488 305.962677
v 327.559174 573.097473 309.787689
v 747.735168 609.063232 111.447823
v 347.990906 294.345276 -218.901535
v 472.381470 184.999481 -251.933929
v 219.823334 182.507507 253.635620
v 103.632538 0.000000 332.266327
v 443.547699 324.526093 261.326447
v 715.458801 512.468262 -168.894409
v 1040.703857 743.033630 22.169004
v 119.472565 208.029144 354.220123
v 475.488464 0.000000 326.841309
v 547.516541 215.557724 244.846161
v 257.205200 0.000000 -413.265991
v 351.048828 221.658875 -324.853210
v -162.604752 183.892212 -378.569977
v -18.123909 527.230896 -125.186462
v -7.863347 516.198242 193.145065
v -327.581329 286.842865 90.555809
v -516.695496 0.000000 146.778122
v -326.908112 245.616241 215.803452
v 646.091431 317.602844 34.813061
v 229.447250 585.534790 -164.441040
v 19.424238 496.629730 -239.894852
v -255.528793 333.872162 -368.163483
v -152.839706 363.977692 317.577637
v 592.221619 0.000000 191.561157
v -553.326233 0.000000 281.163025
v -392.325775 0.000000 459.942444
v -291.944214 400.976196 -27.410988
v -593.864258 0.000000 -189.928391
v -205.939423 0.000000 -508.907043
v -368.516174 252.962616 309.103668
v -455.204834 0.000000 424.726868
vt 0.566949 0.641600
vt 0.661679 0.679732
vt 0.582398 0.738409
vt 0.440008 0.917538
vt 0.476117 0.769381
vt 0.565620 0.903744
vt 0.628450 0.288913
vt 0.567639 0.232295
vt 0.770103 0.276285
vt 0.756366 0.359476
vt 0.536780 0.424438
vt 0.625178 0.336757
vt 0.874861 0.701805
vt 0.813812 0.622432
vt 0.887017 0.512974
vt 0.779636 0.837202
vt 0.727013 0.842981
vt 0.727919 0.758360
vt 0.236779 0.145594
vt 0.302417 0.107443
vt 0.357215 0.215898
vt 0.749045 0.470677
vt 0.791119 0.484043
vt 0.698961 0.568783
vt 0.796550 0.311452
vt 0.830549 0.365936
vt 0.798654 0.394196
vt 0.441298 0.283385
vt 0.502540 0.263520
vt 0.513158 0.321525
vt 0.890862 0.628174
vt 0.624949 0.739267
vt 0.680594 0.788877
vt 0.971976 0.851165
vt 0.983552 0.930725
vt 0.914296 0.780169
vt 0.733449 0.629882
vt 0.830864 0.309435
vt 0.548615 0.167288
vt 0.689930 0.216981
vt 0.408097 0.167942
vt 0.458629 0.116656
vt 0.377200 0.065134
vt 0.873123 0.893098
vt 0.863168 0.812344
vt 0.618384 0.886145
vt 0.623106 0.787468
vt 0.364761 0.821011
vt 0.420983 0.561502
vt 0.403892 0.406906
vt 0.224860 0.493135
vt 0.031292 0.480963
vt 0.203889 0.399374
vt 0.801978 0.729686
vt 0.849199 0.488283
vt 0.537940 0.569677
vt 0.444189 0.638832
vt 0.318886 0.729179
vt 0.313713 0.334270
vt 0.821833 0.864869
vt 0.013628 0.327022
vt 0.164008 0.187191
vt 0.281723 0.559600
vt 0.082297 0.744591
vt 0.318485 0.925510
vt 0.181464 0.325900
vt 0.089336 0.185181
vn -0.004754 0.461953 -0.886892
vn 0.252506 -0.019597 -0.967397
vn 0.179108 0.219217 -0.959095
vn 0.191377 0.182595 -0.964383
vn 0.062685 0.277171 -0.958774
vn 0.040483 0.206040 -0.977706
vn 0.150051 0.321164 0.935061
vn 0.409381 -0.209048 0.888091
vn 0.572810 -0.277588 0.771254
vn -0.153510 0.986625 0.054823
vn -0.322633 0.942999 0.081617
vn -0.024727 0.669384 0.742505
vn 0.696375 -0.303266 0.650455
vn 0.743256 -0.663885 0.082626
vn 0.572810 -0.277588 0.771254
vn 0.179108 0.219217 -0.959095
vn 0.062685 0.277171 -0.958774
vn -0.004754 0.461953 -0.886892
vn 0.955361 -0.294802 -0.019426
vn 0.906025 -0.033639 -0.421885
vn 0.877653 -0.335933 -0.341870
vn 0.078716 0.413247 0.907211
vn 0.342685 0.126316 0.930920
vn 0.073022 0.258109 0.963352
vn -0.096489 0.830855 -0.548060
vn 0.581190 0.008178 -0.813727
vn 0.057156 0.371250 -0.926772
vn 0.598069 0.799087 -0.061434
vn 0.581190 0.008178 -0.813727
vn -0.096489 0.830855 -0.548060
vn -0.153510 0.986625 0.054823
vn 0.572810 -0.277588 0.771254
vn 0.598069 0.799087 -0.061434
vn -0.153510 0.986625 0.054823
vn 0.150051 0.321164 0.935061
vn 0.572810 -0.277588 0.771254
vn -0.013843 0.156085 0.987647
vn 0.180886 0.087307 0.979621
vn -0.161604 0.617089 0.770120
vn 0.073022 0.258109 0.963352
vn 0.180886 0.087307 0.979621
vn -0.013843 0.156085 0.987647
vn 0.572810 -0.277588 0.771254
vn 0.472048 -0.312684 0.824257
vn 0.696375 -0.303266 0.650455
vn 0.279079 0.073891 -0.957421
vn 0.252506 -0.019597 -0.967397
vn 0.550273 0.046887 -0.833668
vn 0.314356 -0.124004 0.941171
vn 0.162588 0.162067 0.973293
vn 0.214824 0.009320 0.976608
vn 0.214824 0.009320 0.976608
vn 0.696375 -0.303266 0.650455
vn 0.472048 -0.312684 0.824257
vn 0.581190 0.008178 -0.813727
vn 0.689126 -0.472173 -0.549689
vn 0.057156 0.371250 -0.926772
vn 0.598069 0.799087 -0.061434
vn 0.762495 -0.637001 -0.113274
vn 0.581190 0.008178 -0.813727
vn 0.409381 -0.209048 0.888091
vn 0.214824 0.009320 0.976608
vn 0.472048 -0.312684 0.824257
vn 0.409381 -0.209048 0.888091
vn 0.472048 -0.312684 0.824257
vn 0.572810 -0.277588 0.771254
vn 0.343060 -0.132447 0.929929
vn 0.314356 -0.124004 0.941171
vn 0.214824 0.009320 0.976608
vn 0.343060 -0.132447 0.929929
vn 0.214824 0.009320 0.976608
vn 0.409381 -0.209048 0.888091
vn 0.162588 0.162067 0.973293
vn 0.314356 -0.124004 0.941171
vn 0.343060 -0.132447 0.929929
vn 0.252506 -0.019597 -0.967397
vn 0.057156 0.371250 -0.926772
vn 0.689126 -0.472173 -0.549689
vn 0.179108 0.219217 -0.959095
vn 0.252506 -0.019597 -0.967397
vn 0.279079 0.073891 -0.957421
vn 0.214824 0.009320 0.976608
vn 0.162588 0.162067 0.973293
vn 0.229926 0.179055 0.956595
vn 0.214824 0.009320 0.976608
vn 0.229926 0.179055 0.956595
vn 0.893244 -0.185658 0.409446
vn 0.252506 -0.019597 -0.967397
vn 0.877653 -0.335933 -0.341870
vn 0.550273 0.046887 -0.833668
vn 0.479513 0.089375 -0.872972
vn 0.281188 0.403579 -0.870665
vn 0.550273 0.046887 -0.833668
vn -0.153510 0.986625 0.054823
vn -0.024727 0.669384 0.742505
vn 0.150051 0.321164 0.935061
vn -0.096489 0.830855 -0.548060
vn -0.153510 0.986625 0.054823
vn 0.598069 0.799087 -0.061434
vn 0.191377 0.182595 -0.964383
vn 0.249078 0.318345 -0.914667
vn 0.062685 0.277171 -0.958774
vn 0.762495 -0.637001 -0.113274
vn 0.598069 0.799087 -0.061434
vn 0.572810 -0.277588 0.771254
vn -0.322633 0.942999 0.081617
vn -0.465639 0.881459 -0.078806
vn -0.526967 0.806988 0.266600
vn -0.609481 0.758100 0.231984
vn -0.804267 0.574169 0.153249
vn -0.696540 0.717426 0.011477
vn 0.906025 -0.033639 -0.421885
vn 0.479513 0.089375 -0.872972
vn 0.550273 0.046887 -0.833668
vn 0.854511 -0.519414 -0.004456
vn 0.877653 -0.335933 -0.341870
vn 0.689126 -0.472173 -0.549689
vn 0.762495 -0.637001 -0.113274
vn 0.743256 -0.663885 0.082626
vn 0.689126 -0.472173 -0.549689
vn 0.762495 -0.637001 -0.113274
vn 0.689126 -0.472173 -0.549689
vn 0.581190 0.008178 -0.813727
vn -0.212965 0.840132 -0.498823
vn -0.322633 0.942999 0.081617
vn -0.153510 0.986625 0.054823
vn -0.212965 0.840132 -0.498823
vn -0.153510 0.986625 0.054823
vn -0.096489 0.830855 -0.548060
vn -0.032379 0.591823 -0.805417
vn -0.465639 0.881459 -0.078806
vn -0.212965 0.840132 -0.498823
vn -0.526165 0.624276 -0.577434
vn -0.465639 0.881459 -0.078806
vn -0.032379 0.591823 -0.805417
vn -0.526967 0.806988 0.266600
vn -0.465639 0.881459 -0.078806
vn -0.609481 0.758100 0.231984
vn -0.526967 0.806988 0.266600
vn -0.609481 0.758100 0.231984
vn -0.696540 0.717426 0.011477
vn 0.073022 0.258109 0.963352
vn -0.013843 0.156085 0.987647
vn -0.271637 0.596907 0.754927
vn -0.322633 0.942999 0.081617
vn -0.161604 0.617089 0.770120
vn -0.024727 0.669384 0.742505
vn 0.252506 -0.019597 -0.967397
vn -0.004754 0.461953 -0.886892
vn 0.057156 0.371250 -0.926772
vn 0.877653 -0.335933 -0.341870
vn 0.252506 -0.019597 -0.967397
vn 0.689126 -0.472173 -0.549689
vn 0.696375 -0.303266 0.650455
vn 0.893244 -0.185658 0.409446
vn 0.854511 -0.519414 -0.004456
vn 0.696375 -0.303266 0.650455
vn 0.214824 0.009320 0.976608
vn 0.893244 -0.185658 0.409446
vn 0.150051 0.321164 0.935061
vn 0.180886 0.087307 0.979621
vn 0.409381 -0.209048 0.888091
vn -0.161604 0.617089 0.770120
vn 0.180886 0.087307 0.979621
vn 0.150051 0.321164 0.935061
vn -0.024727 0.669384 0.742505
vn -0.161604 0.617089 0.770120
vn 0.150051 0.321164 0.935061
vn 0.162588 0.162067 0.973293
vn 0.343060 -0.132447 0.929929
vn 0.342685 0.126316 0.930920
vn 0.342685 0.126316 0.930920
vn 0.343060 -0.132447 0.929929
vn 0.073022 0.258109 0.963352
vn -0.526165 0.624276 -0.577434
vn -0.032379 0.591823 -0.805417
vn 0.249078 0.318345 -0.914667
vn 0.040483 0.206040 -0.977706
vn 0.062685 0.277171 -0.958774
vn 0.179108 0.219217 -0.959095
vn 0.955361 -0.294802 -0.019426
vn 0.893244 -0.185658 0.409446
vn 0.974856 0.221808 -0.021391
vn -0.696540 0.717426 0.011477
vn -0.804267 0.574169 0.153249
vn -0.789251 0.613988 0.010052
vn 0.073022 0.258109 0.963352
vn -0.271637 0.596907 0.754927
vn -0.119059 0.483667 0.867117
vn -0.703938 0.709589 0.030891
vn -0.798824 0.529508 -0.285483
vn -0.804267 0.574169 0.153249
vn -0.703938 0.709589 0.030891
vn -0.804267 0.574169 0.153249
vn -0.609481 0.758100 0.231984
vn -0.212965 0.840132 -0.498823
vn -0.465639 0.881459 -0.078806
vn -0.322633 0.942999 0.081617
vn -0.609481 0.758100 0.231984
vn -0.465639 0.881459 -0.078806
vn -0.703938 0.709589 0.030891
vn -0.271637 0.596907 0.754927
vn -0.013843 0.156085 0.987647
vn -0.161604 0.617089 0.770120
vn -0.212965 0.840132 -0.498823
vn -0.096489 0.830855 -0.548060
vn 0.057156 0.371250 -0.926772
vn -0.212965 0.840132 -0.498823
vn 0.057156 0.371250 -0.926772
vn -0.004754 0.461953 -0.886892
vn -0.032379 0.591823 -0.805417
vn -0.212965 0.840132 -0.498823
vn -0.004754 0.461953 -0.886892
vn -0.032379 0.591823 -0.805417
vn -0.004754 0.461953 -0.886892
vn 0.062685 0.277171 -0.958774
vn 0.249078 0.318345 -0.914667
vn -0.032379 0.591823 -0.805417
vn 0.062685 0.277171 -0.958774
vn 0.877653 -0.335933 -0.341870
vn 0.906025 -0.033639 -0.421885
vn 0.550273 0.046887 -0.833668
vn 0.281188 0.403579 -0.870665
vn 0.479513 0.089375 -0.872972
vn 0.040483 0.206040 -0.977706
vn 0.279079 0.073891 -0.957421
vn 0.550273 0.046887 -0.833668
vn 0.281188 0.403579 -0.870665
vn 0.179108 0.219217 -0.959095
vn 0.281188 0.403579 -0.870665
vn 0.040483 0.206040 -0.977706
vn 0.281188 0.403579 -0.870665
vn 0.179108 0.219217 -0.959095
vn 0.279079 0.073891 -0.957421
vn 0.249078 0.318345 -0.914667
vn 0.191377 0.182595 -0.964383
vn -0.308887 0.334674 -0.890271
vn -0.526165 0.624276 -0.577434
vn -0.703938 0.709589 0.030891
vn -0.465639 0.881459 -0.078806
vn -0.798824 0.529508 -0.285483
vn -0.703938 0.709589 0.030891
vn -0.526165 0.624276 -0.577434
vn -0.635285 0.676806 0.371949
vn -0.119059 0.483667 0.867117
vn -0.271637 0.596907 0.754927
vn -0.699923 0.499897 0.510109
vn -0.119059 0.483667 0.867117
vn -0.635285 0.676806 0.371949
vn -0.271637 0.596907 0.754927
vn -0.696540 0.717426 0.011477
vn -0.635285 0.676806 0.371949
vn -0.696540 0.717426 0.011477
vn -0.789251 0.613988 0.010052
vn -0.635285 0.676806 0.371949
vn -0.635285 0.676806 0.371949
vn -0.789251 0.613988 0.010052
vn -0.699923 0.499897 0.510109
vn 0.078716 0.413247 0.907211
vn 0.073022 0.258109 0.963352
vn -0.119059 0.483667 0.867117
vn -0.271637 0.596907 0.754927
vn -0.526967 0.806988 0.266600
vn -0.696540 0.717426 0.011477
vn -0.161604 0.617089 0.770120
vn -0.322633 0.942999 0.081617
vn -0.526967 0.806988 0.266600
vn -0.161604 0.617089 0.770120
vn -0.526967 0.806988 0.266600
vn -0.271637 0.596907 0.754927
vn 0.974856 0.221808 -0.021391
vn 0.893244 -0.185658 0.409446
vn 0.229926 0.179055 0.956595
vn 0.180886 0.087307 0.979621
vn 0.073022 0.258109 0.963352
vn 0.343060 -0.132447 0.929929
vn 0.180886 0.087307 0.979621
vn 0.343060 -0.132447 0.929929
vn 0.409381 -0.209048 0.888091
vn -0.526165 0.624276 -0.577434
vn -0.308887 0.334674 -0.890271
vn -0.798824 0.529508 -0.285483
vn -0.526165 0.624276 -0.577434
vn 0.249078 0.318345 -0.914667
vn -0.308887 0.334674 -0.890271
vn 0.743256 -0.663885 0.082626
vn 0.854511 -0.519414 -0.004456
vn 0.689126 -0.472173 -0.549689
vn 0.696375 -0.303266 0.650455
vn 0.854511 -0.519414 -0.004456
vn 0.743256 -0.663885 0.082626
vn 0.955361 -0.294802 -0.019426
vn 0.877653 -0.335933 -0.341870
vn 0.854511 -0.519414 -0.004456
vn 0.572810 -0.277588 0.771254
vn 0.743256 -0.663885 0.082626
vn 0.762495 -0.637001 -0.113274
vn 0.893244 -0.185658 0.409446
vn 0.955361 -0.294802 -0.019426
vn 0.854511 -0.519414 -0.004456
s off
g rock_004_LOD3 rock_004
usemtl lambert12SG
f 1/1/1 2/2/2 3/3/3
f 4/4/4 5/5/5 6/6/6
f 7/7/7 8/8/8 9/9/9
f 10/10/10 11/11/11 12/12/12
f 13/13/13 14/14/14 9/15/15
f 3/3/16 5/5/17 1/1/18
f 15/16/19 16/17/20 17/18/21
f 18/19/22 19/20/23 20/21/24
f 21/22/25 22/23/26 23/24/27
f 24/25/28 22/26/29 21/27/30
f 10/10/31 9/9/32 24/25/33
f 10/10/34 7/7/35 9/9/36
f 25/28/37 26/29/38 27/30/39
f 20/21/40 26/29/41 25/28/42
f 9/15/43 28/31/44 13/13/45
f 29/32/46 2/2/47 30/33/48
f 31/34/49 32/35/50 33/36/51
f 33/36/52 13/13/53 28/31/54
f 22/23/55 34/37/56 23/24/57
f 24/25/58 35/38/59 22/26/60
f 8/8/61 33/39/62 28/40/63
f 8/8/64 28/40/65 9/9/66
f 36/41/67 31/42/68 33/39/69
f 36/41/70 33/39/71 8/8/72
f 32/43/73 31/42/74 36/41/75
f 2/2/76 23/24/77 34/37/78
f 3/3/79 2/2/80 29/32/81
f 33/36/82 32/35/83 37/44/84
f 33/36/85 37/44/86 38/45/87
f 2/2/88 17/18/89 30/33/90
f 39/46/91 40/47/92 30/33/93
f 10/10/94 12/12/95 7/7/96
f 21/27/97 10/10/98 24/25/99
f 4/4/100 41/48/101 5/5/102
f 35/38/103 24/25/104 9/9/105
f 11/11/106 42/49/107 43/50/108
f 44/51/109 45/52/110 46/53/111
f 16/17/112 39/46/113 30/33/114
f 47/54/115 17/18/116 34/37/117
f 35/55/118 14/14/119 34/37/120
f 35/55/121 34/37/122 22/23/123
f 48/56/124 11/11/125 10/10/126
f 48/56/127 10/10/128 21/22/129
f 49/57/130 42/49/131 48/56/132
f 50/58/133 42/49/134 49/57/135
f 43/50/136 42/49/137 44/51/138
f 43/50/139 44/51/140 46/53/141
f 20/21/142 25/28/143 51/59/144
f 11/11/145 27/30/146 12/12/147
f 2/2/148 1/1/149 23/24/150
f 17/18/151 2/2/152 34/37/153
f 13/13/154 38/45/155 47/54/156
f 13/13/157 33/36/158 38/45/159
f 7/7/160 26/29/161 8/8/162
f 27/30/163 26/29/164 7/7/165
f 12/12/166 27/30/167 7/7/168
f 32/43/169 36/41/170 19/20/171
f 19/20/172 36/41/173 20/21/174
f 50/58/175 49/57/176 41/48/177
f 6/6/178 5/5/179 3/3/180
f 15/16/181 38/45/182 52/60/183
f 46/53/184 45/52/185 53/61/186
f 20/21/187 51/59/188 54/62/189
f 55/63/190 56/64/191 45/52/192
f 55/63/193 45/52/194 44/51/195
f 48/56/196 42/49/197 11/11/198
f 44/51/199 42/49/200 55/63/201
f 51/59/202 25/28/203 27/30/204
f 48/56/205 21/22/206 23/24/207
f 48/56/208 23/24/209 1/1/210
f 49/57/211 48/56/212 1/1/213
f 49/57/214 1/1/215 5/5/216
f 41/48/217 49/57/218 5/5/219
f 17/18/220 16/17/221 30/33/222
f 40/47/223 39/46/224 6/6/225
f 29/32/226 30/33/227 40/47/228
f 3/3/229 40/47/230 6/6/231
f 40/47/232 3/3/233 29/32/234
f 41/48/235 4/4/236 57/65/237
f 50/58/238 55/63/239 42/49/240
f 56/64/241 55/63/242 50/58/243
f 58/66/244 54/62/245 51/59/246
f 59/67/247 54/62/248 58/66/249
f 51/59/250 46/53/251 58/66/252
f 46/53/253 53/61/254 58/66/255
f 58/66/256 53/61/257 59/67/258
f 18/19/259 20/21/260 54/62/261
f 51/59/262 43/50/263 46/53/264
f 27/30/265 11/11/266 43/50/267
f 27/30/268 43/50/269 51/59/270
f 52/60/271 38/45/272 37/44/273
f 26/29/274 20/21/275 36/41/276
f 26/29/277 36/41/278 8/8/279
f 50/58/280 57/65/281 56/64/282
f 50/58/283 41/48/284 57/65/285
f 14/14/286 47/54/287 34/37/288
f 13/13/289 47/54/290 14/14/291
f 15/16/292 17/18/293 47/54/294
f 9/15/295 14/14/296 35/55/297
f 38/45/298 15/16/299 47/54/300
