# This file uses centimeters as units for non-parametric coordinates.

mtllib rock_plants_001.mtl
g default
v 110.611450 216.133759 162.849609
v -15.762634 216.923340 85.691406
v -92.842590 216.823334 -44.929688
v 106.939392 69.531006 166.183594
v -18.688843 63.866699 88.187500
v -96.896912 73.528778 -41.166992
v 141.400024 -70.298065 128.192383
v 15.771729 -75.962341 50.196289
v -62.436340 -66.300262 -79.158203
v -42.003967 216.574890 -8.987305
v -120.712891 216.870697 -85.199219
v -142.971436 216.328888 -196.603516
v -45.854370 82.471130 -6.530273
v -123.693665 76.862823 -83.283203
v -147.267578 85.251495 -193.870117
v -6.054199 -45.454742 -31.289063
v -83.893555 -51.063019 -108.041016
v -107.467407 -42.674347 -218.628906
v 191.982819 215.815338 161.103516
v 67.924622 216.961426 138.640625
v -27.099670 217.338501 49.501953
v 188.992554 50.656921 165.138672
v 65.337219 44.536469 141.625000
v -30.296509 55.904755 54.075195
v 208.504303 -106.690887 117.642578
v 84.848999 -112.811340 94.128906
v -10.784729 -101.443024 6.578125
v -7.748840 185.013733 174.858398
v -11.627441 206.845154 67.565430
v 49.565674 224.745239 -26.464844
v -13.071960 53.732147 147.627930
v -15.987000 69.726501 39.382813
v 43.748657 96.455627 -53.206055
v 31.966980 -73.896667 131.995117
v 29.051941 -57.902344 23.749023
v 88.787537 -31.173218 -68.840820
v 79.133789 188.926636 216.088867
v 100.608887 197.565643 117.315430
v 177.086945 198.164948 45.088867
v 62.864685 41.647217 199.008789
v 84.637390 43.671021 99.974609
v 160.665222 54.276306 28.142578
v 89.763672 -104.328186 203.231445
v 111.536499 -102.304382 104.197266
v 187.564301 -91.699066 32.365234
v -1.988464 228.242340 -103.668945
v -101.992615 193.896118 -74.980469
v -201.073181 152.863281 -112.474609
v 44.726074 103.496002 -87.521484
v -53.209717 63.548920 -59.340820
v -155.418823 30.987823 -96.065430
v 89.774902 -20.051056 -123.141602
v -8.160889 -59.998138 -94.959961
v -110.369995 -92.559235 -131.685547
v -56.432922 181.612885 76.120117
v -50.719299 183.466187 -33.275391
v 18.261353 191.811676 -123.156250
v -45.012756 47.939209 73.754883
v -37.633484 44.042084 -35.385742
v 28.827820 61.085510 -125.651367
v 14.528503 -73.936127 86.534180
v 21.907776 -77.833191 -22.606445
v 88.369080 -60.789795 -112.872070
v 147.575134 47.823364 200.646484
v 73.227539 60.779541 133.918945
v 46.825195 76.812012 34.506836
v 140.446045 -82.731995 182.370117
v 66.667542 -75.452118 114.237305
v 39.404358 -50.833740 16.949219
v 170.587250 -204.277069 139.862305
v 96.808716 -196.997192 71.730469
v 69.545593 -172.378815 -25.557617
v 147.296936 78.808838 83.180664
v 73.260681 57.079468 147.945313
v -28.780090 42.268097 162.269531
v 160.436035 -23.612488 64.734375
v 86.461548 -49.712067 127.761719
v -15.672546 -57.913116 144.714844
v 151.349182 -115.497589 8.399414
v 77.374695 -141.597168 71.424805
v -24.759399 -149.798248 88.377930
v 89.138123 2.298889 164.918945
v 86.177246 -19.629974 66.641602
v 139.741760 -45.550568 -18.773438
v 74.280762 -99.077057 187.395508
v 71.707458 -125.530914 90.342773
v 124.685669 -144.606995 3.076172
v 103.691650 -198.368164 218.628906
v 101.118408 -224.822052 121.575195
v 154.096558 -243.898163 34.308594
v 64.617126 243.898132 31.965820
v 61.709290 158.572174 -21.504883
v 105.675354 66.320251 -41.338867
v 2.947144 199.865509 104.497070
v -1.806213 112.478546 54.831055
v 44.951416 23.343994 29.243164
v -19.502563 152.741455 199.232422
v -24.255859 65.354553 149.565430
v 22.501709 -23.779999 123.976563
v -79.967957 194.890717 -19.885742
v -46.323425 197.401337 -94.612305
v 8.677917 160.406586 -147.850586
v -154.348206 137.825043 -55.862305
v -123.576965 137.102966 -131.773438
v -64.229614 104.997986 -183.220703
v -208.504272 53.252045 -73.466797
v -177.732910 52.529907 -149.377930
v -118.385681 20.424927 -200.824219
v 39.124573 168.422150 -71.730469
v -36.912476 157.051514 -100.217773
v -93.027222 100.056946 -129.041016
v 5.418823 155.361725 21.952148
v -71.731689 142.578125 -2.426758
v -126.162170 87.720795 -37.463867
v -11.236145 107.845062 110.610352
v -88.386719 95.061493 86.231445
v -142.817200 40.204163 51.194336
vt 0.000000 0.000000
vt 0.500000 0.000000
vt 1.000000 0.000000
vt 0.000000 0.500000
vt 0.500000 0.500000
vt 1.000000 0.500000
vt 0.000000 1.000000
vt 0.500000 1.000000
vt 1.000000 1.000000
vt 0.000000 0.000000
vt 0.500000 0.000000
vt 0.500000 0.500000
vt 0.000000 0.500000
vt 1.000000 0.000000
vt 1.000000 0.500000
vt 0.500000 1.000000
vt 0.000000 1.000000
vt 1.000000 1.000000
vt 0.000000 0.000000
vt 0.500000 0.000000
vt 0.500000 0.500000
vt 0.000000 0.500000
vt 1.000000 0.000000
vt 1.000000 0.500000
vt 0.500000 1.000000
vt 0.000000 1.000000
vt 1.000000 1.000000
vt 0.000000 0.000000
vt 0.500000 0.000000
vt 0.500000 0.500000
vt 0.000000 0.500000
vt 1.000000 0.000000
vt 1.000000 0.500000
vt 0.500000 1.000000
vt 0.000000 1.000000
vt 1.000000 1.000000
vt 0.000000 0.000000
vt 0.500000 0.000000
vt 0.500000 0.500000
vt 0.000000 0.500000
vt 1.000000 0.000000
vt 1.000000 0.500000
vt 0.500000 1.000000
vt 0.000000 1.000000
vt 1.000000 1.000000
vt 0.000000 0.000000
vt 0.500000 0.000000
vt 0.500000 0.500000
vt 0.000000 0.500000
vt 1.000000 0.000000
vt 1.000000 0.500000
vt 0.500000 1.000000
vt 0.000000 1.000000
vt 1.000000 1.000000
vt 0.000000 0.000000
vt 0.500000 0.000000
vt 0.500000 0.500000
vt 0.000000 0.500000
vt 1.000000 0.000000
vt 1.000000 0.500000
vt 0.500000 1.000000
vt 0.000000 1.000000
vt 1.000000 1.000000
vt 0.000000 0.000000
vt 0.500000 0.000000
vt 0.500000 0.500000
vt 0.000000 0.500000
vt 1.000000 0.000000
vt 1.000000 0.500000
vt 0.500000 1.000000
vt 0.000000 1.000000
vt 1.000000 1.000000
vt 0.000000 0.000000
vt 0.500000 0.000000
vt 0.500000 0.500000
vt 0.000000 0.500000
vt 1.000000 0.000000
vt 1.000000 0.500000
vt 0.500000 1.000000
vt 0.000000 1.000000
vt 1.000000 1.000000
vt 0.000000 0.000000
vt 0.500000 0.000000
vt 0.500000 0.500000
vt 0.000000 0.500000
vt 1.000000 0.000000
vt 1.000000 0.500000
vt 0.500000 1.000000
vt 0.000000 1.000000
vt 1.000000 1.000000
vt 0.000000 0.000000
vt 0.500000 0.000000
vt 0.500000 0.500000
vt 0.000000 0.500000
vt 1.000000 0.000000
vt 1.000000 0.500000
vt 0.500000 1.000000
vt 0.000000 1.000000
vt 1.000000 1.000000
vt 0.000000 0.000000
vt 0.500000 0.000000
vt 0.500000 0.500000
vt 0.000000 0.500000
vt 1.000000 0.000000
vt 1.000000 0.500000
vt 0.500000 1.000000
vt 0.000000 1.000000
vt 1.000000 1.000000
vt 0.000000 0.000000
vt 0.500000 0.000000
vt 0.500000 0.500000
vt 0.000000 0.500000
vt 1.000000 0.000000
vt 1.000000 0.500000
vt 0.500000 1.000000
vt 0.000000 1.000000
vt 1.000000 1.000000
vn -0.524471 0.028105 0.850965
vn -0.711320 0.030442 0.702209
vn -0.703925 -0.159608 0.692109
vn -0.513795 -0.158006 0.843237
vn -0.857590 0.031043 0.513396
vn -0.852453 -0.151803 0.500281
vn -0.671000 -0.343847 0.656908
vn -0.485233 -0.338616 0.806156
vn -0.818646 -0.329544 0.470340
vn -0.699083 0.028820 0.714459
vn -0.876952 0.030617 0.479602
vn -0.866947 -0.159345 0.472242
vn -0.685949 -0.155359 0.710871
vn -0.978703 0.029756 0.203115
vn -0.970101 -0.149053 0.191540
vn -0.825534 -0.343500 0.447775
vn -0.649418 -0.334239 0.683038
vn -0.930281 -0.323065 0.173801
vn -0.182892 0.023459 0.982853
vn -0.448281 0.026973 0.893486
vn -0.446322 -0.143178 0.883344
vn -0.175594 -0.142030 0.974163
vn -0.678511 0.028372 0.734042
vn -0.680503 -0.132661 0.720636
vn -0.431376 -0.309312 0.847491
vn -0.163465 -0.303611 0.938669
vn -0.664723 -0.290230 0.688411
vn -0.998928 0.028504 0.036488
vn -0.964264 0.087546 -0.250061
vn -0.953149 -0.099104 -0.285806
vn -0.988136 -0.153435 0.006673
vn -0.845905 0.138990 -0.514905
vn -0.832808 -0.035948 -0.552394
vn -0.907505 -0.282129 -0.311189
vn -0.943643 -0.330140 -0.023369
vn -0.792912 -0.209729 -0.572106
vn -0.970380 0.127342 -0.205295
vn -0.864869 0.148332 -0.479582
vn -0.869837 -0.011541 -0.493204
vn -0.976742 -0.028170 -0.212559
vn -0.684282 0.156445 -0.712238
vn -0.684401 0.006119 -0.729080
vn -0.852346 -0.171356 -0.494108
vn -0.959391 -0.182998 -0.214663
vn -0.668860 -0.144347 -0.729240
vn 0.202386 0.195344 0.959625
vn -0.073502 0.097358 0.992532
vn -0.008106 -0.081375 0.996651
vn 0.270328 0.023642 0.962478
vn -0.343011 -0.009079 0.939288
vn -0.285541 -0.178998 0.941502
vn 0.057573 -0.257127 0.964661
vn 0.329051 -0.148867 0.932504
vn -0.218883 -0.343157 0.913419
vn -0.994363 -0.088265 -0.058749
vn -0.934679 -0.077071 -0.347038
vn -0.900302 -0.264306 -0.345830
vn -0.961451 -0.269887 -0.052657
vn -0.793867 -0.059187 -0.605205
vn -0.758559 -0.235052 -0.607733
vn -0.833314 -0.441931 -0.332092
vn -0.895747 -0.442305 -0.044770
vn -0.698839 -0.403351 -0.590704
vn -0.676768 -0.069551 0.732903
vn -0.853834 -0.029137 0.519729
vn -0.851159 -0.196367 0.486795
vn -0.670223 -0.232878 0.704676
vn -0.963935 0.013562 0.265792
vn -0.962634 -0.143886 0.229417
vn -0.823715 -0.358030 0.439668
vn -0.645237 -0.389798 0.657059
vn -0.936195 -0.297576 0.187050
vn 0.662578 -0.054511 0.747007
vn 0.431587 -0.109714 0.895375
vn 0.446041 -0.312139 0.838819
vn 0.679462 -0.250482 0.689631
vn 0.166752 -0.156312 0.973530
vn 0.176997 -0.348630 0.920396
vn 0.440718 -0.500470 0.745183
vn 0.667821 -0.435936 0.603303
vn 0.180177 -0.527033 0.830525
vn -0.990313 0.138713 -0.006301
vn -0.957908 0.075089 -0.277080
vn -0.965046 -0.129610 -0.227787
vn -0.997202 -0.059452 0.045326
vn -0.850385 0.005575 -0.526131
vn -0.855318 -0.189272 -0.482293
vn -0.929429 -0.328297 -0.168468
vn -0.962226 -0.255121 0.095051
vn -0.826115 -0.376565 -0.419206
vn -0.811477 0.325728 -0.485187
vn -0.785093 0.078669 -0.614362
vn -0.889796 -0.012972 -0.456174
vn -0.913205 0.239877 -0.329418
vn -0.697142 -0.174560 -0.695358
vn -0.794856 -0.264510 -0.546112
vn -0.954946 -0.103916 -0.277990
vn -0.976593 0.143955 -0.159820
vn -0.860845 -0.343903 -0.375069
vn -0.529940 0.819833 -0.216879
vn -0.384840 0.793227 -0.471899
vn -0.516830 0.670221 -0.532626
vn -0.660016 0.700557 -0.271290
vn -0.206336 0.697772 -0.685959
vn -0.327485 0.579871 -0.745991
vn -0.630073 0.522954 -0.574045
vn -0.767580 0.557388 -0.316448
vn -0.438095 0.443310 -0.782016
vn -0.180924 0.980537 0.076251
vn -0.442268 0.896362 -0.030573
vn -0.499319 0.854022 0.146039
vn -0.231686 0.940329 0.249205
vn -0.665225 0.734384 -0.134744
vn -0.721958 0.691291 0.029890
vn -0.538269 0.780749 0.317328
vn -0.274546 0.868050 0.413659
vn -0.755458 0.625952 0.193563
s 1
g rock_plants_001
usemtl lambert20SG
f 1/1/1 2/2/2 5/5/3 4/4/4
f 2/2/2 3/3/5 6/6/6 5/5/3
f 4/4/4 5/5/3 8/8/7 7/7/8
f 5/5/3 6/6/6 9/9/9 8/8/7
s 2
f 10/10/10 11/11/11 14/12/12 13/13/13
f 11/11/11 12/14/14 15/15/15 14/12/12
f 13/13/13 14/12/12 17/16/16 16/17/17
f 14/12/12 15/15/15 18/18/18 17/16/16
s 3
f 19/19/19 20/20/20 23/21/21 22/22/22
f 20/20/20 21/23/23 24/24/24 23/21/21
f 22/22/22 23/21/21 26/25/25 25/26/26
f 23/21/21 24/24/24 27/27/27 26/25/25
s 4
f 28/28/28 29/29/29 32/30/30 31/31/31
f 29/29/29 30/32/32 33/33/33 32/30/30
f 31/31/31 32/30/30 35/34/34 34/35/35
f 32/30/30 33/33/33 36/36/36 35/34/34
s 5
f 37/37/37 38/38/38 41/39/39 40/40/40
f 38/38/38 39/41/41 42/42/42 41/39/39
f 40/40/40 41/39/39 44/43/43 43/44/44
f 41/39/39 42/42/42 45/45/45 44/43/43
s 6
f 46/46/46 47/47/47 50/48/48 49/49/49
f 47/47/47 48/50/50 51/51/51 50/48/48
f 49/49/49 50/48/48 53/52/52 52/53/53
f 50/48/48 51/51/51 54/54/54 53/52/52
s 7
f 55/55/55 56/56/56 59/57/57 58/58/58
f 56/56/56 57/59/59 60/60/60 59/57/57
f 58/58/58 59/57/57 62/61/61 61/62/62
f 59/57/57 60/60/60 63/63/63 62/61/61
s 8
f 64/64/64 65/65/65 68/66/66 67/67/67
f 65/65/65 66/68/68 69/69/69 68/66/66
f 67/67/67 68/66/66 71/70/70 70/71/71
f 68/66/66 69/69/69 72/72/72 71/70/70
s 9
f 73/73/73 74/74/74 77/75/75 76/76/76
f 74/74/74 75/77/77 78/78/78 77/75/75
f 76/76/76 77/75/75 80/79/79 79/80/80
f 77/75/75 78/78/78 81/81/81 80/79/79
s 10
f 82/82/82 83/83/83 86/84/84 85/85/85
f 83/83/83 84/86/86 87/87/87 86/84/84
f 85/85/85 86/84/84 89/88/88 88/89/89
f 86/84/84 87/87/87 90/90/90 89/88/88
s 11
f 91/91/91 92/92/92 95/93/93 94/94/94
f 92/92/92 93/95/95 96/96/96 95/93/93
f 94/94/94 95/93/93 98/97/97 97/98/98
f 95/93/93 96/96/96 99/99/99 98/97/97
s 12
f 100/100/100 101/101/101 104/102/102 103/103/103
f 101/101/101 102/104/104 105/105/105 104/102/102
f 103/103/103 104/102/102 107/106/106 106/107/107
f 104/102/102 105/105/105 108/108/108 107/106/106
s 13
f 109/109/109 110/110/110 113/111/111 112/112/112
f 110/110/110 111/113/113 114/114/114 113/111/111
f 112/112/112 113/111/111 116/115/115 115/116/116
f 113/111/111 114/114/114 117/117/117 116/115/115
