# This file uses centimeters as units for non-parametric coordinates.

mtllib rock_010_LOD1.mtl
g default
v 77.946449 13.353896 110.964050
v 70.084694 152.306641 -75.920792
v -82.852737 17.955374 -99.040604
v -107.192993 0.000000 -2.486662
v 117.333565 -0.007594 -65.525085
v 18.926262 192.552094 76.184242
v -4.405238 0.000000 -120.788841
v -4.405238 -16.712343 -2.486662
v 21.887493 1.075706 126.264198
v -96.548195 57.888729 109.881256
v -132.785767 102.615631 -4.137063
v -122.186813 82.894241 -112.585831
v 103.846367 87.880333 -94.211151
v 134.983017 54.114407 -25.506683
v 87.857277 112.553314 115.230888
v -52.842857 110.350014 146.525742
v 130.360962 61.784149 76.733017
v -88.307426 146.072006 -131.095276
v -4.647392 184.776474 -29.472383
v -19.809566 199.403564 50.151707
v -69.111893 146.981293 85.103714
v -56.154011 125.762558 -125.766174
v -4.736989 128.258392 -143.356003
v 57.620155 149.359650 98.938568
v 86.140091 179.084427 20.780394
v 104.253319 127.232025 44.024590
v 46.654682 125.495758 -101.861160
v -12.326454 58.405701 -144.202118
v 68.020790 -0.611597 -74.265228
v -100.240288 166.063370 -99.621048
v -1.103870 179.077194 -86.037689
v -101.926430 92.933723 49.947361
v -129.507629 36.136761 1.340411
v -68.918213 9.882977 86.753525
v 23.261063 109.882675 146.650452
v -66.185822 48.117153 156.262634
v -91.260223 66.594894 -140.342178
v -9.279178 204.331497 13.240046
v -98.851601 178.036835 -2.291020
vt 0.055803 0.565053
vt 0.452158 0.619589
vt 0.464224 0.032988
vt 0.541980 0.139510
vt 0.371278 0.258941
vt 0.556223 0.284332
vt 0.439111 0.925691
vt 0.394909 0.856051
vt 0.302484 0.893343
vt 0.686125 0.675114
vt 0.441228 0.518013
vt 0.446107 0.417972
vt 0.349405 0.567961
vt 0.479372 0.851447
vt 0.618901 0.970050
vt 0.561056 0.006412
vt 0.694654 0.162340
vt 0.691064 0.439917
vt 0.590298 0.628524
vt 0.584149 0.740439
vt 0.567691 0.519712
vt 0.507232 0.590723
vt 0.675601 0.606303
vt 0.649437 0.521099
vt 0.758725 0.539206
vt 0.630285 0.242025
vt 0.317064 0.503789
vt 0.206989 0.672822
vt 0.619134 0.855140
vt 0.422730 0.336725
vt 0.216618 0.468461
vt 0.184358 0.567630
vt 0.528594 0.337463
vt 0.779502 0.694455
vt 0.120471 0.691388
vt 0.393227 0.636226
vt 0.478999 0.743731
vt 0.673600 0.725260
vt 0.679944 0.875525
vt 0.356738 0.514364
vt 0.654467 0.751812
vt 0.623032 0.368768
vt 0.362282 0.695743
vt 0.333485 0.390543
vt 0.155881 0.770713
vt 0.364664 0.991135
vt 0.010252 0.735698
vt 0.823151 0.428692
vt 0.378132 0.152383
vt 0.069828 0.447127
vt 0.852570 0.544605
vt 0.478672 0.984527
vt 0.684999 0.053377
vt 0.887924 0.663509
vn -0.286747 0.900532 0.326831
vn 0.155395 0.850931 0.501766
vn 0.090918 0.990977 -0.098480
vn -0.505109 -0.794670 0.336696
vn -0.026200 -0.999657 -0.000415
vn 0.067323 -0.763521 0.642265
vn 0.540691 -0.468220 0.698873
vn 0.658564 -0.709537 -0.250701
vn 0.944795 -0.056655 0.322728
vn -0.910551 0.011985 0.413224
vn -0.943725 -0.262798 0.200802
vn -0.898834 0.231926 0.371898
vn -0.719459 0.528251 0.450921
vn -0.421650 0.543675 0.725692
vn 0.246230 0.248056 0.936931
vn -0.672895 0.667679 -0.318459
vn -0.969686 0.197735 0.143558
vn -0.601744 0.789818 0.118708
vn -0.545246 -0.678031 -0.492932
vn -0.485064 -0.874184 -0.022684
vn -0.906082 -0.078050 -0.415840
vn -0.013598 -0.862785 -0.505388
vn 0.873019 0.480858 0.081331
vn 0.676108 0.184318 -0.713376
vn 0.604378 0.678091 -0.418234
vn 0.102957 0.969345 -0.223091
vn 0.576958 0.816572 0.018133
vn 0.284306 -0.138747 -0.948641
vn 0.295485 -0.673115 -0.677941
vn 0.531698 0.641177 0.553343
vn 0.188600 0.413697 -0.890666
vn 0.458990 0.327211 -0.825991
vn 0.981618 0.141842 -0.127696
vn 0.646699 0.354591 0.675312
vn -0.404983 -0.308350 0.860761
vn -0.342852 -0.155186 -0.926483
vn 0.044037 0.353862 -0.934260
vn 0.138142 0.822567 -0.551635
vn -0.221671 0.401446 -0.888652
s 1
g rock_010_LOD1
usemtl lambert18SG
f 20/36/1 6/13/2 38/2/3
f 34/3/4 8/4/5 9/49/6
f 1/5/7 5/6/8 17/30/9
f 34/46/4 10/9/10 33/7/11
f 32/8/12 10/9/10 21/43/13
f 16/28/14 35/32/15 6/13/2
f 30/20/16 11/14/17 39/37/18
f 3/15/19 4/52/20 33/7/11 12/29/21
f 3/53/19 7/17/22 4/16/20
f 26/12/23 13/42/24 2/21/25
f 2/21/25 19/22/26 25/11/27
f 7/51/22 28/25/28 29/48/29
f 8/4/5 7/17/22 29/26/29
f 9/49/6 8/4/5 5/6/8 1/5/7
f 6/13/2 35/32/15 24/40/30
f 28/25/28 23/23/31 27/24/32
f 5/6/8 13/42/24 14/33/33
f 1/50/7 15/31/34 35/32/15
f 10/45/10 16/28/14 21/43/13
f 34/47/4 36/35/35 10/45/10
f 17/30/9 15/44/34 1/5/7
f 17/30/9 5/6/8 14/33/33
f 14/33/33 26/12/23 17/30/9
f 12/29/21 37/39/36 3/15/19
f 37/34/36 22/10/37 23/23/31 28/25/28
f 3/54/19 37/34/36 28/25/28 7/51/22
f 30/20/16 31/19/38 18/41/39
f 33/7/11 11/14/17 12/29/21
f 10/9/10 32/8/12 33/7/11
f 35/32/15 36/35/35 9/1/6
f 29/26/29 13/42/24 5/6/8
f 13/42/24 26/12/23 14/33/33
f 31/19/38 19/22/26 2/21/25
f 6/13/2 25/11/27 38/2/3
f 25/11/27 19/22/26 38/2/3
f 19/22/26 39/37/18 20/36/1 38/2/3
f 39/37/18 21/43/13 20/36/1
f 20/36/1 16/28/14 6/13/2
f 30/20/16 18/41/39 12/29/21
f 12/29/21 11/14/17 30/20/16
f 21/43/13 16/28/14 20/36/1
f 18/41/39 31/19/38 22/10/37
f 23/23/31 22/10/37 31/19/38
f 27/24/32 23/23/31 31/19/38 2/21/25
f 25/11/27 26/12/23 2/21/25
f 24/40/30 25/11/27 6/13/2
f 26/12/23 25/11/27 24/40/30
f 17/30/9 26/12/23 15/44/34
f 13/18/24 27/24/32 2/21/25
f 28/25/28 27/24/32 13/18/24
f 29/48/29 28/25/28 13/18/24
f 8/4/5 29/26/29 5/6/8
f 19/22/26 31/19/38 30/20/16 39/37/18
f 11/14/17 32/8/12 21/43/13 39/37/18
f 33/7/11 32/8/12 11/14/17
f 4/52/20 34/46/4 33/7/11
f 4/16/20 8/4/5 34/3/4
f 24/27/30 35/32/15 15/31/34
f 35/32/15 16/28/14 36/35/35
f 16/28/14 10/45/10 36/35/35
f 1/50/7 35/32/15 9/1/6
f 4/16/20 7/17/22 8/4/5
f 18/41/39 37/39/36 12/29/21
f 37/34/36 18/38/39 22/10/37
f 34/47/4 9/1/6 36/35/35
f 15/44/34 26/12/23 24/40/30
