# This file uses centimeters as units for non-parametric coordinates.

mtllib rock_011.mtl
g default
v -80.102647 28.863196 130.267297
v 135.728187 34.147888 162.831199
v -86.532497 151.573841 140.787268
v 158.169365 152.181101 166.151864
v -153.011729 185.016699 -137.701814
v 163.500090 156.209481 -149.239362
v -152.543013 28.863196 -137.314691
v 135.753928 35.011950 -149.124258
v 45.683626 173.156516 178.834207
v 8.070378 175.931617 -165.498152
v 8.146850 31.320978 -178.382299
v 51.822028 31.320978 168.201757
v -191.740682 171.305091 59.318506
v -162.818658 28.131643 37.015658
v 45.810540 1.761343 90.286499
v 124.145247 28.314451 53.681323
v 163.392743 174.038368 70.576284
v 52.398646 178.297112 102.483228
v -209.312572 179.522517 -40.636240
v -202.700448 28.131643 -69.383329
v 8.239929 -0.024914 -63.338942
v 159.815314 28.314451 -25.030018
v 184.287897 169.980807 -17.540790
v 198.560609 107.683121 169.725117
v 42.999032 113.830557 188.093387
v -94.171417 92.816899 131.086406
v -205.003756 115.623997 44.457031
v -207.811696 139.526916 -47.109006
v -161.142921 129.961210 -137.531582
v 6.118563 135.677572 -186.564003
v 193.823828 113.409793 -161.219860
v 223.334430 116.288324 -34.975643
v 185.787054 115.469085 56.518258
v -72.897343 163.124318 79.379385
v -89.747806 182.979761 -30.814924
v -77.178912 188.261098 -134.606832
v -69.964240 143.863167 -135.849394
v -77.765757 29.910147 -143.312703
v 180.168253 137.214636 182.392217
v 49.139208 152.105507 196.005412
v -93.082324 121.730675 153.536155
v -205.796128 151.753718 57.231171
v -228.562036 166.619934 -54.937631
v -163.788877 168.658436 -155.919181
v -79.311413 164.975238 -158.655599
v 10.369899 160.795269 -192.187640
v 175.924493 133.263051 -154.968768
v 228.562036 145.782584 -42.393088
v 190.004310 148.191584 69.394603
v 152.564720 73.374340 189.333118
v 37.679891 73.889431 194.165546
v -103.276674 69.978772 151.358423
v -191.496809 78.083997 49.912805
v -218.491840 93.623945 -64.551787
v -176.043204 92.751965 -146.341361
v -90.567898 91.254992 -145.304818
v -3.986908 87.691721 -196.005412
v 152.327156 77.018558 -167.198531
v 178.814052 67.641009 -28.927448
v 139.473702 72.513826 65.559978
v -48.813907 189.631124 61.093244
v -50.294944 192.047169 -9.529282
v -3.941692 191.477377 56.703985
v 46.125130 172.835225 14.212985
v 22.918362 180.170153 -56.826362
v -4.483945 175.368651 -44.154477
v -25.667617 191.397594 -1.197578
v -5.939143 191.163792 27.666657
v -107.985866 3.994158 -66.669323
v -103.934291 3.994158 52.051040
vt 0.376806 0.417046
vt 0.510760 0.422891
vt 0.490591 0.467877
vt 0.362554 0.449491
vt 0.360712 0.522544
vt 0.340976 0.568048
vt 0.247512 0.516702
vt 0.098376 0.705602
vt 0.138715 0.772007
vt 0.276506 0.072019
vt 0.049624 0.749603
vt 0.239729 0.342788
vt 0.314353 0.309621
vt 0.605126 0.429575
vt 0.591935 0.274047
vt 0.650350 0.780801
vt 0.720144 0.645923
vt 0.235127 0.421170
vt 0.468991 0.557136
vt 0.574811 0.598585
vt 0.518682 0.697805
vt 0.441814 0.614100
vt 0.175599 0.895040
vt 0.202964 0.843370
vt 0.459137 0.970293
vt 0.291503 0.968419
vt 0.493044 0.327801
vt 0.086901 0.361133
vt 0.060485 0.627130
vt 0.269938 0.182521
vt 0.411046 0.153553
vt 0.608694 0.895686
vt 0.569066 0.865769
vt 0.476741 0.774687
vt 0.337873 0.712981
vt 0.393413 0.676381
vt 0.269163 0.633662
vt 0.167670 0.572823
vt 0.267720 0.778421
vt 0.387259 0.869560
vt 0.225041 0.712379
vt 0.177486 0.675880
vt 0.480669 0.538199
vt 0.484907 0.504782
vt 0.638179 0.554847
vt 0.612808 0.596886
vt 0.357521 0.471802
vt 0.364389 0.498415
vt 0.225202 0.463674
vt 0.237472 0.498125
vt 0.130208 0.512729
vt 0.138805 0.581507
vt 0.131651 0.693652
vt 0.161843 0.685007
vt 0.204031 0.733392
vt 0.185072 0.752551
vt 0.384269 0.923588
vt 0.236622 0.813083
vt 0.252701 0.798460
vt 0.405142 0.895386
vt 0.495061 0.818584
vt 0.517781 0.828892
vt 0.551902 0.720920
vt 0.579594 0.752097
vt 0.310340 0.640368
vt 0.349048 0.598701
vt 0.377790 0.621386
vt 0.361306 0.639004
vt 0.332158 0.647658
vt 0.324847 0.689596
vt 0.329511 0.934277
vt 0.551625 0.005156
vt 0.507533 0.994356
vt 0.096236 0.452129
vt 0.147924 0.222748
vt 0.006491 0.672332
vt 0.607014 0.497437
vt 0.646446 0.628888
vt 0.382819 0.896537
vt 0.426976 0.918636
vt 0.138207 0.557364
vt 0.105307 0.596907
vt 0.605376 0.580985
vt 0.096888 0.822882
vt 0.376405 0.002818
vt 0.617202 0.160978
vt 0.688282 0.824765
vt 0.750249 0.701236
vt 0.182596 0.112909
vn -0.364662 -0.754043 0.546297
vn -0.013921 -0.812001 0.583490
vn -0.121976 -0.112655 0.986119
vn -0.531789 -0.122044 0.838037
vn -0.279532 0.804694 0.523765
vn -0.156935 0.958521 0.237925
vn -0.350870 0.860341 0.369735
vn -0.492301 0.066873 -0.867853
vn -0.251665 0.044420 -0.966795
vn -0.175727 -0.768675 -0.615027
vn -0.381615 -0.620820 -0.684801
vn -0.606186 -0.724166 0.328819
vn -0.220560 -0.953114 0.207189
vn 0.509604 -0.769788 0.384356
vn 0.640627 -0.756790 0.129869
vn 0.818279 -0.559635 0.131257
vn 0.626474 -0.503631 0.594884
vn -0.869898 -0.201985 0.449977
vn -0.047094 0.879161 0.474192
vn 0.326488 0.878986 0.347547
vn 0.360100 0.924462 0.125292
vn 0.032870 0.986838 0.158333
vn -0.047510 -0.742612 -0.668035
vn -0.159328 -0.053891 -0.985754
vn 0.583557 -0.427089 -0.690693
vn 0.486366 -0.704089 -0.517404
vn 0.084509 -0.987505 0.133013
vn -0.531185 -0.835301 -0.141823
vn -0.983215 -0.087005 -0.160370
vn -0.155617 -0.975224 -0.157228
vn 0.076573 -0.990535 -0.113920
vn 0.605960 -0.795482 0.004477
vn 0.818186 -0.568777 0.084055
vn 0.288986 0.955636 -0.056981
vn 0.018012 0.999423 0.028787
vn 0.127191 0.991261 -0.034987
vn -0.080971 0.996711 -0.003349
vn -0.344360 0.938385 0.029148
vn 0.078090 0.948424 -0.307235
vn 0.314271 0.870673 -0.378368
vn -0.026086 0.945200 -0.325448
vn -0.193696 0.922848 -0.332916
vn -0.092622 0.170666 0.980966
vn -0.112237 0.013036 0.993596
vn 0.679396 -0.215401 0.701444
vn 0.624771 0.494205 0.604502
vn -0.512775 -0.013803 0.858412
vn -0.486991 0.038232 0.872570
vn -0.888586 -0.133113 0.438972
vn -0.854069 0.102351 0.509990
vn -0.974096 -0.121970 -0.190422
vn -0.963542 0.224898 -0.144939
vn -0.497551 -0.136185 -0.856677
vn -0.479597 0.205515 -0.853083
vn -0.181533 0.151380 -0.971663
vn -0.248780 -0.161274 -0.955039
vn 0.619324 -0.102732 -0.778386
vn -0.157139 -0.015651 -0.987452
vn -0.051607 0.321210 -0.945601
vn 0.541386 0.520974 -0.659914
vn 0.875710 0.482322 -0.022292
vn 0.927894 -0.370124 0.044966
vn 0.872106 0.451308 0.189084
vn 0.908163 -0.387078 0.159407
vn -0.158866 0.984683 -0.071838
vn -0.226989 0.937903 0.262325
vn 0.049813 0.981322 0.185813
vn 0.192551 0.977627 -0.084678
vn 0.110572 0.975456 -0.190418
vn 0.080181 0.991232 -0.105027
s 1
g rock_011
usemtl lambert19SG
f 1/1/1 12/2/2 51/3/3 52/4/4
f 3/5/5 34/6/6 13/7/7
f 55/8/8 56/9/9 38/84/10 7/11/11
f 14/12/12 70/13/13 1/1/1
f 2/88/14 16/87/15 60/16/16 50/17/17
f 14/12/12 1/1/1 52/4/4 53/18/18
f 9/19/19 4/20/20 17/21/21 18/22/22
f 11/23/23 57/24/24 58/71/25 8/26/26
f 12/2/2 15/27/27 16/15/15 2/14/14
f 51/3/3 12/2/2 2/14/14 50/77/17
f 20/28/28 14/12/12 53/18/18 54/74/29
f 20/75/28 69/30/30 70/13/13 14/12/12
f 16/15/15 15/27/27 21/31/31 22/86/32
f 60/16/16 16/87/15 22/32/32 59/33/33
f 18/22/22 17/21/21 23/34/34 65/35/35 64/36/36
f 13/7/7 34/6/6 35/37/37 19/38/38
f 7/11/11 20/76/28 54/29/29 55/8/8
f 7/89/11 38/10/10 20/75/28
f 22/86/32 21/31/31 11/85/23 8/72/26
f 59/33/33 22/32/32 8/73/26 58/25/25
f 10/39/39 23/34/34 6/40/40
f 19/38/38 35/37/37 36/41/41 5/42/42
f 40/43/43 25/44/44 24/45/45 39/83/46
f 26/47/47 25/44/44 40/43/43 41/48/48
f 27/49/49 26/47/47 41/48/48 42/50/50
f 28/51/51 27/49/49 42/50/50 43/81/52
f 29/53/53 28/82/51 43/52/52 44/54/54
f 44/54/54 45/55/55 37/56/56 29/53/53
f 31/57/57 30/58/58 46/59/59 47/79/60
f 48/61/61 32/62/62 31/80/57 47/60/60
f 49/63/63 33/64/64 32/62/62 48/61/61
f 24/78/45 33/64/64 49/63/63 39/46/46
f 3/5/5 9/19/19 18/22/22 34/6/6
f 62/65/65 61/66/66 63/67/67 68/68/68 67/69/69
f 36/41/41 35/37/37 66/70/70 65/35/35 10/39/39
f 37/56/56 45/55/55 46/59/59 30/58/58
f 38/84/10 56/9/9 57/24/24 11/23/23
f 20/75/28 38/10/10 69/30/30
f 9/19/19 40/43/43 39/83/46 4/20/20
f 41/48/48 40/43/43 9/19/19 3/5/5
f 42/50/50 41/48/48 3/5/5 13/7/7
f 43/81/52 42/50/50 13/7/7 19/38/38
f 44/54/54 43/52/52 19/38/38 5/42/42
f 5/42/42 36/41/41 45/55/55 44/54/54
f 46/59/59 45/55/55 36/41/41 10/39/39
f 47/79/60 46/59/59 10/39/39 6/40/40
f 23/34/34 48/61/61 47/60/60 6/40/40
f 17/21/21 49/63/63 48/61/61 23/34/34
f 39/46/46 49/63/63 17/21/21 4/20/20
f 25/44/44 51/3/3 50/77/17 24/45/45
f 52/4/4 51/3/3 25/44/44 26/47/47
f 53/18/18 52/4/4 26/47/47 27/49/49
f 54/74/29 53/18/18 27/49/49 28/51/51
f 55/8/8 54/29/29 28/82/51 29/53/53
f 29/53/53 37/56/56 56/9/9 55/8/8
f 57/24/24 56/9/9 37/56/56 30/58/58
f 58/71/25 57/24/24 30/58/58 31/57/57
f 32/62/62 59/33/33 58/25/25 31/80/57
f 33/64/64 60/16/16 59/33/33 32/62/62
f 50/17/17 60/16/16 33/64/64 24/78/45
f 35/37/37 34/6/6 61/66/66 62/65/65
f 34/6/6 18/22/22 63/67/67 61/66/66
f 18/22/22 64/36/36 68/68/68 63/67/67
f 67/69/69 66/70/70 35/37/37 62/65/65
f 65/35/35 23/34/34 10/39/39
f 64/36/36 66/70/70 67/69/69 68/68/68
f 64/36/36 65/35/35 66/70/70
f 69/30/30 38/10/10 11/85/23 21/31/31
f 70/13/13 69/30/30 21/31/31 15/27/27
f 1/1/1 70/13/13 15/27/27 12/2/2
