# This file uses centimeters as units for non-parametric coordinates.

mtllib rock_plants_001_LOD1.mtl
g default
v 110.611450 216.133759 162.849609
v -92.842590 216.823334 -44.929688
v 141.400024 -70.298065 128.192383
v -62.436340 -66.300262 -79.158203
v -42.003967 216.574890 -8.987305
v -142.971436 216.328888 -196.603516
v -6.054199 -45.454742 -31.289063
v -107.467407 -42.674347 -218.628906
v 191.982819 215.815338 161.103516
v -27.099670 217.338501 49.501953
v 208.504303 -106.690887 117.642578
v -10.784729 -101.443024 6.578125
v -7.748840 185.013733 174.858398
v 49.565674 224.745239 -26.464844
v 31.966980 -73.896667 131.995117
v 88.787537 -31.173218 -68.840820
v 79.133789 188.926636 216.088867
v 177.086945 198.164948 45.088867
v 89.763672 -104.328186 203.231445
v 187.564301 -91.699066 32.365234
v -1.988464 228.242340 -103.668945
v -201.073181 152.863281 -112.474609
v 89.774902 -20.051056 -123.141602
v -110.369995 -92.559235 -131.685547
v -56.432922 181.612885 76.120117
v 18.261353 191.811676 -123.156250
v 14.528503 -73.936127 86.534180
v 88.369080 -60.789795 -112.872070
v 147.575134 47.823364 200.646484
v 46.825195 76.812012 34.506836
v 170.587250 -204.277069 139.862305
v 69.545593 -172.378815 -25.557617
v 147.296936 78.808838 83.180664
v -28.780090 42.268097 162.269531
v 151.349182 -115.497589 8.399414
v -24.759399 -149.798248 88.377930
v 89.138123 2.298889 164.918945
v 139.741760 -45.550568 -18.773438
v 103.691650 -198.368164 218.628906
v 154.096558 -243.898163 34.308594
v 64.617126 243.898132 31.965820
v 105.675354 66.320251 -41.338867
v -19.502563 152.741455 199.232422
v 22.501709 -23.779999 123.976563
v -79.967957 194.890717 -19.885742
v 8.677917 160.406586 -147.850586
v -208.504272 53.252045 -73.466797
v -118.385681 20.424927 -200.824219
v 39.124573 168.422150 -71.730469
v -93.027222 100.056946 -129.041016
v -11.236145 107.845062 110.610352
v -142.817200 40.204163 51.194336
vt 0.000000 0.000000
vt 1.000000 0.000000
vt 0.000000 1.000000
vt 1.000000 1.000000
vt 0.000000 0.000000
vt 1.000000 0.000000
vt 0.000000 1.000000
vt 1.000000 1.000000
vt 0.000000 0.000000
vt 1.000000 0.000000
vt 0.000000 1.000000
vt 1.000000 1.000000
vt 0.000000 0.000000
vt 1.000000 0.000000
vt 0.000000 1.000000
vt 1.000000 1.000000
vt 0.000000 0.000000
vt 1.000000 0.000000
vt 0.000000 1.000000
vt 1.000000 1.000000
vt 0.000000 0.000000
vt 1.000000 0.000000
vt 0.000000 1.000000
vt 1.000000 1.000000
vt 0.000000 0.000000
vt 1.000000 0.000000
vt 0.000000 1.000000
vt 1.000000 1.000000
vt 0.000000 0.000000
vt 1.000000 0.000000
vt 0.000000 1.000000
vt 1.000000 1.000000
vt 0.000000 0.000000
vt 1.000000 0.000000
vt 0.000000 1.000000
vt 1.000000 1.000000
vt 0.000000 0.000000
vt 1.000000 0.000000
vt 0.000000 1.000000
vt 1.000000 1.000000
vt 0.000000 0.000000
vt 1.000000 0.000000
vt 0.000000 1.000000
vt 1.000000 1.000000
vt 0.000000 0.000000
vt 1.000000 0.000000
vt 0.000000 1.000000
vt 1.000000 1.000000
vt 0.000000 0.000000
vt 1.000000 0.000000
vt 0.000000 1.000000
vt 1.000000 1.000000
vn -0.705596 -0.159322 0.690472
vn -0.705596 -0.159322 0.690472
vn -0.705596 -0.159322 0.690472
vn -0.705596 -0.159322 0.690472
vn -0.869249 -0.159031 0.468098
vn -0.869249 -0.159031 0.468098
vn -0.869249 -0.159031 0.468098
vn -0.869249 -0.159031 0.468098
vn -0.450031 -0.141810 0.881682
vn -0.450031 -0.141810 0.881682
vn -0.450031 -0.141810 0.881682
vn -0.450031 -0.141810 0.881682
vn -0.951933 -0.097904 -0.290237
vn -0.951933 -0.097904 -0.290237
vn -0.951933 -0.097904 -0.290237
vn -0.951933 -0.097904 -0.290237
vn -0.867499 -0.009583 -0.497346
vn -0.867499 -0.009583 -0.497346
vn -0.867499 -0.009583 -0.497346
vn -0.867499 -0.009583 -0.497346
vn -0.012651 -0.082752 0.996490
vn -0.012651 -0.082752 0.996490
vn -0.012651 -0.082752 0.996490
vn -0.012651 -0.082752 0.996490
vn -0.898737 -0.263769 -0.350282
vn -0.898737 -0.263769 -0.350282
vn -0.898737 -0.263769 -0.350282
vn -0.898737 -0.263769 -0.350282
vn -0.853378 -0.194453 0.483668
vn -0.853378 -0.194453 0.483668
vn -0.853378 -0.194453 0.483668
vn -0.853378 -0.194453 0.483668
vn 0.442542 -0.313973 0.839987
vn 0.442542 -0.313973 0.839987
vn 0.442542 -0.313973 0.839987
vn 0.442542 -0.313973 0.839987
vn -0.963960 -0.131706 -0.231159
vn -0.963960 -0.131706 -0.231159
vn -0.963960 -0.131706 -0.231159
vn -0.963960 -0.131706 -0.231159
vn -0.889459 -0.017039 -0.456697
vn -0.889459 -0.017039 -0.456697
vn -0.889459 -0.017039 -0.456697
vn -0.889459 -0.017039 -0.456697
vn -0.513987 0.669434 -0.536354
vn -0.513987 0.669434 -0.536354
vn -0.513987 0.669434 -0.536354
vn -0.513987 0.669434 -0.536354
vn -0.503174 0.852097 0.144038
vn -0.503174 0.852097 0.144038
vn -0.503174 0.852097 0.144038
vn -0.503174 0.852097 0.144038
s off
g rock_plants_001_LOD1
usemtl lambert20SG
f 4/4/1 3/3/2 1/1/3 2/2/4
f 8/8/5 7/7/6 5/5/7 6/6/8
f 12/12/9 11/11/10 9/9/11 10/10/12
f 16/16/13 15/15/14 13/13/15 14/14/16
f 20/20/17 19/19/18 17/17/19 18/18/20
f 24/24/21 23/23/22 21/21/23 22/22/24
f 28/28/25 27/27/26 25/25/27 26/26/28
f 32/32/29 31/31/30 29/29/31 30/30/32
f 36/36/33 35/35/34 33/33/35 34/34/36
f 40/40/37 39/39/38 37/37/39 38/38/40
f 44/44/41 43/43/42 41/41/43 42/42/44
f 48/48/45 47/47/46 45/45/47 46/46/48
f 52/52/49 51/51/50 49/49/51 50/50/52
