# This file uses centimeters as units for non-parametric coordinates.

mtllib rock_plants_003.mtl
g default
v 175.572083 148.909790 68.574310
v 74.865356 183.597229 -34.281300
v 7.855533 162.053467 -168.627716
v 78.629318 59.173695 132.343170
v -25.714268 88.886040 31.708708
v -87.223038 74.867477 -105.996376
v 12.557928 -69.282990 168.627716
v -91.785660 -39.570648 67.992081
v -153.294464 -53.589165 -69.712997
v 163.719147 113.620285 -104.851830
v 76.764854 190.962387 -13.301092
v -52.446781 263.400482 19.262802
v 108.429443 -11.116447 -50.992596
v 18.269745 60.658043 41.837406
v -106.093422 141.517624 72.466003
v 23.423641 -133.282089 -45.280415
v -66.736061 -61.507595 47.549587
v -191.099228 19.352018 78.178185
v 43.630371 27.853811 163.295105
v 37.135338 47.296474 21.076267
v 95.218819 39.204189 -113.916817
v -13.190935 -101.710114 147.574875
v -20.992800 -88.463455 4.798421
v 39.067383 -87.183792 -129.351196
v -17.409872 -245.878372 138.214676
v -25.211737 -232.631714 -4.560609
v 34.848408 -231.352051 -138.710220
v 189.815369 -5.381786 66.090752
v 59.317566 51.265259 45.898960
v -47.693317 103.358398 -40.688175
v 133.661865 -135.960037 58.428040
v 1.130451 -85.130714 36.679337
v -102.804428 -24.237789 -47.551933
v 98.445061 -263.400513 0.045688
v -34.086357 -212.571167 -21.704187
v -138.021240 -151.678314 -105.934280
v 68.082283 209.775558 105.156418
v 88.185081 179.480179 -38.379169
v 156.163879 103.999863 -151.006165
v -37.055679 107.674385 111.347740
v -20.688725 72.064178 -31.347889
v 52.940857 4.623027 -145.247131
v -99.990440 -24.014986 141.015717
v -83.623451 -59.625156 -1.679916
v -9.993904 -127.066307 -115.579163
v 164.298889 44.990761 14.305058
v 22.725945 45.250137 38.867680
v -117.083168 43.243340 -7.086340
v 164.757370 -97.150421 21.940828
v 23.237043 -103.174362 45.540485
v -116.651619 -95.677048 1.042626
v 166.550262 -233.804459 -25.094477
v 25.029936 -239.828430 -1.494821
v -114.858688 -232.331116 -45.992680
v 143.712631 116.180206 72.339478
v 42.109337 127.060486 -8.519072
v -9.200366 105.728981 -130.874130
v 93.031425 -13.890534 117.394966
v -9.871922 -9.314550 37.751251
v -59.215134 -21.110205 -86.441872
v 83.643913 -162.139938 128.213669
v -19.259398 -157.563950 48.569954
v -68.602684 -169.359604 -75.623161
v 180.830795 89.173859 -9.241881
v 36.464737 88.886986 23.662918
v -109.630775 76.364426 -15.101671
v 186.782059 -54.765381 18.380671
v 42.645515 -61.598019 51.180035
v -103.797157 -64.219559 12.575940
v 191.099197 -200.800369 -10.570350
v 46.962635 -207.633011 22.229013
v -99.480034 -210.254578 -16.375080
vt 0.000000 0.000000
vt 0.500000 0.000000
vt 1.000000 0.000000
vt 0.000000 0.500000
vt 0.500000 0.500000
vt 1.000000 0.500000
vt 0.000000 1.000000
vt 0.500000 1.000000
vt 1.000000 1.000000
vt 0.000000 0.000000
vt 0.500000 0.000000
vt 0.500000 0.500000
vt 0.000000 0.500000
vt 1.000000 0.000000
vt 1.000000 0.500000
vt 0.500000 1.000000
vt 0.000000 1.000000
vt 1.000000 1.000000
vt 0.000000 0.000000
vt 0.500000 0.000000
vt 0.500000 0.500000
vt 0.000000 0.500000
vt 1.000000 0.000000
vt 1.000000 0.500000
vt 0.500000 1.000000
vt 0.000000 1.000000
vt 1.000000 1.000000
vt 0.000000 0.000000
vt 0.500000 0.000000
vt 0.500000 0.500000
vt 0.000000 0.500000
vt 1.000000 0.000000
vt 1.000000 0.500000
vt 0.500000 1.000000
vt 0.000000 1.000000
vt 1.000000 1.000000
vt 0.000000 0.000000
vt 0.500000 0.000000
vt 0.500000 0.500000
vt 0.000000 0.500000
vt 1.000000 0.000000
vt 1.000000 0.500000
vt 0.500000 1.000000
vt 0.000000 1.000000
vt 1.000000 1.000000
vt 0.000000 0.000000
vt 0.500000 0.000000
vt 0.500000 0.500000
vt 0.000000 0.500000
vt 1.000000 0.000000
vt 1.000000 0.500000
vt 0.500000 1.000000
vt 0.000000 1.000000
vt 1.000000 1.000000
vt 0.000000 0.000000
vt 0.500000 0.000000
vt 0.500000 0.500000
vt 0.000000 0.500000
vt 1.000000 0.000000
vt 1.000000 0.500000
vt 0.500000 1.000000
vt 0.000000 1.000000
vt 1.000000 1.000000
vt 0.000000 0.000000
vt 0.500000 0.000000
vt 0.500000 0.500000
vt 0.000000 0.500000
vt 1.000000 0.000000
vt 1.000000 0.500000
vt 0.500000 1.000000
vt 0.000000 1.000000
vt 1.000000 1.000000
vn -0.328929 0.753092 0.569787
vn -0.479239 0.787562 0.387396
vn -0.596540 0.656877 0.461142
vn -0.441043 0.624222 0.644847
vn -0.602210 0.777103 0.182905
vn -0.716784 0.650797 0.250368
vn -0.692191 0.502384 0.518153
vn -0.537804 0.473623 0.697459
vn -0.807252 0.502603 0.309410
vn 0.713375 -0.018880 0.700529
vn 0.553754 0.107166 0.825755
vn 0.470619 -0.055180 0.880609
vn 0.634395 -0.179964 0.751768
vn 0.362543 0.227098 0.903875
vn 0.279203 0.072781 0.957470
vn 0.370425 -0.215504 0.903517
vn 0.533332 -0.334782 0.776838
vn 0.186473 -0.083983 0.978864
vn -0.917760 0.386711 0.090396
vn -0.900604 0.409106 -0.146779
vn -0.959070 0.228932 -0.166657
vn -0.974875 0.209763 0.074955
vn -0.832071 0.408164 -0.375580
vn -0.886747 0.234596 -0.398301
vn -0.982744 0.040476 -0.180488
vn -0.998054 0.025513 0.056905
vn -0.911601 0.053139 -0.407626
vn -0.155768 0.004249 0.987785
vn -0.365787 0.099361 0.925380
vn -0.435166 -0.075758 0.897157
vn -0.220023 -0.168821 0.960775
vn -0.554938 0.188805 0.810183
vn -0.624531 0.021714 0.780698
vn -0.488753 -0.248109 0.836399
vn -0.276619 -0.336014 0.900320
vn -0.673119 -0.146108 0.724957
vn -0.685908 0.685150 -0.245152
vn -0.632081 0.617715 -0.467869
vn -0.755590 0.473531 -0.452607
vn -0.807431 0.544840 -0.226287
vn -0.542196 0.515040 -0.663896
vn -0.659245 0.374355 -0.652115
vn -0.851678 0.312189 -0.420931
vn -0.900846 0.385562 -0.199544
vn -0.754123 0.221079 -0.618403
vn 0.166546 0.049052 0.984813
vn -0.072029 0.049933 0.996152
vn -0.071786 -0.140334 0.987498
vn 0.170792 -0.137255 0.975700
vn -0.306495 0.047965 0.950663
vn -0.309987 -0.135141 0.941087
vn -0.068939 -0.325488 0.943030
vn 0.169092 -0.318783 0.932623
vn -0.303054 -0.313701 0.899861
vn -0.529890 0.450454 0.718546
vn -0.718404 0.457626 0.523902
vn -0.771585 0.280898 0.570749
vn -0.578176 0.278014 0.767086
vn -0.854134 0.431175 0.290764
vn -0.906296 0.262468 0.331269
vn -0.796789 0.094014 0.596900
vn -0.606560 0.096003 0.789220
vn -0.928710 0.085145 0.360899
vn 0.213662 0.188327 0.958583
vn -0.023939 0.184174 0.982602
vn -0.017520 -0.005397 0.999832
vn 0.223917 0.002726 0.974604
vn -0.260175 0.169514 0.950565
vn -0.257779 -0.013197 0.966114
vn -0.010465 -0.194750 0.980797
vn 0.226378 -0.182971 0.956700
vn -0.246714 -0.195464 0.949171
s 1
g rock_plants_003
usemtl lambert20SG
f 1/1/1 2/2/2 5/5/3 4/4/4
f 2/2/2 3/3/5 6/6/6 5/5/3
f 4/4/4 5/5/3 8/8/7 7/7/8
f 5/5/3 6/6/6 9/9/9 8/8/7
s 2
f 10/10/10 11/11/11 14/12/12 13/13/13
f 11/11/11 12/14/14 15/15/15 14/12/12
f 13/13/13 14/12/12 17/16/16 16/17/17
f 14/12/12 15/15/15 18/18/18 17/16/16
s 3
f 19/19/19 20/20/20 23/21/21 22/22/22
f 20/20/20 21/23/23 24/24/24 23/21/21
f 22/22/22 23/21/21 26/25/25 25/26/26
f 23/21/21 24/24/24 27/27/27 26/25/25
s 4
f 28/28/28 29/29/29 32/30/30 31/31/31
f 29/29/29 30/32/32 33/33/33 32/30/30
f 31/31/31 32/30/30 35/34/34 34/35/35
f 32/30/30 33/33/33 36/36/36 35/34/34
s 5
f 37/37/37 38/38/38 41/39/39 40/40/40
f 38/38/38 39/41/41 42/42/42 41/39/39
f 40/40/40 41/39/39 44/43/43 43/44/44
f 41/39/39 42/42/42 45/45/45 44/43/43
s 6
f 46/46/46 47/47/47 50/48/48 49/49/49
f 47/47/47 48/50/50 51/51/51 50/48/48
f 49/49/49 50/48/48 53/52/52 52/53/53
f 50/48/48 51/51/51 54/54/54 53/52/52
s 7
f 55/55/55 56/56/56 59/57/57 58/58/58
f 56/56/56 57/59/59 60/60/60 59/57/57
f 58/58/58 59/57/57 62/61/61 61/62/62
f 59/57/57 60/60/60 63/63/63 62/61/61
s 8
f 64/64/64 65/65/65 68/66/66 67/67/67
f 65/65/65 66/68/68 69/69/69 68/66/66
f 67/67/67 68/66/66 71/70/70 70/71/71
f 68/66/66 69/69/69 72/72/72 71/70/70
