# This file uses centimeters as units for non-parametric coordinates.

mtllib rock_014_LOD1.mtl
g default
v 97.525452 0.313841 -84.568176
v 79.997414 0.385915 -112.164673
v 81.303169 20.372803 -88.451256
v 42.967693 -0.128675 -48.318619
v 20.350193 -0.003867 -79.663437
v 46.909657 16.550804 -57.086063
v 53.435024 -0.124221 -110.974434
v 40.996517 24.732601 -81.110023
v 24.735678 0.521632 -59.712971
v 59.798386 26.450771 -90.912628
v -1.194797 0.306412 32.173252
v 7.444054 23.728968 19.687532
v -25.875673 1.338217 -33.749573
v -21.346024 18.227011 -16.792610
v -15.697541 0.133703 -1.586433
v 42.029228 0.505430 2.444308
v 34.151108 20.786213 0.378726
v 17.255854 -0.666072 -52.018742
v 32.290344 0.574966 23.129137
v 3.256403 33.724834 -25.098379
v 119.142090 0.284550 45.950504
v 127.624161 21.374084 37.924694
v 99.611511 19.992643 -21.616838
v 92.802414 0.000000 -27.692142
v 131.026443 -0.202062 -39.354301
v 102.271744 -0.072958 20.830692
v 163.934128 20.273571 10.173751
v 120.026627 26.310883 -28.097986
v 110.372246 0.000000 -43.851185
v 156.072968 0.484534 35.309841
v 108.362526 25.170937 20.519751
v 171.920532 0.000000 12.474648
v 131.034515 30.675295 3.445506
v -27.915800 0.156869 -107.898697
v -73.308907 0.002407 -114.656738
v -30.999165 20.955372 -117.867577
v -24.519073 -0.184062 -156.346710
v -82.084053 -0.374790 -149.455505
v -59.188007 35.155724 -129.654343
v -66.487366 0.004853 -161.399933
v -30.265125 13.969657 -155.331650
v -60.868221 23.439909 -153.765640
v -64.285507 0.583037 41.129723
v -40.034798 0.479982 6.367149
v -65.853882 22.624083 16.735790
v -85.601448 26.000242 -4.774251
v -114.470345 0.625039 10.696084
v -90.284737 0.613539 -31.923502
v -92.624359 0.665256 19.350496
v -109.486931 0.508180 -12.874145
v -40.212563 2.216908 -8.577193
v -119.057327 23.847767 -77.781578
v -101.950096 0.199196 -102.318489
v -94.893303 22.564154 -64.878662
v -75.316849 -0.056551 -76.320076
v -108.611435 0.182932 -53.141033
v -127.435661 0.026490 -74.156448
v -92.337990 0.646472 -47.887238
v -95.009819 29.987114 -81.977844
v -38.780628 20.586960 83.794525
v 27.013685 2.404979 66.250847
v -44.509163 -0.193830 74.835930
v -22.168430 17.879969 109.453255
v 29.212101 -0.486539 92.527657
v -42.819523 0.316712 100.936142
v -20.079861 24.313292 73.487991
v -25.957050 0.000000 113.335358
v 16.884050 28.376434 86.925797
v -198.388641 0.000000 -12.510220
v -218.651718 0.008595 -61.440208
v -194.423950 23.837784 -19.912127
v -151.989227 -0.158795 -32.003948
v -187.539886 -0.403557 -87.651695
v -199.707291 33.199265 -61.353424
v -214.395111 0.377045 -33.385864
v -167.541306 0.012054 -77.580490
v -156.029251 16.078304 -37.643356
v -172.826324 26.615757 -68.182106
v -193.501648 40.531452 -47.898964
v -74.958054 17.224478 69.778885
v -62.613285 0.050585 52.351097
v -57.196995 22.342909 68.326477
v -43.325268 -0.061152 70.908745
v -81.663101 0.021745 73.108139
v -55.698154 0.255339 91.272766
vt 0.454441 0.527403
vt 0.504190 0.411238
vt 0.548526 0.433621
vt 0.444341 0.497832
vt 0.468000 0.459639
vt 0.505663 0.475431
vt 0.400488 0.476300
vt 0.449423 0.406337
vt 0.538175 0.493790
vt 0.396346 0.541192
vt 0.466883 0.569042
vt 0.517948 0.849511
vt 0.460566 0.857832
vt 0.482624 0.808434
vt 0.466377 0.761488
vt 0.515104 0.711416
vt 0.448331 0.696450
vt 0.399132 0.849567
vt 0.504559 0.757180
vt 0.537281 0.783862
vt 0.437083 0.785805
vt 0.393025 0.786132
vt 0.836138 0.680506
vt 0.774357 0.669844
vt 0.791590 0.641649
vt 0.807174 0.594308
vt 0.847110 0.606099
vt 0.840485 0.495807
vt 0.881832 0.519672
vt 0.714984 0.642378
vt 0.851331 0.557120
vt 0.814276 0.550169
vt 0.896258 0.548322
vt 0.880528 0.616779
vt 0.771015 0.589517
vt 0.784723 0.525312
vt 0.710965 0.605987
vt 0.796411 0.347025
vt 0.712324 0.290307
vt 0.805066 0.276199
vt 0.896509 0.169700
vt 0.678673 0.235821
vt 0.744992 0.227405
vt 0.856155 0.227471
vt 0.931327 0.247562
vt 0.846892 0.315539
vt 0.793322 0.193231
vt 0.703372 0.157977
vt 0.788833 0.115771
vt 0.264953 0.790824
vt 0.212476 0.827243
vt 0.143449 0.749842
vt 0.112107 0.791233
vt 0.257661 0.876576
vt 0.203585 0.899620
vt 0.160697 0.823307
vt 0.198502 0.763792
vt 0.125430 0.868612
vt 0.253844 0.215833
vt 0.209644 0.268549
vt 0.197738 0.188846
vt 0.156613 0.197992
vt 0.189711 0.125102
vt 0.086837 0.205242
vt 0.247246 0.199086
vt 0.136298 0.224188
vt 0.129652 0.285502
vt 0.502686 0.247995
vt 0.497643 0.217643
vt 0.476413 0.156712
vt 0.511458 0.166691
vt 0.447773 0.108177
vt 0.454965 0.255248
vt 0.491765 0.103887
vt 0.544351 0.193672
vt 0.461408 0.187179
vt 0.429582 0.229205
vt 0.796411 0.347026
vt 0.712324 0.290307
vt 0.805068 0.276202
vt 0.812428 0.209553
vt 0.864844 0.150699
vt 0.928172 0.188705
vt 0.678673 0.235822
vt 0.744992 0.227405
vt 0.856156 0.227471
vt 0.931328 0.247562
vt 0.846888 0.315534
vt 0.774216 0.176908
vt 0.703373 0.157979
vt 0.788834 0.115771
vt 0.159541 0.563584
vt 0.202710 0.519073
vt 0.261484 0.497293
vt 0.162407 0.417219
vt 0.204132 0.569223
vt 0.169977 0.474902
vt 0.095578 0.475542
vn 0.064355 0.770921 0.633671
vn -0.617301 0.648111 0.445973
vn 0.046167 0.456213 0.888672
vn 0.343140 0.656054 -0.672196
vn -0.365857 0.580874 -0.727141
vn 0.027217 0.934727 -0.354324
vn -0.552065 0.825604 -0.116629
vn 0.545612 0.837510 -0.029729
vn -0.746789 0.607478 -0.270697
vn 0.731144 0.551754 0.401244
vn -0.778238 0.465967 -0.420976
vn -0.123472 0.929819 -0.346687
vn 0.477279 0.569256 -0.669442
vn 0.560443 0.489703 0.667904
vn 0.932242 0.361822 -0.003042
vn 0.731706 0.677324 0.076407
vn -0.876009 0.234006 0.421722
vn -0.352728 0.538151 0.765491
vn -0.228526 0.760381 0.607944
vn -0.836634 0.514935 0.186775
vn 0.099789 0.752770 0.650676
vn 0.065180 0.995832 0.063798
vn -0.624957 0.678200 0.386619
vn -0.694238 0.683053 -0.226874
vn 0.082940 0.800415 -0.593681
vn -0.164812 0.513773 -0.841947
vn -0.845008 0.440131 -0.303721
vn 0.536915 0.423185 0.729820
vn 0.931191 0.361520 -0.046756
vn 0.671095 0.741344 -0.006392
vn -0.900850 0.230559 0.367847
vn -0.416277 0.357969 0.835806
vn 0.544671 0.416284 -0.728039
vn 0.863479 0.288222 -0.413922
vn -0.144272 0.281980 -0.948511
vn 0.451983 0.623374 -0.638057
vn -0.304548 0.641272 -0.704287
vn -0.296784 0.908857 0.293084
vn -0.802217 0.526792 -0.280961
vn 0.748889 0.611056 0.256466
vn 0.304264 0.457625 0.835466
vn -0.580383 0.505518 0.638442
vn -0.231549 0.936605 -0.262976
vn -0.626557 0.697536 -0.347663
vn -0.595187 0.762854 0.252598
vn 0.687302 0.670035 0.280479
vn 0.496678 0.811825 -0.307004
vn 0.234253 0.892934 0.384440
vn 0.128117 0.739953 0.660345
vn -0.427693 0.666159 0.610991
vn -0.128582 0.735324 -0.665406
vn -0.146855 0.442252 -0.884786
vn 0.375932 0.876920 -0.299478
vn 0.861791 0.507239 0.004966
vn -0.526017 0.477544 0.703745
vn 0.276040 0.626634 0.728788
vn 0.329910 0.761512 0.557906
vn -0.646278 0.756542 0.099849
vn -0.944220 0.328435 -0.024066
vn -0.603968 0.796566 0.026561
vn 0.343066 0.933225 0.106756
vn -0.174937 0.664939 -0.726122
vn 0.431638 0.482098 -0.762411
vn 0.652907 0.331845 0.680876
vn -0.790110 0.387356 0.475060
vn -0.120625 0.234970 0.964489
vn -0.157348 0.566428 0.808951
vn -0.653843 0.314622 -0.688115
vn 0.749101 0.309212 0.585864
vn 0.790227 0.285610 -0.542189
vn 0.786310 0.601321 0.141878
vn 0.430558 0.688907 -0.583118
vn -0.182478 0.977649 0.104421
vn -0.091367 0.586171 0.805019
vn -0.825772 0.450728 0.339035
vn -0.231462 0.323397 0.917518
vn -0.090821 0.489268 -0.867392
vn -0.433991 0.695176 -0.573047
vn -0.818427 0.468716 -0.332389
vn -0.128808 0.453763 -0.881764
vn 0.371682 0.921359 -0.113800
vn 0.848623 0.508711 -0.145092
vn -0.836005 0.544655 0.066676
vn 0.233337 0.645156 0.727549
vn -0.667297 0.661941 -0.341392
s 1
g rock_014_LOD1
usemtl rocks_zusaetze_lambert12SG
f 6/6/1 9/2/2 4/3/3
f 2/10/4 7/7/5 10/4/6
f 6/6/1 8/5/7 9/2/2
f 2/10/4 10/4/6 3/1/8
f 8/5/7 7/7/5 5/8/9
f 6/6/1 10/4/6 8/5/7
f 9/2/2 8/5/7 5/8/9
f 3/1/8 1/11/10 2/10/4
f 6/6/1 1/11/10 3/1/8
f 4/9/3 1/11/10 6/6/1
f 10/4/6 7/7/5 8/5/7
f 3/1/8 10/4/6 6/6/1
s 2
f 13/16/11 20/15/12 18/17/13
f 19/13/14 16/18/15 17/21/16
f 15/20/17 11/12/18 12/14/19
f 14/19/20 20/15/12 13/16/11
f 19/13/14 17/21/16 12/14/19
f 11/12/18 19/13/14 12/14/19
f 13/16/11 15/20/17 14/19/20
f 17/21/16 16/22/15 18/17/13
f 17/21/16 18/17/13 20/15/12
f 12/14/19 17/21/16 20/15/12
f 14/19/20 15/20/17 12/14/19
f 12/14/19 20/15/12 14/19/20
s 3
f 22/25/21 33/26/22 31/27/23
f 23/31/24 28/32/25 29/28/26 24/29/27
f 30/24/28 32/30/29 27/35/30
f 26/34/31 21/23/32 31/27/23
f 31/27/23 21/23/32 22/25/21
f 30/24/28 27/35/30 22/25/21
f 21/23/32 30/24/28 22/25/21
f 24/33/27 26/34/31 31/27/23 23/31/24
f 27/35/30 25/36/33 28/32/25
f 31/27/23 33/26/22 28/32/25 23/31/24
f 22/25/21 27/35/30 33/26/22
f 28/32/25 33/26/22 27/35/30
f 29/28/26 28/32/25 25/36/33
f 27/35/30 32/37/29 25/36/33
s 4
f 37/38/34 40/39/35 41/40/36
f 41/40/36 42/43/37 39/47/38
f 40/42/35 38/48/39 42/43/37
f 36/44/40 39/47/38 34/41/41
f 34/45/41 37/46/34 36/44/40
f 39/47/38 38/48/39 35/49/42
f 34/41/41 39/47/38 35/49/42
f 41/40/36 40/39/35 42/43/37
f 37/46/34 41/40/36 36/44/40
f 42/43/37 38/48/39 39/47/38
f 41/40/36 39/47/38 36/44/40
s 5
f 46/56/43 50/53/44 47/52/45
f 44/54/46 51/55/47 45/51/48
f 43/50/49 44/54/46 45/51/48
f 47/52/45 49/57/50 45/51/48 46/56/43
f 50/53/44 46/56/43 48/58/51
f 49/57/50 43/50/49 45/51/48
f 51/55/47 48/58/51 46/56/43
f 45/51/48 51/55/47 46/56/43
s 6
f 53/63/52 59/62/53 55/64/54
f 56/60/55 58/67/56 54/66/57 52/61/58
f 57/59/59 56/60/55 52/61/58
f 53/63/52 52/61/58 59/62/53
f 54/66/57 55/64/54 59/62/53
f 52/61/58 54/66/57 59/62/53
f 53/63/52 57/65/59 52/61/58
f 58/67/56 55/64/54 54/66/57
s 7
f 60/69/60 68/70/61 66/71/62
f 61/74/63 68/70/61 64/72/64
f 65/68/65 67/73/66 63/76/67
f 66/71/62 62/75/68 60/69/60
f 65/68/65 63/76/67 60/69/60
f 62/75/68 65/68/65 60/69/60
f 61/74/63 62/75/68 66/71/62
f 63/76/67 64/72/64 68/70/61
f 66/71/62 68/70/61 61/74/63
f 60/69/60 63/76/67 68/70/61
f 63/76/67 67/77/66 64/72/64
s 8
f 72/78/69 76/79/70 77/80/71
f 77/80/71 78/85/72 79/81/73
f 71/86/74 75/82/75 69/83/76
f 76/84/70 73/90/77 78/85/72
f 71/86/74 79/81/73 75/82/75
f 69/87/76 72/88/69 71/86/74
f 74/89/78 73/90/77 70/91/79
f 75/82/75 79/81/73 74/89/78 70/91/79
f 77/80/71 76/79/70 78/85/72
f 72/88/69 77/80/71 71/86/74
f 78/85/72 73/90/77 74/89/78
f 79/81/73 78/85/72 74/89/78
f 77/80/71 79/81/73 71/86/74
s 9
f 81/94/80 82/97/81 83/95/82
f 84/92/83 85/98/84 82/97/81 80/93/85
f 81/94/80 80/93/85 82/97/81
f 81/94/80 84/96/83 80/93/85
f 85/98/84 83/95/82 82/97/81
