# This file uses centimeters as units for non-parametric coordinates.

mtllib rock_015_LOD1.mtl
g default
v 22.725752 -2.956005 45.400997
v 3.146015 11.587131 17.863731
v -1.171302 -0.713207 15.737572
v 21.131714 -0.162787 0.521240
v 20.636541 12.243290 40.015903
v 21.458008 11.796389 3.022705
v 41.459923 9.391432 25.026649
v 28.208622 24.075729 28.061331
v 25.148794 20.496082 12.182999
v 46.975971 -2.284732 27.370039
v 71.238525 18.540630 73.955566
v 39.185898 12.844858 38.916599
v 70.464844 23.132381 47.706543
v 47.005085 -0.959905 43.686104
v 69.682251 0.714517 44.359619
v 39.257515 9.216558 73.506386
v 74.854614 16.061848 36.311768
v 81.658325 13.161125 75.814941
v 57.279427 27.822586 67.158875
v 56.802715 21.771162 36.732658
v 55.626221 -3.264950 72.785400
v 38.048725 17.942265 57.227940
v 48.288300 -3.914513 68.495735
v 74.324852 -0.361352 68.845749
v 73.986771 25.604656 62.731171
v -5.881470 24.519217 -7.180176
v -36.535534 17.563946 -40.914658
v -40.062714 -0.195163 -46.039215
v 0.191284 0.000000 -43.541504
v -36.380173 16.887665 -6.120720
v -1.429565 16.988564 -41.744385
v 2.371338 16.908491 -6.258789
v -15.918387 36.394936 -14.491961
v -17.267212 31.346539 -36.816650
v -26.949707 0.000000 5.544189
v -33.885620 29.990185 -22.605469
v -39.904617 0.165132 -1.889991
v 6.566900 -0.172957 0.298314
v -5.117791 30.647160 -29.980194
v -91.394531 -1.128459 49.750244
v -74.757118 27.702108 41.817913
v -73.390579 27.039749 40.666801
v -82.219849 -1.990687 29.868652
v -61.565430 -1.143883 38.026123
v -94.945557 10.270587 50.611572
v -83.934570 5.338523 25.642578
v -58.097534 10.225612 35.636475
v -66.102417 11.192396 57.054443
v -81.383057 11.107567 61.300293
v -68.412903 0.131271 55.695454
v -54.906803 -1.451135 68.331871
v -47.704174 10.471278 65.613167
v -54.922821 1.334118 58.644501
v -44.542004 0.588876 57.845058
v -44.327881 -2.521389 65.865372
v 69.467072 -0.527834 23.426344
v 84.765305 11.688786 18.422991
v 76.004128 -4.265380 13.117881
v 93.445007 -2.726633 22.026426
v 89.458542 5.452477 30.408588
v 87.163391 -0.620675 31.436794
v -56.525208 -1.947247 -48.443806
v -44.372681 -6.423250 -63.271973
v -48.320148 14.375772 -63.354763
v -51.810059 -3.246846 -73.562744
v -66.261124 1.987077 -63.343071
v -49.120483 3.711937 -76.141846
v -39.618507 0.835876 -62.728607
v -43.828293 -7.159295 -54.421886
v 47.646183 -1.599205 -6.226626
v 55.884216 11.962900 -14.963133
v 44.267624 -0.342607 -18.711130
v 56.819435 -2.424556 -23.031885
v 59.880730 -4.541142 -12.527611
vt 0.101757 0.494354
vt 0.101203 0.539735
vt 0.121945 0.555332
vt 0.070997 0.541070
vt 0.105581 0.513716
vt 0.059739 0.516870
vt 0.050286 0.549660
vt 0.142814 0.544419
vt 0.088749 0.592662
vt 0.092126 0.551836
vt 0.096635 0.568641
vt 0.070435 0.545826
vt 0.113851 0.522642
vt 0.125799 0.513915
vt 0.117332 0.586600
vt 0.095485 0.567996
vt 0.070361 0.582417
vt 0.075448 0.586499
vt 0.065273 0.578336
vt 0.089046 0.572921
vt 0.088877 0.552988
vt 0.106066 0.568882
vt 0.142814 0.544419
vt 0.059739 0.516870
vt 0.105581 0.513716
vt 0.066220 0.534910
vt 0.096988 0.591319
vt 0.091346 0.574212
vt 0.121945 0.555332
vt 0.116142 0.542196
vt 0.085621 0.531747
vt 0.075774 0.547231
vt 0.101206 0.532257
vt 0.113851 0.522642
vt 0.125799 0.513915
vt 0.050286 0.549660
vt 0.065097 0.544421
vt 0.129437 0.583223
vt 0.101757 0.494354
vt 0.075448 0.586499
vt 0.065273 0.578336
vt 0.089046 0.572921
vt 0.092126 0.551836
vt 0.101924 0.563071
vt 0.142814 0.544419
vt 0.059739 0.516870
vt 0.105581 0.513716
vt 0.066220 0.534910
vt 0.096988 0.591319
vt 0.091346 0.574212
vt 0.121945 0.555332
vt 0.108530 0.544075
vt 0.093876 0.535395
vt 0.075774 0.547231
vt 0.113851 0.522642
vt 0.125799 0.513915
vt 0.050286 0.549660
vt 0.065097 0.544421
vt 0.129437 0.583223
vt 0.101757 0.494354
vt 2.138603 0.545083
vt 2.125261 0.558015
vt 2.120748 0.540168
vt 2.101510 0.550390
vt 2.088364 0.555063
vt 2.064486 0.543487
vt 2.078755 0.576880
vt 2.063116 0.577511
vt 2.055365 0.549890
vt 2.123255 0.586238
vt 2.102385 0.595589
vt 2.092686 0.583302
vt 2.119651 0.571234
vt 2.063199 0.527919
vt 2.085509 0.510528
vt 2.097571 0.520187
vt 2.066793 0.538466
vt 2.110022 0.523366
vt 2.125000 0.517464
vt 2.130005 0.551829
vt 2.094937 0.552726
vt 2.059926 0.546688
vt 2.070935 0.577195
vt 2.121453 0.578736
vt 2.097535 0.589446
vt 2.091540 0.515357
vt 2.064996 0.533193
vt 2.117511 0.520415
vt 2.134749 0.545643
vt 2.093322 0.549260
vt 2.059926 0.546688
vt 2.070935 0.577195
vt 2.123255 0.586238
vt 2.097535 0.589446
vt 2.112195 0.564278
vt 2.091540 0.515357
vt 2.064996 0.533193
vt 2.117511 0.520415
vt 2.141043 0.552236
vt 2.115000 0.557669
vt 2.128455 0.539049
vt 2.093322 0.549260
vt 2.059926 0.546688
vt 2.078755 0.576880
vt 2.063116 0.577511
vt 2.123255 0.586238
vt 2.102385 0.595589
vt 2.092686 0.583302
vt 2.112195 0.564278
vt 2.091540 0.515357
vt 2.064996 0.533193
vt 2.117511 0.520415
vt 2.130005 0.551829
vt 2.094937 0.552726
vt 2.059926 0.546688
vt 2.070935 0.577195
vt 2.121453 0.578736
vt 2.097535 0.589446
vt 2.091540 0.515357
vt 2.064996 0.533193
vt 2.117511 0.520415
vn 0.909169 0.321540 -0.264621
vn 0.302767 0.438081 -0.846414
vn 0.855791 0.517012 -0.017918
vn -0.948014 0.242280 0.206325
vn -0.142178 0.332650 0.932271
vn -0.254359 0.528092 0.810198
vn 0.160459 0.890224 -0.426326
vn 0.357611 0.887742 0.289878
vn -0.739361 0.652110 -0.167625
vn 0.093849 0.252146 -0.963127
vn -0.718518 -0.569381 0.399422
vn -0.215118 -0.266841 0.939425
vn -0.656545 -0.089233 0.748990
vn -0.344998 0.854023 0.389385
vn -0.853644 0.514696 0.079871
vn 0.929599 -0.186291 0.318027
vn 0.779335 0.250082 -0.574539
vn 0.547402 0.827556 0.124506
vn 0.679231 -0.030523 0.733289
vn 0.184530 0.699238 0.690663
vn -0.579662 -0.518364 -0.628721
vn -0.740724 0.048165 -0.670081
vn -0.030045 0.802616 -0.595740
vn 0.548585 -0.460498 -0.697852
vn 0.310509 0.900491 -0.304465
vn -0.829975 0.291056 0.475844
vn -0.211104 0.417388 0.883868
vn -0.599424 0.467582 0.649660
vn -0.009335 0.957496 0.288294
vn -0.712674 0.698373 0.066114
vn 0.894167 0.353635 0.274605
vn 0.759788 0.365238 -0.537888
vn 0.630613 0.516762 0.579037
vn 0.561429 0.781927 -0.270903
vn 0.614682 0.630403 0.474085
vn -0.599029 0.524641 -0.604910
vn -0.019487 0.841754 -0.539509
vn -0.672699 0.277184 -0.686036
vn 0.654212 0.196996 -0.730205
vn 0.342446 -0.358785 0.868334
vn 0.653144 0.293248 0.698147
vn -0.107239 0.266910 0.957736
vn -0.344023 0.153372 -0.926351
vn 0.882366 0.205659 -0.423243
vn 0.863508 -0.374335 -0.337975
vn -0.342166 -0.443548 -0.828365
vn -0.800348 -0.521676 0.295461
vn -0.952219 0.226786 0.204565
vn -0.062208 0.936734 0.344470
vn 0.156976 0.842451 -0.515398
vn -0.541422 0.736712 -0.405116
vn -0.421138 0.435805 0.795435
vn 0.223679 0.939746 0.258543
vn 0.644656 0.589180 -0.487120
vn 0.739136 0.204530 0.641752
vn -0.147419 0.425818 0.892719
vn 0.970349 0.159517 -0.181596
vn 0.588450 0.453414 0.669434
vn -0.102988 0.364325 -0.925560
vn -0.609219 0.790195 0.066661
vn -0.176010 0.970029 -0.167527
vn 0.817285 0.121045 0.563377
vn 0.783626 -0.507617 -0.358127
vn 0.988069 -0.033242 -0.150380
vn -0.703632 0.600672 -0.379599
vn 0.148100 0.261689 -0.953722
vn 0.055213 -0.340550 -0.938604
vn 0.019110 0.669074 0.742950
vn 0.302774 0.897908 0.319514
vn -0.612093 0.693542 -0.379923
vn -0.176600 0.606606 0.775140
vn 0.302354 0.953190 0.003173
vn 0.497422 0.448712 -0.742448
vn 0.888994 0.269867 0.369949
s 1
g rock_015_LOD1
usemtl rocks_zusaetze_lambert14SG
f 10/6/1 6/5/2 7/4/3
f 3/15/4 1/9/5 5/11/6
f 7/4/3 6/5/2 9/2/7
f 8/10/8 7/4/3 9/2/7
f 2/3/9 9/2/7 6/13/2
f 3/8/4 2/3/9 6/13/2 4/14/10
f 5/16/6 1/17/5 10/7/1 7/12/3
f 8/10/8 5/16/6 7/4/3
f 3/15/4 5/11/6 2/3/9
f 6/5/2 10/6/1 4/1/10
f 5/16/6 8/10/8 9/2/7 2/3/9
s 2
f 23/18/11 21/19/12 16/20/13
f 16/20/13 19/21/14 22/22/15
f 24/24/16 17/25/17 25/31/18 18/26/19
f 19/21/14 11/32/20 25/31/18
f 14/23/21 12/29/22 20/30/23 17/34/17 15/35/24
f 16/20/13 21/19/12 24/36/16 18/37/19 19/21/14
f 19/21/14 18/37/19 11/32/20
f 14/38/21 23/27/11 16/28/13 22/22/15 12/29/22
f 17/25/17 24/24/16 15/39/24
f 25/31/18 17/25/17 13/33/25
f 19/21/14 25/31/18 13/33/25 20/30/23
f 22/22/15 19/21/14 20/30/23 12/29/22
s 3
f 37/40/26 35/41/27 30/42/28
f 30/42/28 33/43/29 36/44/30
f 38/46/31 31/47/32 32/48/33
f 32/48/33 31/47/32 39/53/34 26/54/35
f 33/43/29 26/54/35 39/53/34
f 27/51/36 34/52/37 39/53/34 31/55/32
f 28/45/38 27/51/36 31/55/32 29/56/39
f 30/42/28 35/41/27 38/57/31 32/58/33
f 33/43/29 30/42/28 32/58/33 26/54/35
f 27/51/36 30/50/28 36/44/30
f 28/59/38 37/49/26 30/50/28 27/51/36
f 31/47/32 38/46/31 29/60/39
f 33/43/29 39/53/34 34/52/37
f 36/44/30 33/43/29 34/52/37 27/51/36
s 4
f 50/61/40 48/62/41 49/63/42
f 46/66/43 47/67/44 44/68/45 43/69/46
f 50/70/40 44/71/45 47/72/44 48/73/41
f 43/74/46 40/75/47 45/76/48 46/77/43
f 46/77/43 45/76/48 41/64/49 42/65/50
f 42/65/50 47/67/44 46/66/43
f 48/73/41 47/72/44 42/65/50 41/64/49
f 49/63/42 48/62/41 41/64/49
f 45/78/48 49/63/42 41/64/49
f 40/79/47 50/61/40 49/63/42 45/78/48
s 5
f 53/87/51 51/86/52 52/81/53
f 52/81/53 54/83/54 53/82/51
f 55/84/55 54/85/54 52/81/53
f 51/88/52 55/80/55 52/81/53
s 6
f 61/93/56 59/94/57 60/95/58
f 58/97/59 56/96/60 57/90/61
f 57/90/61 59/92/57 58/91/59
f 60/95/58 59/94/57 57/90/61
f 61/89/56 60/95/58 57/90/61
f 56/98/60 61/89/56 57/90/61
s 7
f 69/101/62 63/99/63 68/100/64
f 66/103/65 67/104/66 65/105/67
f 63/106/63 65/107/67 67/108/66 68/109/64
f 66/111/65 62/110/68 64/102/69
f 64/102/69 67/104/66 66/103/65
f 68/109/64 67/108/66 64/102/69
f 69/101/62 68/109/64 64/102/69
f 62/112/68 69/101/62 64/102/69
s 8
f 72/120/70 70/119/71 71/114/72
f 71/114/72 73/116/73 72/115/70
f 74/117/74 73/118/73 71/114/72
f 70/121/71 74/113/74 71/114/72
s 2
f 18/26/19 25/31/18 11/32/20
f 20/30/23 13/33/25 17/34/17
