# This file uses centimeters as units for non-parametric coordinates.

mtllib rock_008_LOD2.mtl
g default
v -71.411392 0.000000 177.531906
v -10.960161 0.000000 258.901276
v -29.049883 51.077423 259.089996
v -143.018265 62.711143 309.852936
v 67.172546 71.924049 293.387634
v -35.371086 100.636276 331.464233
v 55.212719 112.862144 -261.774994
v -204.059525 191.014389 -216.210022
v 65.996628 85.937553 -183.587708
v -142.826996 0.000000 -195.773499
v -174.153152 123.512642 -351.645203
v -31.157219 77.673546 -261.148254
v 79.852409 0.000000 -261.586700
v 333.689117 0.000000 -16.865953
v 273.730591 60.846237 -20.929932
v 256.442474 62.810596 68.870972
v 216.267670 88.927834 166.669495
v 226.051239 0.000000 194.079147
v -211.133652 61.206493 -287.156982
v -230.791443 109.099266 -162.254883
v -194.097290 59.455925 229.222214
v -234.439423 160.616562 14.144538
v -201.017502 214.028519 42.498810
v -187.993820 192.153519 259.835815
v 120.927704 95.527771 144.584412
v -172.742447 133.330383 339.816559
v -221.469849 136.798187 260.514832
v -275.620026 138.751572 -170.589569
v -268.033295 152.912491 -319.694733
v -59.402813 134.188385 -323.749115
v 60.276073 105.659317 -328.699921
v -185.798508 190.827927 -331.952637
v -276.757660 193.157059 -194.785431
v 108.725952 84.631241 42.160038
v 164.925354 67.326553 -205.694046
v 184.971634 61.554276 225.328629
v 235.537415 0.000000 -234.204285
vt -0.000624 0.471324
vt 0.074951 0.394430
vt 0.111219 0.426240
vt 0.129326 0.540945
vt 0.185510 0.334239
vt 0.183871 0.457031
vt 0.749243 0.348816
vt 0.730703 0.628172
vt 0.678011 0.338990
vt 0.988357 0.474312
vt 0.855543 0.567025
vt 0.877512 0.409458
vt 0.864674 0.293954
vt 0.489620 -0.011286
vt 0.499993 0.097117
vt 0.397104 0.104045
vt 0.290059 0.149023
vt 0.238490 0.058473
vt 0.774801 0.906718
vt 0.653204 0.986835
vt 0.648229 0.829403
vt 0.260995 0.955042
vt 0.218826 0.790003
vt 0.472513 0.739799
vt 0.457962 0.663476
vt 0.241270 0.626447
vt 0.321937 0.268222
vt 0.081431 0.623009
vt 0.941273 0.580426
vt 0.182185 0.577348
vt 0.159558 0.650439
vt 0.668382 0.762049
vt 0.822973 0.766594
vt 0.815220 0.451745
vt 0.802106 0.350658
vt 0.818948 0.589321
vt 0.718492 0.717276
vt 0.865567 0.660090
vt 0.456161 0.269623
vt 0.716152 0.225334
vt 0.217143 0.177801
vt 0.776236 0.145244
vt 0.160551 0.107538
vt 0.219426 0.708236
vn -0.667163 -0.734537 0.123893
vn 0.084729 -0.501001 0.861289
vn -0.056529 -0.785261 0.616580
vn -0.667163 -0.734537 0.123893
vn -0.056529 -0.785261 0.616580
vn -0.216381 -0.781815 0.584760
vn -0.216381 -0.781815 0.584760
vn 0.336587 0.232452 0.912510
vn 0.354840 0.874599 0.330403
vn 0.298009 0.952886 0.056552
vn 0.298061 0.954143 -0.027775
vn 0.346213 0.937979 -0.018221
vn -0.534748 -0.789145 -0.302150
vn 0.070734 -0.555770 -0.828322
vn -0.029858 -0.664688 -0.746524
vn -0.534748 -0.789145 -0.302150
vn -0.029858 -0.664688 -0.746524
vn -0.155840 -0.562725 -0.811822
vn 0.793670 0.606946 0.041288
vn 0.406711 0.903318 -0.136392
vn 0.596023 0.790182 0.142719
vn 0.596023 0.790182 0.142719
vn 0.377403 0.913121 0.154196
vn 0.747359 0.143513 0.648736
vn -0.655497 -0.712528 -0.250256
vn -0.534748 -0.789145 -0.302150
vn -0.762418 -0.633954 0.129697
vn -0.534748 -0.789145 -0.302150
vn -0.667163 -0.734537 0.123893
vn -0.762418 -0.633954 0.129697
vn -0.667163 -0.734537 0.123893
vn -0.702164 -0.711773 -0.018578
vn -0.930630 -0.360142 0.065007
vn 0.269479 0.962856 0.017026
vn -0.138212 0.960140 0.242960
vn 0.354840 0.874599 0.330403
vn 0.269479 0.962856 0.017026
vn 0.354840 0.874599 0.330403
vn 0.277597 0.953962 0.113564
vn -0.667163 -0.734537 0.123893
vn -0.216381 -0.781815 0.584760
vn -0.702164 -0.711773 -0.018578
vn -0.655497 -0.712528 -0.250256
vn 0.070734 -0.555770 -0.828322
vn -0.534748 -0.789145 -0.302150
vn 0.354840 0.874599 0.330403
vn -0.302001 0.250487 0.919811
vn -0.216381 -0.781815 0.584760
vn -0.969036 -0.074720 0.235341
vn -0.216381 -0.781815 0.584760
vn -0.302001 0.250487 0.919811
vn -0.762418 -0.633954 0.129697
vn -0.930630 -0.360142 0.065007
vn -0.888753 -0.447399 0.099759
vn -0.888753 -0.447399 0.099759
vn -0.885715 -0.200008 -0.418934
vn -0.762418 -0.633954 0.129697
vn 0.268982 0.584578 -0.765452
vn 0.400656 0.264333 -0.877270
vn -0.155840 -0.562725 -0.811822
vn 0.268982 0.584578 -0.765452
vn 0.070734 -0.555770 -0.828322
vn 0.041131 0.913286 -0.405236
vn 0.269479 0.962856 0.017026
vn -0.930630 -0.360142 0.065007
vn -0.138212 0.960140 0.242960
vn -0.888753 -0.447399 0.099759
vn -0.632667 0.774422 -0.001968
vn -0.885715 -0.200008 -0.418934
vn -0.885715 -0.200008 -0.418934
vn 0.041131 0.913286 -0.405236
vn 0.070734 -0.555770 -0.828322
vn -0.138212 0.960140 0.242960
vn -0.969036 -0.074720 0.235341
vn -0.302001 0.250487 0.919811
vn 0.354840 0.874599 0.330403
vn 0.336587 0.232452 0.912510
vn 0.277597 0.953962 0.113564
vn 0.298061 0.954143 -0.027775
vn -0.632667 0.774422 -0.001968
vn 0.269479 0.962856 0.017026
vn 0.596023 0.790182 0.142719
vn 0.406711 0.903318 -0.136392
vn 0.273079 0.958854 -0.077632
vn 0.596023 0.790182 0.142719
vn 0.273079 0.958854 -0.077632
vn 0.377403 0.913121 0.154196
vn 0.268982 0.584578 -0.765452
vn 0.041131 0.913286 -0.405236
vn 0.298061 0.954143 -0.027775
vn 0.268982 0.584578 -0.765452
vn 0.298061 0.954143 -0.027775
vn 0.298009 0.952886 0.056552
vn 0.322132 0.941601 -0.098075
vn 0.400656 0.264333 -0.877270
vn 0.298009 0.952886 0.056552
vn -0.302001 0.250487 0.919811
vn 0.354840 0.874599 0.330403
vn -0.138212 0.960140 0.242960
vn 0.298009 0.952886 0.056552
vn 0.346213 0.937979 -0.018221
vn 0.322132 0.941601 -0.098075
vn 0.336587 0.232452 0.912510
vn 0.434031 -0.247229 0.866311
vn 0.377403 0.913121 0.154196
vn 0.400656 0.264333 -0.877270
vn 0.322132 0.941601 -0.098075
vn 0.646844 0.534826 -0.543648
vn 0.277597 0.953962 0.113564
vn 0.336587 0.232452 0.912510
vn 0.377403 0.913121 0.154196
vn 0.298009 0.952886 0.056552
vn 0.400656 0.264333 -0.877270
vn 0.268982 0.584578 -0.765452
vn 0.273079 0.958854 -0.077632
vn 0.269479 0.962856 0.017026
vn 0.277597 0.953962 0.113564
vn 0.273079 0.958854 -0.077632
vn 0.322132 0.941601 -0.098075
vn 0.346213 0.937979 -0.018221
vn 0.406711 0.903318 -0.136392
vn 0.793670 0.606946 0.041288
vn 0.646844 0.534826 -0.543648
vn 0.406711 0.903318 -0.136392
vn 0.646844 0.534826 -0.543648
vn 0.322132 0.941601 -0.098075
vn -0.930630 -0.360142 0.065007
vn 0.269479 0.962856 0.017026
vn -0.632667 0.774422 -0.001968
vn -0.930630 -0.360142 0.065007
vn -0.632667 0.774422 -0.001968
vn -0.888753 -0.447399 0.099759
vn 0.273079 0.958854 -0.077632
vn 0.406711 0.903318 -0.136392
vn 0.322132 0.941601 -0.098075
vn 0.273079 0.958854 -0.077632
vn 0.277597 0.953962 0.113564
vn 0.377403 0.913121 0.154196
vn 0.747359 0.143513 0.648736
vn 0.793670 0.606946 0.041288
vn 0.596023 0.790182 0.142719
vn 0.041131 0.913286 -0.405236
vn -0.632667 0.774422 -0.001968
vn 0.298061 0.954143 -0.027775
vn 0.041131 0.913286 -0.405236
vn -0.885715 -0.200008 -0.418934
vn -0.632667 0.774422 -0.001968
vn 0.346213 0.937979 -0.018221
vn 0.298061 0.954143 -0.027775
vn 0.269479 0.962856 0.017026
vn 0.346213 0.937979 -0.018221
vn 0.269479 0.962856 0.017026
vn 0.273079 0.958854 -0.077632
vn 0.084729 -0.501001 0.861289
vn 0.747359 0.143513 0.648736
vn 0.434031 -0.247229 0.866311
vn 0.268982 0.584578 -0.765452
vn -0.155840 -0.562725 -0.811822
vn -0.029858 -0.664688 -0.746524
vn -0.029858 -0.664688 -0.746524
vn 0.070734 -0.555770 -0.828322
vn 0.268982 0.584578 -0.765452
vn -0.885715 -0.200008 -0.418934
vn 0.070734 -0.555770 -0.828322
vn -0.655497 -0.712528 -0.250256
vn -0.762418 -0.633954 0.129697
vn -0.885715 -0.200008 -0.418934
vn -0.655497 -0.712528 -0.250256
vn -0.762418 -0.633954 0.129697
vn -0.667163 -0.734537 0.123893
vn -0.930630 -0.360142 0.065007
vn -0.969036 -0.074720 0.235341
vn -0.930630 -0.360142 0.065007
vn -0.702164 -0.711773 -0.018578
vn -0.702164 -0.711773 -0.018578
vn -0.216381 -0.781815 0.584760
vn -0.969036 -0.074720 0.235341
vn -0.056529 -0.785261 0.616580
vn 0.084729 -0.501001 0.861289
vn 0.336587 0.232452 0.912510
vn -0.056529 -0.785261 0.616580
vn 0.336587 0.232452 0.912510
vn -0.216381 -0.781815 0.584760
vn 0.434031 -0.247229 0.866311
vn 0.336587 0.232452 0.912510
vn 0.084729 -0.501001 0.861289
vn 0.646844 0.534826 -0.543648
vn -0.155840 -0.562725 -0.811822
vn 0.400656 0.264333 -0.877270
vn -0.138212 0.960140 0.242960
vn -0.930630 -0.360142 0.065007
vn -0.969036 -0.074720 0.235341
vn 0.747359 0.143513 0.648736
vn 0.377403 0.913121 0.154196
vn 0.434031 -0.247229 0.866311
s off
g rock_008_LOD2 rock_008
usemtl lambert19SG
f 1/1/1 2/2/2 3/3/3
f 1/1/4 3/3/5 4/4/6
f 4/4/7 5/5/8 6/6/9
f 7/7/10 8/8/11 9/9/12
f 10/10/13 11/11/14 12/12/15
f 10/10/16 12/12/17 13/13/18
f 14/14/19 15/15/20 16/16/21
f 16/16/22 17/17/23 18/18/24
f 19/19/25 10/20/26 20/21/27
f 10/20/28 1/22/29 20/21/30
f 1/22/31 21/23/32 22/24/33
f 23/25/34 24/26/35 6/6/36
f 23/25/37 6/6/38 25/27/39
f 1/1/40 4/4/41 21/28/42
f 19/29/43 11/11/44 10/10/45
f 6/6/46 26/30/47 4/4/48
f 27/31/49 4/4/50 26/30/51
f 20/21/52 22/24/53 28/32/54
f 28/32/55 29/33/56 20/21/57
f 30/34/58 31/35/59 13/13/60
f 30/34/61 11/11/62 32/36/63
f 23/25/64 22/24/65 24/26/66
f 28/32/67 33/37/68 29/33/69
f 29/38/70 32/36/71 11/11/72
f 24/26/73 27/31/74 26/30/75
f 6/6/76 5/5/77 25/27/78
f 8/8/79 33/37/80 23/25/81
f 16/16/82 15/15/83 34/39/84
f 16/16/85 34/39/86 17/17/87
f 30/34/88 32/36/89 8/8/90
f 30/34/91 8/8/92 7/7/93
f 35/40/94 31/35/95 7/7/96
f 26/30/97 6/6/98 24/26/99
f 7/7/100 9/9/101 35/40/102
f 5/5/103 36/41/104 17/17/105
f 31/35/106 35/40/107 37/42/108
f 25/27/109 5/5/110 17/17/111
f 7/7/112 31/35/113 30/34/114
f 34/39/115 23/25/116 25/27/117
f 34/39/118 35/40/119 9/9/120
f 15/15/121 14/14/122 37/42/123
f 15/15/124 37/42/125 35/40/126
f 22/24/127 23/25/128 33/37/129
f 22/24/130 33/37/131 28/32/132
f 34/39/133 15/15/134 35/40/135
f 34/39/136 25/27/137 17/17/138
f 18/18/139 14/14/140 16/16/141
f 32/36/142 33/37/143 8/8/144
f 32/36/145 29/38/146 33/37/147
f 9/9/148 8/8/149 23/25/150
f 9/9/151 23/25/152 34/39/153
f 2/2/154 18/43/155 36/41/156
f 30/34/157 13/13/158 12/12/159
f 12/12/160 11/11/161 30/34/162
f 29/38/163 11/11/164 19/29/165
f 20/21/166 29/33/167 19/19/168
f 20/21/169 1/22/170 22/24/171
f 27/44/172 22/24/173 21/23/174
f 21/28/175 4/4/176 27/31/177
f 3/3/178 2/2/179 5/5/180
f 3/3/181 5/5/182 4/4/183
f 36/41/184 5/5/185 2/2/186
f 37/42/187 13/13/188 31/35/189
f 24/26/190 22/24/191 27/44/192
f 18/18/193 17/17/194 36/41/195
