# This file uses centimeters as units for non-parametric coordinates.

mtllib rock_010.mtl
g default
v -73.526108 9.315279 91.468903
v 72.075417 9.552143 102.113426
v -54.433277 168.516052 69.954414
v 52.982594 172.802094 80.598969
v -79.320770 170.213058 -87.389999
v 63.225220 160.791901 -60.225780
v -82.852737 17.955374 -99.040604
v 82.318039 0.000000 -81.740242
v -93.439865 178.890778 -2.043747
v -107.192993 0.000000 -2.486662
v 95.463593 0.000000 -7.050873
v 88.100174 172.802094 -2.043747
v 21.266901 168.516052 100.514221
v -1.848745 184.416977 -30.623327
v -3.620594 176.755951 -99.274391
v -4.405238 0.000000 -120.788841
v -4.405238 -16.712343 -2.486662
v 20.482258 0.000000 122.028671
v -94.754555 91.616554 108.340034
v -96.981941 43.551903 111.860512
v -131.939453 37.165707 -2.524733
v -135.291138 101.367767 -2.404832
v -121.395844 108.873642 -109.227303
v -122.325287 65.192711 -111.474457
v -5.393329 48.872406 -147.881653
v -5.289104 114.602394 -145.023895
v 101.378105 96.345688 -89.660172
v 90.897331 52.382023 -98.363724
v 117.899635 96.524864 -2.389691
v 119.429749 51.409286 3.930298
v 93.337646 102.155357 119.016739
v 96.250214 57.901283 123.130043
v 19.679291 109.628723 147.289078
v 19.525513 44.852028 152.860580
v -60.087234 93.273148 150.588577
v -66.385231 43.977848 152.854980
v 119.269562 90.980774 93.772629
v 123.125549 50.553768 86.562515
v 130.590454 51.362293 41.930141
v 128.313629 87.923088 43.448093
v -90.802971 114.196266 -136.653946
v -64.298920 157.299698 -109.054604
v -32.245514 170.027573 -90.165398
v -57.454926 111.571014 -128.861359
v -73.400566 66.613930 -139.011856
v -130.252197 84.257431 -5.859835
v -91.606438 70.090683 106.493629
v -57.918987 77.795586 147.877121
v 123.922760 39.906261 -85.257050
v 137.527573 38.951099 -35.201050
v 119.414497 3.861104 -42.298630
v 110.637253 3.861104 -67.659409
v 125.967621 69.637512 -72.744278
v 133.176437 69.711960 -45.668678
v 45.628872 173.679382 -21.979027
v -49.751362 181.737137 -22.924721
v -32.787769 195.828369 55.314987
v 11.257460 194.763474 73.095840
v -2.192098 196.643997 -3.204948
v -30.063654 197.273331 1.274401
v 36.960579 191.482101 66.144005
v 57.393303 183.926346 18.059349
v 25.432169 190.811020 1.824638
v -62.770958 188.739532 13.423739
v -25.177275 168.516052 81.764931
v -3.061139 168.516052 79.070313
v -89.168854 142.388199 -133.083878
v -111.203064 145.506683 -104.392509
v -47.221420 134.606888 132.231506
v -80.781746 133.640366 102.199211
v -121.284004 139.850983 -2.402002
v -98.268936 161.648193 -98.003670
v -78.566788 153.943192 -124.617416
v -47.980659 141.764313 -116.344986
v -4.498691 146.599548 -129.926437
v 74.738495 126.519630 -83.885948
v 94.218758 132.098114 -2.393169
v -34.197784 128.645554 122.273338
v -23.991911 131.449463 132.904678
v 21.281271 135.098129 133.366699
v 62.046074 138.598404 104.357796
v 77.999931 172.802094 50.518116
v 84.984421 141.621353 66.232574
v 113.927567 105.352013 70.711632
v 51.869167 136.281311 -95.116562
v 45.032162 105.600197 -104.675980
v 42.652325 50.703831 -109.193062
v 41.350266 0.000000 -82.114456
v -85.639107 180.295731 -49.197292
v -20.048901 182.000641 -66.274315
v -90.840454 136.718430 45.551769
v -103.933357 96.233635 51.098064
v -100.464027 77.008904 46.821072
v -105.447098 40.175911 46.586308
v -79.871239 4.788668 41.007027
v 54.932293 106.051956 121.045471
v 19.592344 73.004089 156.851425
v -62.512993 59.445225 156.401596
v -5.344345 79.764885 -138.000916
v -66.270958 86.715134 -125.935745
v -91.276558 67.402382 -146.272766
v -102.292793 67.162193 -142.691101
v -100.475098 84.269676 -140.907761
v -90.684929 81.302208 -143.004761
v 48.427044 192.223129 39.159798
v 18.663799 200.920059 35.856369
v 3.654449 203.757874 29.963146
v -31.037561 201.737900 20.594572
v -51.348110 196.421371 29.383268
v -75.899086 179.206573 30.332930
v 103.802330 125.599243 68.712799
v 81.884392 122.806190 112.343826
vt 0.110609 0.694978
vt 0.010039 0.562090
vt 0.101567 0.568016
vt 0.394302 0.648377
vt 0.373827 0.587296
vt 0.430256 0.599784
vt 0.440823 0.644806
vt 0.497602 0.032690
vt 0.541980 0.139510
vt 0.326741 0.988398
vt 0.394407 0.223297
vt 0.529794 0.264822
vt 0.456450 0.322832
vt 0.405573 0.307640
vt 0.092268 0.766509
vt 0.400394 0.927444
vt 0.393157 0.840913
vt 0.303805 0.846307
vt 0.310031 0.775117
vt 0.399949 0.775404
vt 0.655155 0.727687
vt 0.658515 0.673736
vt 0.713735 0.676492
vt 0.661208 0.762196
vt 0.479131 0.492739
vt 0.412181 0.491229
vt 0.393169 0.444998
vt 0.490123 0.442540
vt 0.240267 0.632086
vt 0.244631 0.564715
vt 0.320229 0.567366
vt 0.610220 0.775451
vt 0.477715 0.840188
vt 0.477230 0.788787
vt 0.602284 0.748002
vt 0.618901 0.970050
vt 0.561056 0.006412
vt 0.477828 0.923939
vt 0.621064 0.884122
vt 0.694654 0.162340
vt 0.602995 0.336072
vt 0.551822 0.329750
vt 0.566410 0.293500
vt 0.594792 0.292293
vt 0.499130 0.388182
vt 0.655800 0.428963
vt 0.620170 0.482936
vt 0.560329 0.634181
vt 0.598030 0.653435
vt 0.588776 0.719718
vt 0.535314 0.718586
vt 0.383333 0.549818
vt 0.421622 0.539935
vt 0.423486 0.579987
vt 0.561594 0.512719
vt 0.506835 0.541525
vt 0.674157 0.518332
vt 0.696320 0.603135
vt 0.654882 0.609471
vt 0.624716 0.523865
vt 0.781227 0.578464
vt 0.756960 0.495068
vt 0.635670 0.215484
vt 0.119510 0.432231
vt 0.279347 0.488553
vt 0.354780 0.512777
vt 0.180269 0.686016
vt 0.157972 0.686036
vt 0.201872 0.567765
vt 0.306047 0.880879
vt 0.396661 0.871189
vt 0.481029 0.862705
vt 0.617205 0.826159
vt 0.739752 0.588226
vt 0.587444 0.367553
vt 0.556869 0.361456
vt 0.444976 0.363089
vt 0.383920 0.353338
vt 0.200908 0.430313
vt 0.210550 0.497255
vt 0.145465 0.569020
vt 0.245059 0.677062
vt 0.502842 0.329322
vt 0.671380 0.885444
vt 0.601416 0.613241
vt 0.753702 0.676860
vt 0.792375 0.678731
vt 0.631934 0.703704
vt 0.130332 0.687797
vt 0.624899 0.268567
vt 0.728136 0.423755
vt 0.513365 0.607980
vt 0.430362 0.671526
vt 0.357391 0.697821
vt 0.338608 0.646932
vt 0.501893 0.671863
vt 0.466102 0.644006
vt 0.473352 0.608284
vt 0.451046 0.528123
vt 0.469552 0.571239
vt 0.475181 0.727949
vt 0.452050 0.688813
vt 0.428508 0.712785
vt 0.340947 0.612809
vt 0.249045 0.652260
vt 0.726140 0.729062
vt 0.244463 0.449021
vt 0.399336 0.410832
vt 0.404675 0.381500
vt 0.686164 0.892606
vt 0.689436 0.863904
vt 0.672797 0.860146
vt 0.328755 0.401210
vt 0.322772 0.445666
vt 0.795979 0.708386
vt 0.775953 0.713845
vt 0.675238 0.807761
vt 0.600904 0.467052
vt 0.613665 0.410828
vt 0.649488 0.733585
vt 0.268163 0.743451
vt 0.681172 0.740587
vt 0.145404 0.772042
vt 0.300043 0.923093
vt 0.333529 0.361134
vt 0.348148 0.294586
vt 0.645510 0.348346
vt 0.188736 0.770561
vt 0.402588 0.993872
vt 0.010252 0.735698
vt 0.430846 0.033286
vt 0.835978 0.457058
vt 0.810325 0.400325
vt 0.378132 0.152383
vt 0.020146 0.462023
vt 0.852570 0.544605
vt 0.478672 0.984527
vt 0.684999 0.053377
vt 0.887924 0.663509
vn -0.375099 -0.505002 0.777351
vn 0.037237 -0.855061 0.517190
vn 0.203824 -0.362128 0.909571
vn -0.244079 0.791791 0.559904
vn -0.074812 0.856385 0.510890
vn 0.072330 0.997193 -0.019350
vn -0.153381 0.987921 -0.022052
vn -0.492059 -0.831505 0.257832
vn -0.010690 -0.999793 0.017315
vn -0.473340 -0.817663 0.327684
vn 0.506647 -0.744141 0.435389
vn 0.523323 -0.848982 0.073227
vn 0.962971 -0.265969 -0.044122
vn 0.844008 -0.321029 0.429641
vn -0.892850 -0.160245 0.420880
vn -0.911652 -0.239097 0.334250
vn -0.940003 0.044664 0.338231
vn -0.900183 0.098732 0.424174
vn -0.705510 0.594643 0.385559
vn -0.818054 0.455555 0.351080
vn 0.043094 0.709765 -0.703120
vn 0.014038 0.554035 -0.832375
vn 0.096791 0.145728 -0.984578
vn -0.183240 0.386256 -0.904007
vn 0.613481 0.773790 -0.157763
vn 0.677466 0.704449 0.211639
vn 0.791676 0.555433 0.254447
vn 0.883135 0.456532 -0.107944
vn -0.301203 0.719334 0.625967
vn 0.218893 0.556884 0.801228
vn -0.090132 0.733848 0.673308
vn -0.821849 0.440865 -0.360836
vn -0.983512 0.108591 0.144610
vn -0.823390 0.530263 0.202115
vn -0.577467 0.761869 -0.293407
vn -0.347112 -0.739098 -0.577276
vn -0.456655 -0.889630 0.005027
vn -0.941792 -0.289546 0.170856
vn -0.875037 -0.314034 -0.368364
vn -0.005825 -0.882313 -0.470628
vn 0.759991 -0.180229 -0.624445
vn 0.978232 -0.193875 0.073994
vn 0.680413 -0.729334 0.071480
vn 0.523620 -0.721137 -0.453634
vn 0.883170 0.466833 -0.045588
vn 0.604967 0.414046 -0.680133
vn 0.690265 0.495777 -0.527010
vn -0.085519 0.977940 -0.190575
vn -0.087788 0.848578 -0.521736
vn -0.215087 0.908759 -0.357623
vn -0.444297 0.883368 -0.149204
vn 0.338662 0.860243 0.381170
vn 0.410160 0.910692 0.049090
vn 0.227055 0.973488 -0.027690
vn 0.513813 0.748262 -0.419643
vn 0.234589 0.931677 -0.277391
vn 0.451887 0.161158 -0.877397
vn 0.173647 0.142444 -0.974452
vn 0.133831 0.563917 -0.814915
vn 0.511473 0.456460 -0.728038
vn 0.252922 -0.076339 -0.964470
vn 0.452145 -0.102765 -0.886005
vn 0.274281 -0.800027 -0.533598
vn 0.538904 -0.184068 0.822010
vn 0.467033 0.563785 0.681195
vn 0.480168 0.682627 0.550870
vn -0.289185 0.296114 0.910323
vn -0.446006 0.088395 0.890654
vn 0.234259 0.248019 0.940005
vn -0.923978 0.037934 0.380560
vn -0.948181 -0.055338 0.312874
vn -0.975079 -0.114783 0.189855
vn -0.910100 0.116890 -0.397560
vn 0.238412 0.138461 -0.961243
vn 0.832047 0.307678 -0.461554
vn 0.954219 0.296732 -0.037636
vn 0.968457 0.248492 -0.018498
vn 0.863969 0.393560 0.314114
vn 0.569992 0.427011 0.701977
vn 0.326009 0.341238 0.881632
vn 0.260779 0.114321 0.958606
vn -0.003036 0.611519 0.791224
vn 0.980647 -0.179924 0.077196
vn -0.552244 -0.316061 -0.771448
vn 0.054321 0.917216 -0.394670
vn 0.143941 0.158898 -0.976746
vn 0.106326 -0.134922 -0.985135
vn 0.088535 0.825166 -0.557909
vn -0.471581 0.155482 0.868008
vn 0.201725 -0.812581 -0.546827
vn 0.321250 -0.147506 -0.935436
vn 0.101499 0.968550 -0.227174
vn -0.426163 0.898447 0.105725
vn -0.544684 0.683562 0.485862
vn -0.048346 0.726848 0.685095
vn -0.135485 0.959635 -0.246465
vn -0.172818 0.941024 -0.290876
vn 0.106277 0.938291 -0.329113
vn 0.382245 0.913879 -0.136799
vn 0.267559 0.918308 -0.291759
vn -0.495985 0.867140 0.045462
vn -0.397015 0.915178 -0.069484
vn -0.623087 0.709592 0.329001
vn -0.199837 0.656772 0.727128
vn -0.005504 0.720298 0.693643
vn -0.206239 0.187216 -0.960425
vn 0.392074 0.576928 0.716541
vn 0.773749 0.607704 0.178906
vn 0.789560 0.585162 0.184878
vn 0.080358 -0.258477 -0.962669
vn 0.121130 0.174375 -0.977201
vn -0.499299 0.198719 -0.843334
s 1
g rock_010
usemtl lambert18SG
f 36/1/1 18/2/2 34/3/3
f 57/4/4 58/5/5 107/6/6 108/7/7
f 95/8/8 17/9/9 18/134/2 1/131/10
f 2/11/11 11/12/12 39/13/13 38/14/14
f 95/129/8 1/10/10 20/124/15 94/16/16
f 92/17/17 19/18/18 70/19/19 91/20/20
f 73/21/21 74/22/22 44/23/23 67/122/24
f 12/25/25 82/26/26 83/27/27 77/28/28
f 79/29/29 80/30/30 13/31/31
f 68/32/32 22/33/33 71/34/34 72/35/35
f 7/36/36 10/137/37 21/38/38 24/39/39
f 7/138/36 16/40/40 10/37/37
f 49/41/41 50/42/42 51/43/43 52/44/44
f 77/28/28 29/45/45 27/119/46 76/118/47
f 90/48/48 43/49/49 5/50/50 89/51/51
f 58/5/5 61/52/52 105/53/53 106/54/54
f 6/55/55 55/56/56 12/25/25
f 86/57/57 26/58/58 75/59/59 85/60/60
f 16/136/40 25/61/61 87/62/62 88/132/63
f 17/9/9 16/40/40 88/63/63
f 18/134/2 17/9/9 11/12/12 2/11/11
f 32/64/64 34/3/3 18/2/2 2/135/11
f 13/31/31 80/30/30 81/65/65 4/66/66
f 35/67/67 48/68/68 33/69/69
f 47/70/70 19/18/18 92/17/17 93/71/71
f 46/72/72 22/33/33 23/73/73
f 99/74/74 26/58/58 86/57/57 87/62/62
f 49/41/41 53/75/75 54/76/76 50/42/42
f 39/13/13 40/77/77 37/78/78 38/14/14
f 32/64/64 31/79/79 96/80/80 97/81/81
f 19/128/18 35/67/67 69/82/82 70/121/19
f 19/128/18 47/123/70 48/68/68 35/67/67
f 1/130/10 36/1/1 20/15/15
f 38/14/14 37/78/78 31/125/79 32/126/64
f 2/11/11 38/14/14 32/126/64
f 39/13/13 11/12/12 30/83/83
f 30/83/83 29/45/45 40/77/77 39/13/13
f 24/39/39 102/84/84 7/36/36
f 72/35/35 73/120/21 67/24/24 68/32/32
f 43/49/49 90/48/48 15/85/85
f 44/23/23 74/22/22 75/59/59 26/58/58
f 100/86/86 44/23/23 26/58/58 99/74/74
f 7/139/36 45/87/87 25/61/61 16/136/40
f 5/50/50 43/49/49 42/88/88
f 21/38/38 46/72/72 23/73/73 24/39/39
f 20/124/15 47/70/70 93/71/71 94/16/16
f 98/89/89 20/15/15 36/1/1
f 97/81/81 98/89/89 36/1/1 34/3/3
f 30/83/83 11/12/12 51/43/43 50/42/42
f 11/12/12 8/90/90 52/44/44 51/43/43
f 8/90/90 28/127/91 49/41/41 52/44/44
f 28/127/91 27/119/46 53/75/75 49/41/41
f 27/119/46 29/45/45 54/76/76 53/75/75
f 29/45/45 30/83/83 50/42/42 54/76/76
f 15/85/85 14/92/92 55/56/56 6/55/55
f 58/5/5 106/54/54 107/6/6
f 57/4/4 108/7/7 109/93/93
f 3/94/94 65/95/95 57/4/4
f 14/92/92 56/96/96 60/97/97 59/98/98
f 13/31/31 4/66/66 61/52/52 58/5/5
f 82/26/26 12/25/25 62/99/99
f 12/25/25 55/56/56 63/100/100 62/99/99
f 55/56/56 14/92/92 59/98/98 63/100/100
f 56/96/96 9/101/101 64/102/102 60/97/97
f 110/103/103 3/94/94 57/4/4 109/93/93
f 66/104/104 78/105/105 79/29/29 13/31/31
f 57/4/4 66/104/104 58/5/5
f 57/4/4 65/95/95 66/104/104
f 65/95/95 69/82/82 78/105/105 66/104/104
f 67/122/24 44/23/23 41/106/106
f 68/32/32 67/24/24 41/117/106 23/73/73
f 23/73/73 22/33/33 68/32/32
f 70/121/19 69/82/82 65/95/95 3/94/94
f 91/20/20 70/19/19 3/94/94
f 72/35/35 71/34/34 89/51/51 5/50/50
f 5/50/50 42/88/88 73/120/21 72/35/35
f 42/88/88 43/49/49 74/22/22 73/21/21
f 75/59/59 74/22/22 43/49/49 15/85/85
f 85/60/60 75/59/59 15/85/85 6/55/55
f 12/25/25 77/28/28 76/118/47 6/55/55
f 78/105/105 69/82/82 35/67/67
f 79/29/29 78/105/105 35/67/67
f 35/67/67 33/69/69 80/30/30 79/29/29
f 112/107/107 96/80/80 31/79/79
f 29/45/45 111/108/108 84/109/109
f 58/5/5 66/104/104 13/31/31
f 29/45/45 84/109/109 37/78/78 40/77/77
f 4/66/66 82/26/26 105/53/53 61/52/52
f 83/27/27 82/26/26 4/66/66 81/114/65
f 84/109/109 111/108/108 112/113/107 31/125/79
f 37/78/78 84/109/109 31/125/79
f 76/47/47 85/60/60 6/55/55
f 27/46/46 86/57/57 85/60/60 76/47/47
f 87/62/62 86/57/57 27/46/46 28/91/91
f 88/132/63 87/62/62 28/91/91 8/133/90
f 17/9/9 88/63/63 8/90/90 11/12/12
f 89/51/51 71/34/34 9/101/101
f 14/92/92 90/48/48 89/51/51 9/101/101 56/96/96
f 15/85/85 90/48/48 14/92/92
f 71/34/34 91/20/20 3/94/94 110/103/103
f 22/33/33 92/17/17 91/20/20 71/34/34
f 93/71/71 92/17/17 22/33/33 46/72/72
f 94/16/16 93/71/71 46/72/72 21/38/38
f 10/137/37 95/129/8 94/16/16 21/38/38
f 10/37/37 17/9/9 95/8/8
f 81/65/65 80/30/30 33/69/69 96/80/80
f 97/81/81 96/80/80 33/69/69
f 33/69/69 48/68/68 98/89/89 97/81/81
f 48/68/68 47/123/70 20/15/15 98/89/89
f 32/64/64 97/81/81 34/3/3
f 10/37/37 16/40/40 17/9/9
f 25/61/61 99/74/74 87/62/62
f 45/87/87 100/86/86 99/74/74 25/61/61
f 101/115/110 104/116/111 100/86/86 45/87/87
f 24/39/39 23/73/73 103/112/112 102/84/84
f 7/139/36 101/115/110 45/87/87
f 41/117/106 103/112/112 23/73/73
f 104/116/111 41/106/106 44/23/23 100/86/86
f 101/110/110 102/84/84 103/112/112 104/111/111
f 101/110/110 7/36/36 102/84/84
f 103/112/112 41/117/106 104/111/111
f 1/130/10 18/2/2 36/1/1
f 105/53/53 82/26/26 62/99/99
f 106/54/54 105/53/53 62/99/99 63/100/100
f 107/6/6 106/54/54 63/100/100 59/98/98
f 108/7/7 107/6/6 59/98/98 60/97/97
f 109/93/93 108/7/7 60/97/97 64/102/102
f 64/102/102 110/103/103 109/93/93
f 71/34/34 110/103/103 9/101/101
f 9/101/101 110/103/103 64/102/102
f 77/28/28 83/27/27 111/108/108 29/45/45
f 112/113/107 111/108/108 83/27/27 81/114/65
f 81/65/65 96/80/80 112/107/107
