# This file uses centimeters as units for non-parametric coordinates.

mtllib rock_005_LOD2.mtl
g default
v 341.297150 188.460815 -194.363525
v 523.951721 0.000000 -246.759491
v 338.520905 0.000000 -366.171356
v 416.528137 193.090317 -103.231903
v 464.408875 633.429443 -153.886993
v 552.262085 584.387817 -100.955994
v 474.824219 659.149414 269.942261
v 324.972382 437.141479 351.946564
v 477.404114 566.076721 160.847610
v 274.957428 890.042297 54.587917
v 272.062103 793.070251 271.493347
v 458.181641 895.446777 103.587891
v 336.120544 771.131348 -146.894669
v 496.285889 822.209534 -139.314621
v 570.364075 759.444580 -29.941147
v 565.070435 745.885376 41.792057
v 554.536621 749.751831 132.033173
v 107.571335 329.572662 277.774994
v 206.714478 668.249756 247.648300
v 58.957756 349.589020 179.987701
v -320.202881 0.000000 -288.934113
v -317.393555 326.217682 -64.157524
v -214.830627 556.723816 -89.206932
v 327.568756 309.726654 -107.978516
v 478.891907 189.299835 -7.672432
v 625.315613 0.000000 141.764252
v 442.488708 197.223984 57.293449
v 565.528931 317.449951 54.445221
v 379.793427 186.325119 169.489716
v 4.418443 0.000000 302.613831
v 164.011566 0.000000 511.653229
v 176.087982 676.227417 -262.895569
v 217.218048 618.065979 -276.138733
v 72.728073 228.769501 -340.768799
v 145.422195 352.763794 -439.249603
v 164.370239 340.773621 383.447296
v 236.487213 557.756348 380.710022
v 141.979263 169.014923 -483.097076
v 195.742828 0.000000 -467.890717
v 49.632927 0.000000 -421.925995
v 228.993683 618.974304 -132.386337
v 62.630138 659.494690 -134.116272
v 114.144249 729.382507 -24.452156
v -49.482094 340.706512 -360.833435
v -56.307770 157.578445 -389.189392
v -199.365616 0.000000 -340.628906
v -78.749687 486.067932 -88.182747
v -162.993393 239.550461 -232.538071
v -184.079498 178.923843 -127.089577
v -76.937347 549.386475 -190.095718
v -183.466385 215.745041 177.915115
v -182.541656 515.023254 160.038925
v -269.055542 503.802032 276.818054
v -432.381195 404.846527 319.551453
v -326.039429 663.042908 209.084000
v -297.499084 669.763245 34.266888
v -427.853546 476.011108 92.423027
v -285.444489 552.370605 -43.219410
v -367.196045 266.785400 -105.907097
v -366.233856 0.000000 -131.013794
v -457.181702 0.000000 -227.145187
v -435.474915 356.838928 -132.073685
v -76.628143 358.001953 217.208008
v -102.820732 558.897705 132.742813
v 314.061005 294.295715 -348.003937
v 387.471649 507.761414 -240.505188
v -75.955353 316.767334 323.453735
v -187.075165 0.000000 270.418365
v 544.022888 284.390961 172.409332
v 229.744461 307.915039 -368.998383
v 371.282166 0.000000 463.086029
v 540.131714 0.000000 302.830688
v -111.022728 0.000000 362.896149
v -211.896118 0.000000 393.144867
v -386.305603 0.000000 458.378784
v -486.416565 0.000000 248.350433
v -512.672546 278.820099 296.517242
v -528.955078 382.567566 26.725758
v -618.150940 0.000000 24.664644
v -506.634125 236.785416 176.518143
v -13.479412 207.421082 -354.639557
v 512.079956 0.000000 27.395903
v -593.721008 0.000000 -208.985794
v -657.907288 219.963715 16.792446
vt 0.915472 0.625396
vt 0.989454 0.604682
vt 0.948639 0.678528
vt 0.897219 0.569243
vt 0.776629 0.586494
vt 0.775344 0.545212
vt 0.656543 0.364968
vt 0.629945 0.263227
vt 0.689415 0.346234
vt 0.595568 0.495147
vt 0.587095 0.417484
vt 0.644930 0.475689
vt 0.593894 0.570808
vt 0.661845 0.579081
vt 0.709657 0.543766
vt 0.715946 0.503483
vt 0.681188 0.409562
vt 0.491552 0.257498
vt 0.553653 0.385736
vt 0.448214 0.292070
vt 0.211726 0.755972
vt 0.260256 0.621781
vt 0.345230 0.562050
vt 0.861771 0.603674
vt 0.908888 0.516687
vt 0.983480 0.406059
vt 0.906092 0.485335
vt 0.848737 0.457227
vt 0.748049 0.213072
vt 0.463088 0.145676
vt 0.531517 0.147752
vt 0.546666 0.643967
vt 0.580721 0.695665
vt 0.472261 0.831497
vt 0.532785 0.814018
vt 0.640427 0.442823
vt 0.570256 0.195152
vt 0.586756 0.300653
vt 0.513216 0.893886
vt 0.525078 0.971140
vt 0.439072 0.950982
vt 0.523573 0.204643
vt 0.545464 0.593444
vt 0.502319 0.600604
vt 0.520126 0.526393
vt 0.442080 0.767242
vt 0.408694 0.858621
vt 0.310853 0.888136
vt 0.407862 0.596362
vt 0.553652 0.621077
vt 0.366686 0.760196
vt 0.321401 0.727204
vt 0.452516 0.655868
vt 0.413951 0.620755
vt 0.320577 0.234268
vt 0.347749 0.418400
vt 0.283745 0.386225
vt 0.217367 0.383143
vt 0.283274 0.446854
vt 0.294189 0.486718
vt 0.221109 0.481845
vt 0.302984 0.538970
vt 0.198764 0.675536
vt 0.176884 0.651035
vt 0.104522 0.735488
vt 0.052873 0.688986
vt 0.168523 0.588986
vt 0.321586 0.249045
vt 0.389011 0.302513
vt 0.405391 0.432648
vt 0.609485 0.843601
vt 0.655769 0.723995
vt 0.680746 0.896082
vt 0.390912 0.259037
vt 0.333085 0.156464
vt 0.864773 0.315243
vt 0.860451 0.401745
vt 0.759468 0.409730
vt 0.706137 0.455879
vt 0.696423 0.662539
vt 0.722401 0.829389
vt 0.573372 0.833967
vt 0.700685 0.059948
vt 0.757416 0.090756
vt 0.607603 0.022809
vt 0.436322 0.162617
vt 0.380331 0.145120
vt 0.204683 0.163184
vt 0.273218 0.160483
vt 0.131312 0.214045
vt 0.055691 0.320885
vt 0.165099 0.366556
vt 0.162510 0.501968
vt 0.013810 0.468225
vt 0.136323 0.413843
vt 0.315594 0.728596
vt 0.242780 0.786675
vt 0.427856 0.829254
vt 0.608502 0.986507
vt 0.982365 0.485094
vt 0.964757 0.310419
vt 0.016876 0.615948
vt 0.089249 0.504381
vt 0.621429 0.636703
vt 0.572334 0.665189
vt 0.188981 0.696869
vn 0.897364 0.271782 -0.347666
vn 0.734230 0.551239 -0.396285
vn 0.670034 0.307131 -0.675815
vn 0.561156 0.128881 -0.817615
vn 0.583449 -0.151473 -0.797899
vn 0.948046 -0.174428 -0.266051
vn 0.582356 0.136149 0.801452
vn 0.641007 0.088621 0.762402
vn 0.633934 -0.181786 0.751719
vn -0.375234 0.914340 -0.152259
vn -0.189527 0.596764 0.779713
vn 0.398208 0.882480 0.250320
vn -0.257856 0.599071 -0.758040
vn -0.375234 0.914340 -0.152259
vn 0.299473 0.682083 -0.667142
vn 0.948046 -0.174428 -0.266051
vn 0.583449 -0.151473 -0.797899
vn 0.880012 0.326874 -0.344576
vn 0.980487 -0.027395 -0.194665
vn 0.948046 -0.174428 -0.266051
vn 0.880012 0.326874 -0.344576
vn 0.582356 0.136149 0.801452
vn 0.633934 -0.181786 0.751719
vn 0.793525 0.239238 0.559539
vn -0.822338 0.269071 0.501360
vn -0.616099 0.419739 0.666514
vn -0.176931 0.260508 0.949121
vn -0.394609 0.452618 -0.799638
vn -0.745099 0.273569 -0.608266
vn -0.228545 0.649635 -0.725080
vn 0.807059 -0.171908 -0.564893
vn 0.583449 -0.151473 -0.797899
vn 0.561156 0.128881 -0.817615
vn 0.988735 0.122273 -0.086328
vn 0.561156 0.128881 -0.817615
vn 0.948046 -0.174428 -0.266051
vn 0.936083 0.173185 -0.306194
vn 0.866511 -0.096126 -0.489815
vn 0.875375 -0.024274 -0.482834
vn 0.980487 -0.027395 -0.194665
vn 0.875375 -0.024274 -0.482834
vn 0.866511 -0.096126 -0.489815
vn 0.697341 0.252515 0.670784
vn 0.633934 -0.181786 0.751719
vn 0.641007 0.088621 0.762402
vn -0.822338 0.269071 0.501360
vn -0.218342 0.294223 0.930462
vn -0.514042 0.333793 0.790154
vn -0.119658 0.569032 -0.813563
vn 0.032609 0.505159 -0.862410
vn -0.374547 0.279749 -0.883999
vn 0.032609 0.505159 -0.862410
vn -0.368720 0.439319 -0.819173
vn -0.374547 0.279749 -0.883999
vn 0.582356 0.136149 0.801452
vn 0.793525 0.239238 0.559539
vn -0.189527 0.596764 0.779713
vn -0.189527 0.596764 0.779713
vn 0.793525 0.239238 0.559539
vn 0.398208 0.882480 0.250320
vn 0.582356 0.136149 0.801452
vn -0.189527 0.596764 0.779713
vn 0.641007 0.088621 0.762402
vn -0.616099 0.419739 0.666514
vn 0.641007 0.088621 0.762402
vn -0.189527 0.596764 0.779713
vn -0.318876 0.298696 0.899499
vn 0.641007 0.088621 0.762402
vn -0.052550 0.388315 0.920027
vn -0.239016 0.168198 -0.956337
vn 0.443782 0.108413 -0.889553
vn -0.363534 0.113006 -0.924701
vn -0.616099 0.419739 0.666514
vn -0.052550 0.388315 0.920027
vn 0.641007 0.088621 0.762402
vn -0.822338 0.269071 0.501360
vn -0.318876 0.298696 0.899499
vn -0.616099 0.419739 0.666514
vn -0.616099 0.419739 0.666514
vn -0.318876 0.298696 0.899499
vn -0.052550 0.388315 0.920027
vn -0.265198 0.867171 -0.421526
vn -0.401236 0.912174 -0.083355
vn -0.587732 0.800495 -0.117385
vn -0.379332 0.288794 -0.879037
vn -0.119658 0.569032 -0.813563
vn -0.374547 0.279749 -0.883999
vn -0.210517 0.246825 -0.945917
vn -0.363534 0.113006 -0.924701
vn -0.585060 0.411169 -0.699031
vn -0.533404 0.480166 -0.696362
vn -0.228545 0.649635 -0.725080
vn -0.587732 0.800495 -0.117385
vn -0.119658 0.569032 -0.813563
vn -0.265198 0.867171 -0.421526
vn 0.032609 0.505159 -0.862410
vn -0.119658 0.569032 -0.813563
vn -0.401236 0.912174 -0.083355
vn -0.265198 0.867171 -0.421526
vn -0.841492 0.258067 -0.474651
vn -0.325889 0.452847 -0.829895
vn -0.786844 0.509806 -0.347814
vn -0.325889 0.452847 -0.829895
vn -0.533404 0.480166 -0.696362
vn -0.786844 0.509806 -0.347814
vn -0.533404 0.480166 -0.696362
vn -0.401236 0.912174 -0.083355
vn -0.786844 0.509806 -0.347814
vn 0.462021 0.312872 0.829848
vn 0.684436 0.587882 0.431210
vn 0.535183 0.285512 0.795023
vn -0.611526 0.444129 0.654817
vn 0.535183 0.285512 0.795023
vn -0.347290 0.817874 0.458772
vn -0.033340 0.913278 -0.405971
vn -0.347290 0.817874 0.458772
vn 0.684436 0.587882 0.431210
vn 0.535183 0.285512 0.795023
vn 0.684436 0.587882 0.431210
vn -0.347290 0.817874 0.458772
vn -0.844560 0.528864 -0.083789
vn -0.033340 0.913278 -0.405971
vn -0.136108 0.623867 -0.769588
vn -0.745099 0.273569 -0.608266
vn 0.592919 0.092730 -0.799906
vn -0.136108 0.623867 -0.769588
vn -0.136108 0.623867 -0.769588
vn -0.033340 0.913278 -0.405971
vn 0.684436 0.587882 0.431210
vn -0.844560 0.528864 -0.083789
vn -0.347290 0.817874 0.458772
vn -0.033340 0.913278 -0.405971
vn 0.592919 0.092730 -0.799906
vn -0.295858 0.260973 -0.918891
vn 0.342006 0.203502 -0.917398
vn -0.136108 0.623867 -0.769588
vn -0.407243 0.514681 -0.754491
vn -0.844560 0.528864 -0.083789
vn -0.136108 0.623867 -0.769588
vn 0.592919 0.092730 -0.799906
vn -0.407243 0.514681 -0.754491
vn -0.401236 0.912174 -0.083355
vn -0.533404 0.480166 -0.696362
vn -0.587732 0.800495 -0.117385
vn 0.462021 0.312872 0.829848
vn -0.318205 0.564553 0.761594
vn -0.394037 0.592694 0.702459
vn -0.228545 0.649635 -0.725080
vn -0.745099 0.273569 -0.608266
vn -0.136108 0.623867 -0.769588
vn -0.136108 0.623867 -0.769588
vn 0.684436 0.587882 0.431210
vn -0.228545 0.649635 -0.725080
vn -0.394037 0.592694 0.702459
vn -0.228545 0.649635 -0.725080
vn 0.684436 0.587882 0.431210
vn 0.684436 0.587882 0.431210
vn 0.462021 0.312872 0.829848
vn -0.394037 0.592694 0.702459
vn -0.176931 0.260508 0.949121
vn -0.394037 0.592694 0.702459
vn -0.318205 0.564553 0.761594
vn -0.616099 0.419739 0.666514
vn -0.394037 0.592694 0.702459
vn -0.176931 0.260508 0.949121
vn -0.616099 0.419739 0.666514
vn -0.587732 0.800495 -0.117385
vn -0.394037 0.592694 0.702459
vn 0.855678 0.045433 -0.515510
vn 0.689387 0.114450 -0.715295
vn 0.897364 0.271782 -0.347666
vn -0.379332 0.288794 -0.879037
vn -0.786844 0.509806 -0.347814
vn -0.119658 0.569032 -0.813563
vn -0.786844 0.509806 -0.347814
vn -0.401236 0.912174 -0.083355
vn -0.119658 0.569032 -0.813563
vn -0.841492 0.258067 -0.474651
vn -0.786844 0.509806 -0.347814
vn -0.379332 0.288794 -0.879037
vn -0.318205 0.564553 0.761594
vn -0.117627 0.360663 0.925249
vn -0.176931 0.260508 0.949121
vn -0.318205 0.564553 0.761594
vn 0.462021 0.312872 0.829848
vn -0.117627 0.360663 0.925249
vn 0.462021 0.312872 0.829848
vn -0.623540 0.267362 0.734653
vn -0.117627 0.360663 0.925249
vn 0.697341 0.252515 0.670784
vn 0.557779 0.209173 0.803199
vn 0.633934 -0.181786 0.751719
vn 0.633934 -0.181786 0.751719
vn 0.557779 0.209173 0.803199
vn 0.793525 0.239238 0.559539
vn 0.398208 0.882480 0.250320
vn 0.793525 0.239238 0.559539
vn 0.980487 -0.027395 -0.194665
vn 0.793525 0.239238 0.559539
vn 0.875375 -0.024274 -0.482834
vn 0.980487 -0.027395 -0.194665
vn 0.557779 0.209173 0.803199
vn 0.875375 -0.024274 -0.482834
vn 0.793525 0.239238 0.559539
vn 0.880012 0.326874 -0.344576
vn 0.583449 -0.151473 -0.797899
vn 0.299473 0.682083 -0.667142
vn 0.583449 -0.151473 -0.797899
vn 0.689387 0.114450 -0.715295
vn 0.299473 0.682083 -0.667142
vn 0.689387 0.114450 -0.715295
vn 0.807059 -0.171908 -0.564893
vn 0.897364 0.271782 -0.347666
vn 0.583449 -0.151473 -0.797899
vn 0.807059 -0.171908 -0.564893
vn 0.689387 0.114450 -0.715295
vn 0.032609 0.505159 -0.862410
vn 0.518691 0.220339 -0.826081
vn -0.368720 0.439319 -0.819173
vn 0.518691 0.220339 -0.826081
vn -0.239016 0.168198 -0.956337
vn -0.368720 0.439319 -0.819173
vn -0.374547 0.279749 -0.883999
vn -0.368720 0.439319 -0.819173
vn -0.239016 0.168198 -0.956337
vn 0.641007 0.088621 0.762402
vn 0.580796 0.419878 0.697408
vn 0.697341 0.252515 0.670784
vn 0.427519 0.579084 0.694183
vn 0.697341 0.252515 0.670784
vn 0.580796 0.419878 0.697408
vn -0.514042 0.333793 0.790154
vn 0.580796 0.419878 0.697408
vn -0.318876 0.298696 0.899499
vn 0.580796 0.419878 0.697408
vn 0.641007 0.088621 0.762402
vn -0.318876 0.298696 0.899499
vn -0.822338 0.269071 0.501360
vn -0.514042 0.333793 0.790154
vn -0.318876 0.298696 0.899499
vn -0.218342 0.294223 0.930462
vn -0.822338 0.269071 0.501360
vn -0.176931 0.260508 0.949121
vn -0.176931 0.260508 0.949121
vn -0.117627 0.360663 0.925249
vn -0.218342 0.294223 0.930462
vn -0.158338 0.141008 0.977265
vn -0.218342 0.294223 0.930462
vn -0.117627 0.360663 0.925249
vn -0.117627 0.360663 0.925249
vn -0.623540 0.267362 0.734653
vn -0.158338 0.141008 0.977265
vn 0.535183 0.285512 0.795023
vn 0.746053 0.219625 0.628625
vn 0.462021 0.312872 0.829848
vn 0.746053 0.219625 0.628625
vn -0.623540 0.267362 0.734653
vn 0.462021 0.312872 0.829848
vn -0.207624 0.207795 0.955884
vn 0.746053 0.219625 0.628625
vn 0.535183 0.285512 0.795023
vn -0.923782 -0.054043 0.379085
vn -0.207624 0.207795 0.955884
vn -0.904361 0.046404 0.424239
vn -0.827985 0.481672 0.287111
vn -0.893613 0.051735 0.445846
vn -0.930529 0.232011 0.283350
vn -0.893613 0.051735 0.445846
vn -0.923782 -0.054043 0.379085
vn -0.930529 0.232011 0.283350
vn -0.295858 0.260973 -0.918891
vn 0.592919 0.092730 -0.799906
vn -0.745099 0.273569 -0.608266
vn -0.325889 0.452847 -0.829895
vn -0.585060 0.411169 -0.699031
vn -0.394609 0.452618 -0.799638
vn -0.585060 0.411169 -0.699031
vn -0.325889 0.452847 -0.829895
vn -0.841492 0.258067 -0.474651
vn -0.841492 0.258067 -0.474651
vn -0.537968 0.272814 -0.797598
vn -0.585060 0.411169 -0.699031
vn -0.537968 0.272814 -0.797598
vn -0.210517 0.246825 -0.945917
vn -0.585060 0.411169 -0.699031
vn -0.363534 0.113006 -0.924701
vn -0.210517 0.246825 -0.945917
vn -0.374547 0.279749 -0.883999
vn -0.374547 0.279749 -0.883999
vn -0.210517 0.246825 -0.945917
vn -0.537968 0.272814 -0.797598
vn -0.239016 0.168198 -0.956337
vn -0.363534 0.113006 -0.924701
vn -0.374547 0.279749 -0.883999
vn 0.518691 0.220339 -0.826081
vn 0.443782 0.108413 -0.889553
vn -0.239016 0.168198 -0.956337
vn 0.443782 0.108413 -0.889553
vn 0.518691 0.220339 -0.826081
vn 0.670034 0.307131 -0.675815
vn 0.670034 0.307131 -0.675815
vn 0.518691 0.220339 -0.826081
vn 0.855678 0.045433 -0.515510
vn 0.897364 0.271782 -0.347666
vn 0.670034 0.307131 -0.675815
vn 0.855678 0.045433 -0.515510
vn 0.807059 -0.171908 -0.564893
vn 0.561156 0.128881 -0.817615
vn 0.897364 0.271782 -0.347666
vn 0.734230 0.551239 -0.396285
vn 0.897364 0.271782 -0.347666
vn 0.561156 0.128881 -0.817615
vn 0.734230 0.551239 -0.396285
vn 0.561156 0.128881 -0.817615
vn 0.988735 0.122273 -0.086328
vn 0.949203 0.272741 -0.156928
vn 0.866511 -0.096126 -0.489815
vn 0.936083 0.173185 -0.306194
vn 0.734230 0.551239 -0.396285
vn 0.988735 0.122273 -0.086328
vn 0.949203 0.272741 -0.156928
vn 0.866511 -0.096126 -0.489815
vn 0.949203 0.272741 -0.156928
vn 0.988735 0.122273 -0.086328
vn 0.980487 -0.027395 -0.194665
vn 0.866511 -0.096126 -0.489815
vn 0.948046 -0.174428 -0.266051
vn 0.866511 -0.096126 -0.489815
vn 0.988735 0.122273 -0.086328
vn 0.948046 -0.174428 -0.266051
vn 0.398208 0.882480 0.250320
vn 0.980487 -0.027395 -0.194665
vn 0.880012 0.326874 -0.344576
vn -0.375234 0.914340 -0.152259
vn 0.398208 0.882480 0.250320
vn 0.299473 0.682083 -0.667142
vn -0.228545 0.649635 -0.725080
vn -0.394037 0.592694 0.702459
vn -0.587732 0.800495 -0.117385
vn 0.518691 0.220339 -0.826081
vn 0.689387 0.114450 -0.715295
vn 0.855678 0.045433 -0.515510
vn 0.936083 0.173185 -0.306194
vn 0.557779 0.209173 0.803199
vn 0.427519 0.579084 0.694183
vn 0.427519 0.579084 0.694183
vn 0.557779 0.209173 0.803199
vn 0.697341 0.252515 0.670784
vn 0.875375 -0.024274 -0.482834
vn 0.557779 0.209173 0.803199
vn 0.936083 0.173185 -0.306194
vn 0.535183 0.285512 0.795023
vn -0.611526 0.444129 0.654817
vn -0.207624 0.207795 0.955884
vn -0.904361 0.046404 0.424239
vn -0.207624 0.207795 0.955884
vn -0.611526 0.444129 0.654817
vn -0.844560 0.528864 -0.083789
vn -0.611526 0.444129 0.654817
vn -0.347290 0.817874 0.458772
vn -0.611526 0.444129 0.654817
vn -0.930529 0.232011 0.283350
vn -0.904361 0.046404 0.424239
vn -0.923782 -0.054043 0.379085
vn -0.904361 0.046404 0.424239
vn -0.930529 0.232011 0.283350
vn 0.592919 0.092730 -0.799906
vn 0.342006 0.203502 -0.917398
vn -0.407243 0.514681 -0.754491
vn -0.407243 0.514681 -0.754491
vn 0.342006 0.203502 -0.917398
vn -0.708313 0.266034 -0.653849
vn -0.895833 0.336863 -0.289839
vn -0.827985 0.481672 0.287111
vn -0.407243 0.514681 -0.754491
vn -0.893613 0.051735 0.445846
vn -0.827985 0.481672 0.287111
vn -0.895833 0.336863 -0.289839
vn -0.893613 0.051735 0.445846
vn -0.895833 0.336863 -0.289839
vn -0.708313 0.266034 -0.653849
vn -0.895833 0.336863 -0.289839
vn -0.407243 0.514681 -0.754491
vn -0.708313 0.266034 -0.653849
vn -0.827985 0.481672 0.287111
vn -0.844560 0.528864 -0.083789
vn -0.407243 0.514681 -0.754491
vn 0.689387 0.114450 -0.715295
vn 0.518691 0.220339 -0.826081
vn 0.032609 0.505159 -0.862410
vn -0.930529 0.232011 0.283350
vn -0.611526 0.444129 0.654817
vn -0.844560 0.528864 -0.083789
vn -0.827985 0.481672 0.287111
vn -0.930529 0.232011 0.283350
vn -0.844560 0.528864 -0.083789
vn -0.228545 0.649635 -0.725080
vn -0.325889 0.452847 -0.829895
vn -0.394609 0.452618 -0.799638
vn -0.265198 0.867171 -0.421526
vn -0.587732 0.800495 -0.117385
vn -0.257856 0.599071 -0.758040
vn -0.587732 0.800495 -0.117385
vn -0.375234 0.914340 -0.152259
vn -0.257856 0.599071 -0.758040
vn -0.616099 0.419739 0.666514
vn -0.189527 0.596764 0.779713
vn -0.587732 0.800495 -0.117385
vn -0.189527 0.596764 0.779713
vn -0.375234 0.914340 -0.152259
vn -0.587732 0.800495 -0.117385
vn 0.299473 0.682083 -0.667142
vn 0.689387 0.114450 -0.715295
vn -0.257856 0.599071 -0.758040
vn 0.398208 0.882480 0.250320
vn 0.880012 0.326874 -0.344576
vn 0.299473 0.682083 -0.667142
vn -0.257856 0.599071 -0.758040
vn 0.689387 0.114450 -0.715295
vn 0.032609 0.505159 -0.862410
vn -0.265198 0.867171 -0.421526
vn -0.257856 0.599071 -0.758040
vn 0.032609 0.505159 -0.862410
vn -0.537968 0.272814 -0.797598
vn -0.841492 0.258067 -0.474651
vn -0.379332 0.288794 -0.879037
vn -0.295858 0.260973 -0.918891
vn -0.745099 0.273569 -0.608266
vn -0.394609 0.452618 -0.799638
vn -0.374547 0.279749 -0.883999
vn -0.537968 0.272814 -0.797598
vn -0.379332 0.288794 -0.879037
vn -0.533404 0.480166 -0.696362
vn -0.325889 0.452847 -0.829895
vn -0.228545 0.649635 -0.725080
s off
g rock_005_LOD2 rock_005
usemtl lambert13SG
f 1/1/1 2/2/2 3/3/3
f 4/4/4 5/5/5 6/6/6
f 7/7/7 8/8/8 9/9/9
f 10/10/10 11/11/11 12/12/12
f 13/13/13 10/10/14 14/14/15
f 6/6/16 5/5/17 15/15/18
f 16/16/19 6/6/20 15/15/21
f 7/7/22 9/9/23 17/17/24
f 18/18/25 19/19/26 20/20/27
f 21/21/28 22/22/29 23/23/30
f 24/24/31 5/5/32 4/4/33
f 25/25/34 4/4/35 6/6/36
f 26/26/37 27/27/38 28/28/39
f 16/16/40 28/28/41 27/27/42
f 29/29/43 9/9/44 8/8/45
f 18/18/46 30/30/47 31/31/48
f 32/32/49 33/33/50 34/34/51
f 33/33/52 35/35/53 34/34/54
f 7/7/55 17/17/56 11/11/57
f 11/11/58 17/17/59 12/36/60
f 7/7/61 11/11/62 8/8/63
f 19/19/64 8/8/65 11/11/66
f 36/37/67 8/8/68 37/38/69
f 38/39/70 39/40/71 40/41/72
f 19/19/73 37/38/74 8/8/75
f 18/42/76 36/37/77 19/19/78
f 19/19/79 36/37/80 37/38/81
f 41/43/82 42/44/83 43/45/84
f 44/46/85 32/32/86 34/34/87
f 45/47/88 40/41/89 46/48/90
f 47/49/91 23/23/92 43/45/93
f 32/32/94 41/43/95 33/50/96
f 32/32/97 42/44/98 41/43/99
f 48/51/100 49/52/101 50/53/102
f 49/52/103 47/54/104 50/53/105
f 47/54/106 42/44/107 50/53/108
f 51/55/109 52/56/110 53/57/111
f 54/58/112 53/57/113 55/59/114
f 56/60/115 55/59/116 52/56/117
f 53/57/118 52/56/119 55/59/120
f 57/61/121 56/60/122 58/62/123
f 22/63/124 59/64/125 58/62/126
f 58/62/127 56/60/128 52/56/129
f 57/61/130 55/59/131 56/60/132
f 59/64/133 60/65/134 61/66/135
f 58/62/136 62/67/137 57/61/138
f 58/62/139 59/64/140 62/67/141
f 42/44/142 47/54/143 43/45/144
f 51/68/145 63/69/146 64/70/147
f 23/23/148 22/22/149 58/62/150
f 58/62/151 52/56/152 23/23/153
f 64/70/154 23/23/155 52/56/156
f 52/56/157 51/68/158 64/70/159
f 20/20/160 64/70/161 63/69/162
f 19/19/163 64/70/164 20/20/165
f 19/19/166 43/45/167 64/70/168
f 65/71/169 66/72/170 1/73/171
f 44/46/172 50/53/173 32/32/174
f 50/53/175 42/44/176 32/32/177
f 48/51/178 50/53/179 44/46/180
f 63/69/181 67/74/182 20/20/183
f 63/69/184 51/68/185 67/74/186
f 51/68/187 68/75/188 67/74/189
f 29/76/190 69/77/191 9/78/192
f 9/78/193 69/77/194 17/79/195
f 12/12/196 17/79/197 16/16/198
f 17/79/199 28/28/200 16/16/201
f 69/77/202 28/28/203 17/79/204
f 15/15/205 5/80/206 14/14/207
f 5/80/208 66/72/209 14/14/210
f 66/72/211 24/81/212 1/73/213
f 5/80/214 24/81/215 66/72/216
f 33/33/217 70/82/218 35/35/219
f 70/82/220 38/39/221 35/35/222
f 34/34/223 35/35/224 38/39/225
f 8/8/226 71/83/227 29/29/228
f 72/84/229 29/29/230 71/83/231
f 31/85/232 71/83/233 36/37/234
f 71/83/235 8/8/236 36/37/237
f 18/42/238 31/85/239 36/37/240
f 30/30/241 18/18/242 20/20/243
f 20/20/244 67/74/245 30/86/246
f 73/87/247 30/86/248 67/74/249
f 67/74/250 68/75/251 73/87/252
f 53/57/253 74/88/254 51/55/255
f 74/88/256 68/89/257 51/55/258
f 75/90/259 74/88/260 53/57/261
f 76/91/262 75/90/263 77/92/264
f 78/93/265 79/94/266 80/95/267
f 79/94/268 76/91/269 80/95/270
f 60/65/271 59/64/272 22/63/273
f 49/96/274 46/97/275 21/21/276
f 46/48/277 49/52/278 48/51/279
f 48/51/280 81/98/281 46/48/282
f 81/98/283 45/47/284 46/48/285
f 40/41/286 45/47/287 34/34/288
f 34/34/289 45/47/290 81/98/291
f 38/39/292 40/41/293 34/34/294
f 70/82/295 39/40/296 38/39/297
f 39/40/298 70/82/299 3/99/300
f 3/99/301 70/82/302 65/71/303
f 1/73/304 3/99/305 65/71/306
f 24/24/307 4/4/308 1/1/309
f 2/2/310 1/1/311 4/4/312
f 2/2/313 4/4/314 25/25/315
f 82/100/316 27/27/317 26/26/318
f 2/2/319 25/25/320 82/100/321
f 27/27/322 82/100/323 25/25/324
f 16/16/325 27/27/326 6/6/327
f 27/27/328 25/25/329 6/6/330
f 12/12/331 16/16/332 15/15/333
f 10/10/334 12/12/335 14/14/336
f 23/23/337 64/70/338 43/45/339
f 70/82/340 66/72/341 65/71/342
f 26/26/343 69/77/344 72/101/345
f 72/101/346 69/77/347 29/76/348
f 28/28/349 69/77/350 26/26/351
f 53/57/352 54/58/353 75/90/354
f 77/92/355 75/90/356 54/58/357
f 57/61/358 54/58/359 55/59/360
f 54/58/361 80/95/362 77/92/363
f 76/91/364 77/92/365 80/95/366
f 59/64/367 61/66/368 62/67/369
f 62/67/370 61/66/371 83/102/372
f 84/103/373 78/93/374 62/67/375
f 79/94/376 78/93/377 84/103/378
f 79/94/379 84/103/380 83/102/381
f 84/103/382 62/67/383 83/102/384
f 78/93/385 57/61/386 62/67/387
f 66/72/388 70/82/389 33/33/390
f 80/95/391 54/58/392 57/61/393
f 78/93/394 80/95/395 57/61/396
f 23/23/397 49/96/398 21/21/399
f 41/43/400 43/45/401 13/13/402
f 43/45/403 10/10/404 13/13/405
f 19/19/406 11/11/407 43/45/408
f 11/11/409 10/10/410 43/45/411
f 14/14/412 66/72/413 13/104/414
f 12/12/415 15/15/416 14/14/417
f 13/104/418 66/72/419 33/33/420
f 41/105/421 13/104/422 33/33/423
f 81/98/424 48/51/425 44/46/426
f 60/106/427 22/22/428 21/21/429
f 34/34/430 81/98/431 44/46/432
f 47/49/433 49/96/434 23/23/435
