# This file uses centimeters as units for non-parametric coordinates.

mtllib rock_012.mtl
g default
v -70.010918 0.000000 -67.219620
v -23.597168 0.000000 89.221130
v -25.103088 112.284096 -70.950272
v -1.857208 106.827454 67.345596
v 35.808517 89.997879 -78.956383
v 61.162186 93.000710 80.049850
v 24.887589 0.000000 -72.641121
v 54.129532 0.000000 78.090080
v -30.402847 118.456406 0.252838
v 61.967590 101.489037 -14.105267
v 51.808060 0.000000 -11.524776
v -65.468704 0.000000 17.087196
v -77.928558 62.439308 -87.819649
v 42.156494 47.482697 -86.406906
v 73.061768 48.758533 -29.124218
v 77.928558 61.040005 90.261360
v -21.066559 74.508255 103.256325
v -73.135544 69.845451 4.953629
v -45.832039 84.209099 -80.646606
v -42.644577 89.950111 -5.481487
v -17.980637 88.806915 70.516701
v 31.351059 56.667145 109.476662
v 18.440277 0.000000 93.718452
v -19.583267 0.000000 -84.236847
v -15.239777 53.298218 -109.476669
v -8.224670 90.404663 -91.983398
vt 0.620998 0.413115
vt 0.839567 0.310824
vt 0.814792 0.360147
vt 0.743010 0.343190
vt 0.749777 0.408794
vt 0.807964 0.408942
vt 0.802951 0.480422
vt 0.745260 0.477188
vt 0.706578 0.496045
vt 0.791611 0.519161
vt 0.801557 0.563520
vt 0.743481 0.562810
vt 0.960250 0.454457
vt 0.955299 0.485673
vt 0.902774 0.491457
vt 0.914917 0.454066
vt 0.641603 0.458601
vt 0.692226 0.442118
vt 0.862645 0.426269
vt 0.875895 0.478153
vt 0.904596 0.335397
vt 0.907488 0.411521
vt 0.727071 0.435642
vt 0.877550 0.413631
vt 0.805638 0.386676
vt 0.711424 0.399615
vt 0.867303 0.404726
vt 0.744370 0.377496
vt 0.894908 0.395725
vt 0.885495 0.507637
vt 0.875459 0.560363
vt 0.738441 0.517105
vt 0.656232 0.499967
vt 0.675721 0.385079
vt 0.966507 0.420596
vt 0.770785 0.296218
vn -0.815237 -0.283630 -0.504919
vn -0.958186 -0.072057 0.276926
vn -0.872204 0.440434 0.212790
vn -0.747584 0.309415 -0.587691
vn -0.232754 0.835156 -0.498337
vn -0.391453 0.917638 0.068597
vn 0.656063 0.738735 -0.154442
vn 0.463397 0.645766 -0.606836
vn 0.657842 -0.088727 -0.747911
vn 0.969892 -0.069854 -0.233302
vn 0.883063 -0.423047 -0.203052
vn 0.579004 -0.453790 -0.677369
vn 0.122501 -0.274368 0.953790
vn 0.763104 -0.411025 0.498729
vn 0.683770 0.213071 0.697897
vn 0.202555 0.388351 0.898974
vn -0.027680 -0.395691 -0.917967
vn 0.008554 0.010721 -0.999906
vn -0.320378 0.734445 0.598288
vn 0.480271 0.731375 0.484180
vn -0.570907 -0.133920 0.810019
vn -0.460511 0.506954 0.728647
vn -0.012959 0.547938 -0.836418
vn -0.259257 0.771611 0.580863
vn -0.719519 0.683455 0.123213
vn -0.563498 0.670311 -0.482860
s 1
g rock_012
usemtl lambert19SG
f 1/36/1 12/2/2 18/3/3 13/4/4
f 3/5/5 9/6/6 10/7/7 5/8/8
f 14/32/9 15/10/10 11/11/11 7/12/12
f 23/13/13 8/14/14 16/15/15 22/16/16
f 7/33/12 24/17/17 25/18/18 14/9/9
f 9/6/6 4/19/19 6/20/20 10/7/7
f 11/11/11 15/10/10 16/30/15 8/31/14
f 18/3/3 12/2/2 2/21/21 17/29/22
f 5/8/8 26/23/23 3/5/5
f 5/8/8 10/7/7 15/10/10 14/32/9
f 16/30/15 15/10/10 10/7/7 6/20/20
f 21/24/24 16/15/15 6/20/20 4/19/19
f 9/6/6 20/25/25 21/27/24 4/19/19
f 19/28/26 20/25/25 9/6/6 3/5/5
f 14/9/9 25/18/18 26/23/23 5/8/8
f 13/4/4 18/3/3 20/25/25 19/28/26
f 21/27/24 20/25/25 18/3/3 17/29/22
f 17/22/22 22/16/16 21/24/24
f 2/35/21 23/13/13 22/16/16 17/22/22
f 25/18/18 24/17/17 1/1/1 13/34/4
f 26/23/23 25/18/18 13/34/4 19/26/26
f 3/5/5 26/23/23 19/26/26
f 21/24/24 22/16/16 16/15/15
