# This file uses centimeters as units for non-parametric coordinates.

mtllib rock_008.mtl
g default
v -116.619972 48.105446 303.182983
v -47.264740 0.000000 202.665161
v -11.089866 0.000000 260.436829
v -29.049883 51.077423 259.089996
v -37.793442 65.615227 286.027313
v 66.194305 51.877434 274.381470
v 69.653458 73.980827 293.395172
v -42.422394 94.821960 337.322815
v -40.236568 114.030556 266.493164
v 66.278961 90.524017 225.983170
v 79.517731 123.105576 122.310005
v -26.661636 146.309738 150.116867
v 82.557793 92.952164 5.928312
v -29.099699 127.458748 35.893963
v -32.930214 138.274216 -246.635971
v -140.017914 158.002411 -241.965607
v -178.403275 185.116547 -220.809723
v -33.549934 111.070328 -171.764694
v 66.887077 77.912209 -195.175278
v 62.267151 110.580887 -266.017517
v -93.916786 0.000000 -211.572388
v -179.801682 77.754776 -310.990875
v -31.157219 77.673546 -261.148254
v -8.926370 0.000000 -241.370865
v 56.514309 51.985485 -283.913208
v 45.227188 0.000000 -250.381668
v 228.479172 40.423302 -169.666534
v 148.155014 46.903481 -267.571167
v 145.148819 65.584946 -253.174179
v 302.196625 0.000000 84.815186
v 332.324493 0.000000 -48.178497
v 273.730591 60.846237 -20.929932
v 256.442474 62.810596 68.870972
v 226.478073 74.443565 161.314468
v 233.658188 0.000000 181.290604
v 265.841797 0.000000 149.510010
v -211.133652 61.206493 -287.156982
v -141.550583 0.000000 -201.943420
v -150.012329 0.000000 -109.978813
v -205.889938 69.021065 -147.989334
v -118.357262 0.000000 12.112598
v -178.963394 93.686905 0.466143
v -94.277901 0.000000 86.033447
v -91.655205 0.000000 187.701172
v -194.097290 59.455925 229.222214
v -195.564575 97.856537 80.281128
v -168.315781 215.255981 78.192551
v -166.623917 191.223068 212.227829
v -130.008057 180.702774 247.089081
v -177.755737 119.840340 338.661407
v -158.498657 73.124062 316.428711
v -207.409531 112.993370 242.013931
v -227.462936 139.128448 263.287140
v -214.942261 144.917862 75.377312
v -241.880692 152.796249 169.793625
v -239.620621 168.642929 76.871384
v -227.759674 109.910385 -155.062210
v -213.426620 125.072914 -70.386185
v -247.358078 150.051208 -73.118904
v -275.620026 138.751572 -170.589569
v -273.089447 170.306564 -301.382782
v -264.221130 139.082504 -315.568146
v -234.161835 166.748199 -334.133545
v -177.675262 146.544052 -350.023285
v -187.867920 98.275871 -339.104462
v -41.530479 88.985786 -287.215179
v -49.442249 128.745865 -326.212708
v 56.646889 100.367409 -332.678986
v 54.035416 71.618217 -306.514160
v 51.085262 0.000000 255.896393
v 67.610817 39.148350 244.342087
v -34.090172 114.240379 319.545685
v 72.031975 85.522240 275.832092
v -157.713425 148.590118 323.699249
v -56.402901 153.170090 -309.375854
v -172.814026 187.844650 -333.331268
v 59.057175 118.188469 -315.367584
v -219.220551 204.158691 88.102745
v -219.215881 184.736725 175.571838
v -220.532547 191.935211 4.537889
v -240.064056 147.114059 -2.427526
v -279.657562 189.448227 -189.442261
v -260.179901 202.953720 -226.078156
v -212.654938 192.022995 -322.637421
v -202.098785 183.854034 261.973633
v 186.901932 99.978645 124.192116
v -196.426529 202.878418 -121.229294
v -274.525757 183.435944 -154.191727
v -252.641449 194.708572 -66.240875
v -174.228287 201.337143 4.480351
v 188.448639 67.555252 -9.909525
v -188.559402 190.145004 -191.866486
v -211.936890 195.561142 -157.562439
v 129.042374 81.984673 -215.384338
v 166.963303 74.067497 -130.641479
v 184.971634 61.554276 225.328629
v 117.479080 77.772202 181.443924
v 83.909676 99.015190 -125.965553
v 152.580658 0.000000 -262.869354
v 140.916595 0.000000 228.174164
v 184.526932 87.624962 210.274155
v -24.892504 133.821976 -86.344666
v 265.752350 0.000000 -200.015686
v -200.296463 118.742874 -0.849003
v 232.450348 0.000000 -246.747925
v -236.845352 193.019943 -293.038391
vt 0.121390 0.520498
vt 0.004709 0.457404
vt 0.059453 0.405569
vt 0.111219 0.426240
vt 0.129574 0.440052
vt 0.157334 0.326968
vt 0.188882 0.335063
vt 0.179446 0.455841
vt 0.225934 0.463917
vt 0.243078 0.330213
vt 0.367554 0.309421
vt 0.354599 0.431688
vt 0.491109 0.302591
vt 0.469062 0.429080
vt 0.741299 0.431721
vt 0.755414 0.555971
vt 0.740179 0.606781
vt 0.673474 0.433155
vt 0.697726 0.328657
vt 0.756282 0.341196
vt 0.973943 0.449545
vt 0.910384 0.550305
vt 0.877512 0.409458
vt 0.922544 0.363548
vt 0.846863 0.327112
vt 0.894760 0.311864
vt 0.684981 0.141672
vt 0.791381 0.250566
vt 0.768681 0.255140
vt 0.367315 0.001736
vt 0.540345 -0.000000
vt 0.499993 0.097117
vt 0.397104 0.104045
vt 0.292789 0.130650
vt 0.232406 0.064388
vt 0.282045 0.032914
vt 0.774801 0.906718
vt 0.672426 1.000000
vt 0.570872 0.966131
vt 0.627939 0.873565
vt 0.427655 0.964895
vt 0.466103 0.843940
vt 0.336869 0.967671
vt 0.223458 0.942299
vt 0.218826 0.790003
vt 0.383888 0.804243
vt 0.418794 0.619661
vt 0.286728 0.602066
vt 0.241544 0.554796
vt 0.000000 0.511345
vt 0.081431 0.623009
vt 0.941273 0.580426
vt 1.000000 0.495868
vt 0.173589 0.574084
vt 0.146948 0.559254
vt 0.134766 0.646428
vt 0.178412 0.653641
vt 0.403554 0.756408
vt 0.225205 0.735739
vt 0.318116 0.703384
vt 0.411270 0.716437
vt 0.642159 0.826290
vt 0.552737 0.807099
vt 0.568889 0.754734
vt 0.668382 0.762049
vt 0.820201 0.745815
vt 0.825679 0.797469
vt 0.849846 0.624838
vt 0.844817 0.574600
vt 0.874132 0.577357
vt 0.883958 0.654963
vt 0.856518 0.426094
vt 0.814574 0.443202
vt 0.805560 0.353679
vt 0.826850 0.342754
vt 0.078037 0.325193
vt 0.131759 0.315978
vt 0.197663 0.461448
vt 0.209371 0.329362
vt 0.195380 0.575890
vt 0.795903 0.453456
vt 0.818994 0.575787
vt 0.793629 0.351344
vt 0.405440 0.682645
vt 0.319236 0.673134
vt 0.492490 0.695169
vt 0.494239 0.742308
vt 0.694040 0.720706
vt 0.774901 0.700670
vt 0.819913 0.613078
vt 0.226768 0.646754
vt 0.344298 0.184289
vt 0.616255 0.628659
vt 0.656274 0.722226
vt 0.567530 0.712381
vt 0.495998 0.625749
vt 0.496062 0.189635
vt 0.715129 0.624551
vt 0.652396 0.640737
vt 0.724591 0.267065
vt 0.633619 0.209391
vt 0.217143 0.177801
vt 0.271417 0.262674
vt 0.628655 0.317152
vt 0.820481 0.225886
vt 0.123236 0.208059
vt 0.165756 0.087147
vt 0.240658 0.180146
vt 0.592554 0.434711
vt 0.737318 0.086108
vt 0.476208 0.805211
vt 0.780679 0.145485
vt 0.810703 0.645115
vt 0.838200 0.684500
vt 0.217800 0.693231
vn -0.215775 -0.759494 0.613686
vn -0.188646 -0.839846 0.508991
vn 0.040941 -0.333576 0.941834
vn 0.084641 -0.558000 0.825513
vn 0.064604 -0.746230 0.662545
vn 0.136444 -0.833278 0.535752
vn 0.412709 -0.086671 0.906730
vn 0.194353 -0.130383 0.972228
vn 0.339845 0.920211 0.194211
vn 0.223378 0.958311 0.178166
vn 0.264746 0.960844 0.081779
vn 0.359930 0.932639 0.025199
vn 0.359930 0.932639 0.025199
vn 0.264746 0.960844 0.081779
vn 0.246397 0.964980 -0.090016
vn 0.358084 0.930130 -0.081449
vn 0.297771 0.933210 0.201126
vn 0.310198 0.942418 0.125004
vn 0.297257 0.954372 0.028519
vn 0.360713 0.932661 0.005407
vn 0.360713 0.932661 0.005407
vn 0.199225 0.975931 0.088699
vn 0.307523 0.925319 0.221844
vn 0.297771 0.933210 0.201126
vn 0.001681 -0.712487 -0.701683
vn -0.068357 -0.743160 -0.665613
vn -0.089852 -0.695680 -0.712710
vn -0.100976 -0.490443 -0.865604
vn -0.089852 -0.695680 -0.712710
vn -0.128229 -0.618217 -0.775477
vn -0.130725 -0.377147 -0.916881
vn -0.100976 -0.490443 -0.865604
vn 0.514897 0.804696 -0.295541
vn 0.434707 -0.018517 -0.900382
vn 0.601228 0.730411 -0.324074
vn 0.733549 0.621323 0.275432
vn 0.707679 0.703747 -0.062693
vn 0.481149 0.871510 -0.094693
vn 0.647785 0.739350 0.183674
vn 0.647785 0.739350 0.183674
vn 0.669931 0.634033 0.386257
vn 0.747971 0.122700 0.652291
vn 0.773936 0.498386 0.390684
vn -0.583724 -0.749061 -0.313328
vn -0.442189 -0.842683 -0.307172
vn -0.782958 -0.610254 0.120691
vn -0.827253 -0.544425 0.138759
vn -0.782958 -0.610254 0.120691
vn -0.798975 -0.584595 0.141025
vn -0.826582 -0.553023 0.104534
vn -0.827253 -0.544425 0.138759
vn -0.698065 -0.715509 -0.027428
vn -0.481560 -0.870302 0.103315
vn -0.696428 -0.702740 0.145414
vn -0.820908 -0.569346 -0.044221
vn 0.126485 0.991917 0.010063
vn 0.042139 0.980178 0.193584
vn 0.309806 0.911980 0.268909
vn 0.339845 0.920211 0.194211
vn 0.359930 0.932639 0.025199
vn -0.481560 -0.870302 0.103315
vn -0.188646 -0.839846 0.508991
vn -0.215775 -0.759494 0.613686
vn -0.696428 -0.702740 0.145414
vn -0.583724 -0.749061 -0.313328
vn -0.068357 -0.743160 -0.665613
vn 0.001681 -0.712487 -0.701683
vn -0.442189 -0.842683 -0.307172
vn 0.194353 -0.130383 0.972228
vn -0.446003 -0.095268 0.889947
vn -0.341085 -0.687500 0.641097
vn 0.064604 -0.746230 0.662545
vn -0.797050 -0.594236 0.107677
vn -0.341085 -0.687500 0.641097
vn -0.446003 -0.095268 0.889947
vn -0.935942 -0.056519 0.347589
vn -0.800359 -0.599291 -0.016584
vn -0.797050 -0.594236 0.107677
vn -0.992509 -0.107182 0.058640
vn -0.984436 -0.174663 0.019450
vn -0.774452 -0.619560 0.127943
vn -0.714350 -0.683141 0.151733
vn -0.863018 -0.449124 0.231273
vn -0.939620 -0.322465 0.114587
vn -0.939620 -0.322465 0.114587
vn -0.839967 0.318260 -0.439507
vn -0.711402 -0.438409 -0.549276
vn -0.774452 -0.619560 0.127943
vn -0.427644 0.321497 -0.844844
vn -0.011051 0.061690 -0.998034
vn -0.117695 -0.578728 -0.806983
vn -0.711402 -0.438409 -0.549276
vn -0.051697 -0.743452 -0.666788
vn -0.117695 -0.578728 -0.806983
vn -0.011051 0.061690 -0.998034
vn 0.108223 -0.028238 -0.993726
vn 0.108223 -0.028238 -0.993726
vn 0.247912 -0.083015 -0.965219
vn -0.088157 -0.754485 -0.650370
vn -0.051697 -0.743452 -0.666788
vn 0.040941 -0.333576 0.941834
vn 0.175124 0.075240 0.981667
vn 0.160037 -0.504539 0.848427
vn 0.084641 -0.558000 0.825513
vn 0.321401 0.807204 0.495098
vn 0.194353 -0.130383 0.972228
vn 0.412709 -0.086671 0.906730
vn 0.306172 0.880385 0.362189
vn 0.194353 -0.130383 0.972228
vn 0.321401 0.807204 0.495098
vn 0.010730 0.801957 0.597285
vn -0.446003 -0.095268 0.889947
vn 0.270112 0.882464 -0.385093
vn 0.108223 -0.028238 -0.993726
vn -0.011051 0.061690 -0.998034
vn 0.225561 0.854636 -0.467674
vn 0.108223 -0.028238 -0.993726
vn 0.270112 0.882464 -0.385093
vn 0.448300 0.826966 -0.339345
vn 0.247912 -0.083015 -0.965219
vn -0.597941 0.801444 0.012389
vn -0.984436 -0.174663 0.019450
vn -0.992509 -0.107182 0.058640
vn -0.560955 0.816042 0.139304
vn -0.984436 -0.174663 0.019450
vn -0.597941 0.801444 0.012389
vn -0.668450 0.742197 0.048155
vn -0.942573 -0.310781 0.122359
vn -0.939620 -0.322465 0.114587
vn -0.714531 0.696456 0.066291
vn -0.380938 0.918731 -0.104015
vn -0.839967 0.318260 -0.439507
vn -0.427644 0.321497 -0.844844
vn -0.031863 0.919683 -0.391368
vn 0.225561 0.854636 -0.467674
vn -0.011051 0.061690 -0.998034
vn -0.421899 0.840383 0.340233
vn -0.935942 -0.056519 0.347589
vn -0.446003 -0.095268 0.889947
vn 0.010730 0.801957 0.597285
vn 0.321401 0.807204 0.495098
vn 0.306172 0.880385 0.362189
vn 0.223378 0.958311 0.178166
vn 0.339845 0.920211 0.194211
vn 0.669931 0.634033 0.386257
vn 0.647785 0.739350 0.183674
vn 0.269160 0.961330 0.058296
vn 0.126659 0.988254 -0.085513
vn -0.773199 0.616869 0.147092
vn -0.739410 0.638062 0.214825
vn 0.069568 0.996606 -0.044016
vn 0.647785 0.739350 0.183674
vn 0.481149 0.871510 -0.094693
vn 0.228323 0.967190 -0.111413
vn 0.269160 0.961330 0.058296
vn 0.270112 0.882464 -0.385093
vn 0.225561 0.854636 -0.467674
vn 0.310198 0.942418 0.125004
vn 0.297771 0.933210 0.201126
vn 0.225561 0.854636 -0.467674
vn -0.031863 0.919683 -0.391368
vn 0.297257 0.954372 0.028519
vn 0.310198 0.942418 0.125004
vn 0.275926 0.960677 -0.031046
vn -0.380938 0.918731 -0.104015
vn -0.714531 0.696456 0.066291
vn 0.166193 0.981536 -0.094695
vn 0.514897 0.804696 -0.295541
vn 0.601228 0.730411 -0.324074
vn 0.290043 0.956413 0.033907
vn 0.263748 0.960639 -0.087236
vn 0.601228 0.730411 -0.324074
vn 0.448300 0.826966 -0.339345
vn 0.307523 0.925319 0.221844
vn 0.290043 0.956413 0.033907
vn -0.597941 0.801444 0.012389
vn -0.560955 0.816042 0.139304
vn 0.042139 0.980178 0.193584
vn 0.126485 0.991917 0.010063
vn -0.421899 0.840383 0.340233
vn 0.010730 0.801957 0.597285
vn 0.309806 0.911980 0.268909
vn 0.042139 0.980178 0.193584
vn 0.010730 0.801957 0.597285
vn 0.321401 0.807204 0.495098
vn 0.339845 0.920211 0.194211
vn 0.309806 0.911980 0.268909
vn 0.412709 -0.086671 0.906730
vn 0.136444 -0.833278 0.535752
vn 0.558226 -0.114377 0.821768
vn 0.264746 0.960844 0.081779
vn 0.223378 0.958311 0.178166
vn 0.131515 0.975327 0.177318
vn 0.269160 0.961330 0.058296
vn 0.229623 0.969336 -0.087523
vn 0.246397 0.964980 -0.090016
vn 0.228323 0.967190 -0.111413
vn 0.263748 0.960639 -0.087236
vn 0.307523 0.925319 0.221844
vn 0.199225 0.975931 0.088699
vn 0.290043 0.956413 0.033907
vn -0.130725 -0.377147 -0.916881
vn -0.128229 -0.618217 -0.775477
vn 0.434707 -0.018517 -0.900382
vn 0.104575 -0.223529 -0.969071
vn -0.128229 -0.618217 -0.775477
vn -0.088157 -0.754485 -0.650370
vn 0.434707 -0.018517 -0.900382
vn 0.558226 -0.114377 0.821768
vn 0.332521 -0.134064 0.933518
vn 0.747971 0.122700 0.652291
vn 0.306172 0.880385 0.362189
vn 0.412709 -0.086671 0.906730
vn 0.558226 -0.114377 0.821768
vn 0.368187 0.846190 0.385229
vn 0.247912 -0.083015 -0.965219
vn 0.448300 0.826966 -0.339345
vn 0.601228 0.730411 -0.324074
vn 0.434707 -0.018517 -0.900382
vn 0.223378 0.958311 0.178166
vn 0.306172 0.880385 0.362189
vn 0.368187 0.846190 0.385229
vn 0.131515 0.975327 0.177318
vn 0.307523 0.925319 0.221844
vn 0.448300 0.826966 -0.339345
vn 0.270112 0.882464 -0.385093
vn 0.297771 0.933210 0.201126
vn 0.358084 0.930130 -0.081449
vn 0.069568 0.996606 -0.044016
vn 0.126485 0.991917 0.010063
vn 0.359930 0.932639 0.025199
vn 0.358084 0.930130 -0.081449
vn 0.246397 0.964980 -0.090016
vn 0.229623 0.969336 -0.087523
vn 0.357939 0.921139 -0.152915
vn 0.481149 0.871510 -0.094693
vn 0.707679 0.703747 -0.062693
vn 0.568651 0.754553 -0.327546
vn 0.514897 0.804696 -0.295541
vn -0.826582 -0.553023 0.104534
vn -0.798975 -0.584595 0.141025
vn -0.698065 -0.715509 -0.027428
vn -0.820908 -0.569346 -0.044221
vn -0.942573 -0.310781 0.122359
vn -0.721116 -0.690580 0.055600
vn -0.800359 -0.599291 -0.016584
vn -0.984436 -0.174663 0.019450
vn -0.863018 -0.449124 0.231273
vn -0.739410 0.638062 0.214825
vn -0.773199 0.616869 0.147092
vn -0.939620 -0.322465 0.114587
vn 0.069568 0.996606 -0.044016
vn -0.668450 0.742197 0.048155
vn -0.597941 0.801444 0.012389
vn 0.126485 0.991917 0.010063
vn 0.228323 0.967190 -0.111413
vn 0.481149 0.871510 -0.094693
vn 0.514897 0.804696 -0.295541
vn 0.263748 0.960639 -0.087236
vn 0.228323 0.967190 -0.111413
vn 0.246397 0.964980 -0.090016
vn 0.264746 0.960844 0.081779
vn 0.269160 0.961330 0.058296
vn 0.773936 0.498386 0.390684
vn 0.733549 0.621323 0.275432
vn 0.647785 0.739350 0.183674
vn 0.568651 0.754553 -0.327546
vn 0.428062 0.409431 -0.805685
vn 0.434707 -0.018517 -0.900382
vn 0.514897 0.804696 -0.295541
vn 0.360713 0.932661 0.005407
vn 0.275926 0.960677 -0.031046
vn 0.166193 0.981536 -0.094695
vn 0.357939 0.921139 -0.152915
vn 0.357939 0.921139 -0.152915
vn 0.229623 0.969336 -0.087523
vn 0.199225 0.975931 0.088699
vn 0.360713 0.932661 0.005407
vn 0.290043 0.956413 0.033907
vn 0.199225 0.975931 0.088699
vn 0.229623 0.969336 -0.087523
vn 0.263748 0.960639 -0.087236
vn -0.162311 0.961054 -0.223674
vn -0.380938 0.918731 -0.104015
vn 0.275926 0.960677 -0.031046
vn 0.297257 0.954372 0.028519
vn -0.162311 0.961054 -0.223674
vn -0.839967 0.318260 -0.439507
vn -0.380938 0.918731 -0.104015
vn 0.360713 0.932661 0.005407
vn 0.297257 0.954372 0.028519
vn 0.275926 0.960677 -0.031046
vn 0.357939 0.921139 -0.152915
vn 0.126659 0.988254 -0.085513
vn 0.069568 0.996606 -0.044016
vn 0.358084 0.930130 -0.081449
vn -0.714531 0.696456 0.066291
vn -0.773199 0.616869 0.147092
vn 0.126659 0.988254 -0.085513
vn 0.166193 0.981536 -0.094695
vn -0.714531 0.696456 0.066291
vn -0.939620 -0.322465 0.114587
vn -0.773199 0.616869 0.147092
vn 0.166193 0.981536 -0.094695
vn 0.126659 0.988254 -0.085513
vn 0.357939 0.921139 -0.152915
vn 0.104575 -0.223529 -0.969071
vn 0.434707 -0.018517 -0.900382
vn 0.428062 0.409431 -0.805685
vn 0.160037 -0.504539 0.848427
vn 0.175124 0.075240 0.981667
vn 0.332521 -0.134064 0.933518
vn 0.558226 -0.114377 0.821768
vn -0.051697 -0.743452 -0.666788
vn -0.088157 -0.754485 -0.650370
vn -0.128229 -0.618217 -0.775477
vn -0.089852 -0.695680 -0.712710
vn -0.089852 -0.695680 -0.712710
vn -0.068357 -0.743160 -0.665613
vn -0.117695 -0.578728 -0.806983
vn -0.051697 -0.743452 -0.666788
vn -0.711402 -0.438409 -0.549276
vn -0.117695 -0.578728 -0.806983
vn -0.068357 -0.743160 -0.665613
vn -0.583724 -0.749061 -0.313328
vn -0.774452 -0.619560 0.127943
vn -0.711402 -0.438409 -0.549276
vn -0.583724 -0.749061 -0.313328
vn -0.827253 -0.544425 0.138759
vn -0.827253 -0.544425 0.138759
vn -0.826582 -0.553023 0.104534
vn -0.714350 -0.683141 0.151733
vn -0.774452 -0.619560 0.127943
vn -0.800359 -0.599291 -0.016584
vn -0.721116 -0.690580 0.055600
vn -0.826582 -0.553023 0.104534
vn -0.820908 -0.569346 -0.044221
vn -0.797050 -0.594236 0.107677
vn -0.800359 -0.599291 -0.016584
vn -0.820908 -0.569346 -0.044221
vn -0.696428 -0.702740 0.145414
vn -0.696428 -0.702740 0.145414
vn -0.215775 -0.759494 0.613686
vn -0.341085 -0.687500 0.641097
vn -0.797050 -0.594236 0.107677
vn 0.064604 -0.746230 0.662545
vn -0.341085 -0.687500 0.641097
vn -0.215775 -0.759494 0.613686
vn 0.084641 -0.558000 0.825513
vn 0.084641 -0.558000 0.825513
vn 0.160037 -0.504539 0.848427
vn 0.136444 -0.833278 0.535752
vn 0.064604 -0.746230 0.662545
vn 0.558226 -0.114377 0.821768
vn 0.136444 -0.833278 0.535752
vn 0.160037 -0.504539 0.848427
vn 0.434707 -0.018517 -0.900382
vn -0.088157 -0.754485 -0.650370
vn 0.247912 -0.083015 -0.965219
vn -0.714350 -0.683141 0.151733
vn -0.826582 -0.553023 0.104534
vn -0.721116 -0.690580 0.055600
vn -0.863018 -0.449124 0.231273
vn -0.714350 -0.683141 0.151733
vn -0.721116 -0.690580 0.055600
vn -0.942573 -0.310781 0.122359
vn -0.942573 -0.310781 0.122359
vn -0.668450 0.742197 0.048155
vn -0.739410 0.638062 0.214825
vn -0.863018 -0.449124 0.231273
vn 0.069568 0.996606 -0.044016
vn -0.739410 0.638062 0.214825
vn -0.668450 0.742197 0.048155
vn -0.992509 -0.107182 0.058640
vn -0.797050 -0.594236 0.107677
vn -0.935942 -0.056519 0.347589
vn -0.560955 0.816042 0.139304
vn -0.992509 -0.107182 0.058640
vn -0.935942 -0.056519 0.347589
vn -0.421899 0.840383 0.340233
vn 0.042139 0.980178 0.193584
vn -0.560955 0.816042 0.139304
vn -0.421899 0.840383 0.340233
vn 0.368187 0.846190 0.385229
vn 0.669931 0.634033 0.386257
vn 0.269160 0.961330 0.058296
vn 0.131515 0.975327 0.177318
vn 0.558226 -0.114377 0.821768
vn 0.669931 0.634033 0.386257
vn 0.368187 0.846190 0.385229
vn 0.747971 0.122700 0.652291
vn 0.669931 0.634033 0.386257
vn 0.558226 -0.114377 0.821768
vn -0.839967 0.318260 -0.439507
vn -0.427644 0.321497 -0.844844
vn -0.711402 -0.438409 -0.549276
vn -0.839967 0.318260 -0.439507
vn -0.162311 0.961054 -0.223674
vn -0.031863 0.919683 -0.391368
vn -0.427644 0.321497 -0.844844
vn 0.297257 0.954372 0.028519
vn -0.031863 0.919683 -0.391368
vn -0.162311 0.961054 -0.223674
s off
g rock_008 rock_008
usemtl lambert19SG
f 1/1/1 2/2/2 3/3/3 4/4/4
f 5/5/5 6/6/6 7/7/7 8/8/8
f 9/9/9 10/10/10 11/11/11 12/12/12
f 12/12/13 11/11/14 13/13/15 14/14/16
f 15/15/17 16/16/18 17/17/19 18/18/20
f 18/18/21 19/19/22 20/20/23 15/15/24
f 21/21/25 22/22/26 23/23/27 24/24/28
f 23/23/29 25/25/30 26/26/31 24/24/32
f 27/27/33 28/28/34 29/29/35
f 30/30/36 31/31/37 32/32/38 33/33/39
f 33/33/40 34/34/41 35/35/42 36/36/43
f 37/37/44 38/38/45 39/39/46 40/40/47
f 39/39/48 41/41/49 42/42/50 40/40/51
f 43/43/52 44/44/53 45/45/54 46/46/55
f 47/47/56 48/48/57 49/49/58 9/9/59 12/12/60
f 44/50/61 2/2/62 1/1/63 45/51/64
f 37/52/65 22/22/66 21/21/67 38/53/68
f 8/8/69 50/54/70 51/55/71 5/5/72
f 52/56/73 51/55/74 50/54/75 53/57/76
f 54/58/77 52/59/78 55/60/79 56/61/80
f 57/62/81 58/63/82 59/64/83 60/65/84
f 60/65/85 61/66/86 62/67/87 57/62/88
f 63/68/89 64/69/90 65/70/91 62/71/92
f 66/72/93 65/70/94 64/69/95 67/73/96
f 67/73/97 68/74/98 69/75/99 66/72/100
f 3/3/101 70/76/102 71/77/103 4/4/104
f 72/78/105 8/8/106 7/7/107 73/79/108
f 8/8/109 72/78/110 74/80/111 50/54/112
f 75/81/113 67/73/114 64/69/115 76/82/116
f 67/73/117 75/81/118 77/83/119 68/74/120
f 78/84/121 56/61/122 55/60/123 79/85/124
f 56/61/125 78/84/126 80/86/127 81/87/128
f 60/65/129 82/88/130 83/89/131 61/66/132
f 63/68/133 84/90/134 76/82/135 64/69/136
f 85/91/137 53/57/138 50/54/139 74/80/140
f 72/78/141 73/79/142 10/10/143 9/9/144
f 34/34/145 33/33/146 86/92/147
f 87/93/148 88/94/149 89/95/150 90/96/151
f 33/33/152 32/32/153 91/97/154 86/92/155
f 75/81/156 76/82/157 16/16/158 15/15/159
f 76/82/160 84/90/161 17/17/162 16/16/163
f 92/98/164 83/89/165 82/88/166 93/99/167
f 27/27/168 29/29/169 94/100/170 95/101/171
f 29/29/172 77/83/173 20/20/174 94/100/175
f 78/84/176 79/85/177 48/48/178 47/47/179
f 85/91/180 74/80/181 49/49/182 48/48/183
f 74/80/184 72/78/185 9/9/186 49/49/187
f 7/7/188 6/6/189 96/102/190
f 11/11/191 10/10/192 97/103/193 86/92/194
f 98/104/195 13/13/196 91/97/197 95/101/198
f 20/20/199 19/19/200 94/100/201
f 26/26/202 25/25/203 28/28/204 99/105/205
f 25/25/206 69/75/207 28/28/208
f 96/102/209 100/106/210 35/107/211
f 73/79/212 7/7/213 96/102/214 101/108/215
f 68/74/216 77/83/217 29/29/218 28/28/219
f 10/10/220 73/79/221 101/108/222 97/103/223
f 20/20/224 77/83/225 75/81/226 15/15/227
f 14/14/228 90/96/229 47/47/230 12/12/231
f 14/14/232 13/13/233 98/104/234 102/109/235
f 32/32/236 31/31/237 103/110/238 27/27/239
f 42/42/240 41/41/241 43/43/242 46/46/243
f 81/87/244 104/111/245 54/58/246 56/61/247
f 59/64/248 89/95/249 88/94/250 60/65/251
f 90/96/252 80/86/253 78/84/254 47/47/255
f 91/97/256 32/32/257 27/27/258 95/101/259
f 91/97/260 13/13/261 11/11/262 86/92/263
f 36/36/264 30/30/265 33/33/266
f 103/110/267 105/112/268 28/28/269 27/27/270
f 18/18/271 92/98/272 93/99/273 102/109/274
f 102/109/275 98/104/276 19/19/277 18/18/278
f 94/100/279 19/19/280 98/104/281 95/101/282
f 106/113/283 83/89/284 92/98/285 17/17/286
f 106/113/287 61/114/288 83/89/289
f 18/18/290 17/17/291 92/98/292
f 102/109/293 87/93/294 90/96/295 14/14/296
f 82/88/297 88/94/298 87/93/299 93/99/300
f 82/88/301 60/65/302 88/94/303
f 93/99/304 87/93/305 102/109/306
f 99/105/307 28/28/308 105/112/309
f 71/77/310 70/76/311 100/106/312 96/102/313
f 66/72/314 69/75/315 25/25/316 23/23/317
f 23/23/318 22/22/319 65/70/320 66/72/321
f 62/71/322 65/70/323 22/22/324 37/52/325
f 57/62/326 62/67/327 37/37/328 40/40/329
f 40/40/330 42/42/331 58/63/332 57/62/333
f 54/58/334 104/111/335 42/42/336 46/46/337
f 52/59/338 54/58/339 46/46/340 45/45/341
f 45/51/342 1/1/343 51/55/344 52/56/345
f 5/5/346 51/55/347 1/1/348 4/4/349
f 4/4/350 71/77/351 6/6/352 5/5/353
f 96/102/354 6/6/355 71/77/356
f 28/28/357 69/75/358 68/74/359
f 58/63/360 42/42/361 104/111/362
f 59/64/363 58/63/364 104/111/365 81/87/366
f 81/87/367 80/86/368 89/95/369 59/64/370
f 90/96/371 89/95/372 80/86/373
f 55/60/374 52/59/375 53/115/376
f 79/85/377 55/60/378 53/115/379 85/91/380
f 48/48/381 79/85/382 85/91/383
f 101/108/384 34/34/385 86/92/386 97/103/387
f 96/102/388 34/34/389 101/108/390
f 35/35/391 34/34/392 96/102/393
f 61/114/394 63/68/395 62/71/396
f 61/114/397 106/113/398 84/90/399 63/68/400
f 17/17/401 84/90/402 106/113/403
