# This file uses centimeters as units for non-parametric coordinates.

mtllib rock_003_LOD3.mtl
g default
v -289.654674 647.070313 725.957581
v -177.139049 395.213531 606.594238
v -10.619517 372.337585 573.462463
v -89.393931 636.868408 730.590027
v 73.535756 630.337280 891.819702
v 362.642690 261.089325 651.275452
v 426.504506 629.468262 799.791199
v 555.877065 677.231995 212.203751
v -384.677135 614.176636 -708.809326
v 195.852162 597.734192 -641.293884
v -14.297740 343.045135 -587.051514
v 490.341908 428.487122 87.853798
v 478.481557 345.612183 78.909470
v 517.108510 343.588776 -196.351410
v 610.751088 560.347595 -193.804520
v 522.574819 534.731628 209.130524
v 615.150502 629.625916 132.976486
v -348.042857 500.330139 418.702789
v -447.155162 319.612061 349.031158
v -361.823131 473.961029 560.292358
v -457.837779 702.804565 438.148346
v 377.170522 408.363983 -329.461517
v 480.408315 0.000000 -427.253479
v 508.429799 640.191284 -392.440826
v 577.761830 593.751587 -702.345032
v 518.432729 0.000000 -566.536072
v 390.492299 341.026337 -736.474182
v -629.744029 0.000000 -400.127014
v -456.412486 0.000000 -149.757339
v -503.173228 292.668762 -283.499817
v -401.290904 0.000000 437.598297
v 32.163197 0.000000 737.551331
v 515.915639 0.000000 549.290466
v 102.246694 267.262268 650.888855
v 610.382436 0.000000 -10.059472
v 523.216420 0.000000 -802.825562
v 115.465932 0.000000 -793.446289
v 290.121205 595.295898 -800.954712
v -376.925670 0.000000 669.164429
v 575.122182 639.106140 452.061615
v -407.536510 494.439636 -557.019958
v -644.737681 638.017395 -538.412964
v 222.582631 664.083557 -93.810425
v -313.768443 305.824005 -55.857742
v -543.437389 0.000000 30.606312
v -424.346080 390.652740 125.916100
v 496.739858 0.000000 157.253220
v -111.329967 0.000000 690.768799
v -457.852428 641.111145 -180.897690
v 591.750111 0.000000 340.297760
v 427.128529 259.629730 417.954193
v -500.247447 707.643982 101.309265
v -505.646373 0.000000 373.255157
v -655.576060 733.846436 160.257507
v -377.488170 258.684845 -649.498901
v -518.748424 210.671249 -505.168488
v -466.466685 0.000000 -663.804138
v -197.299693 0.000000 -937.147949
v -543.240611 659.731812 -345.101471
v -666.533580 0.000000 246.193771
v 621.397084 0.000000 -274.647125
vt 0.194575 0.295822
vt 0.213245 0.386187
vt 0.284299 0.396636
vt 0.294405 0.297441
vt 0.357760 0.303381
vt 0.459835 0.440465
vt 0.450523 0.292150
vt 0.682276 0.807183
vt 0.438594 0.953211
vt 0.619369 0.763680
vt 0.374001 0.237948
vt 0.214360 0.246469
vt 0.268484 0.149324
vt 0.720840 0.371588
vt 0.723155 0.412397
vt 0.844918 0.414066
vt 0.840078 0.321501
vt 0.655390 0.328954
vt 0.756992 0.302745
vt 0.057609 0.347186
vt 0.037418 0.473258
vt 0.118768 0.353797
vt 0.079320 0.270220
vt 0.003670 0.173676
vt 0.030904 0.049823
vt 0.027540 0.250081
vt 0.098253 0.245100
vt 0.066040 0.029121
vt 0.140640 0.140611
vt 0.544065 0.005289
vt 0.666963 0.010707
vt 0.582307 0.121426
vt 0.062950 0.550702
vt 0.347499 0.545412
vt 0.533674 0.547531
vt 0.358727 0.438289
vt 0.784601 0.545819
vt 0.125453 0.008632
vt 0.235706 0.020743
vt 0.156485 0.246242
vt 0.027373 0.893114
vt 0.198059 0.940992
vt 0.097138 0.980063
vt 0.149790 0.535042
vt 0.555814 0.289913
vt 0.628330 0.293142
vt 0.687521 0.293283
vt 0.114813 0.853323
vt 0.049329 0.707097
vt 0.062351 0.645722
vt 0.131436 0.620046
vt 0.901922 0.383478
vt 0.890497 0.308479
vt 0.310574 0.856056
vt 0.264227 0.989336
vt 0.704408 0.129588
vt 0.767536 0.006245
vt 0.806770 0.161512
vt 0.696311 0.549169
vt 0.231599 0.540011
vt 0.278259 0.638312
vt 0.605631 0.496554
vt 0.543488 0.439899
vt 0.384483 0.620169
vt 0.516537 0.650743
vt 0.931400 0.007179
vt 0.972485 0.000000
vt 0.925895 0.132937
vt 0.851593 0.298797
vt 0.935600 0.289881
vt 0.791797 0.292223
vt 0.684023 0.258508
vt 0.452905 0.206572
vt 0.510856 0.259972
vt 0.407097 0.108304
vt 0.498799 0.089332
vt 0.436952 0.008729
vt 0.339605 0.044664
vt 0.410416 0.564680
vt 0.576649 0.646881
vt 0.619566 0.687148
vt 0.583001 0.262784
vt 0.216186 0.598646
vt 0.870799 0.004185
vt 0.394132 0.978075
vt 0.533429 0.959054
vt 0.653444 0.927648
vt 0.340115 0.157104
vt 0.269751 0.148253
vt 0.905528 0.512320
vt 0.857557 0.547383
vt 0.980357 0.213194
vn -0.394955 -0.134738 0.908766
vn -0.062162 0.045539 0.997027
vn -0.172923 -0.071062 0.982368
vn -0.394955 -0.134738 0.908766
vn -0.172923 -0.071062 0.982368
vn -0.136507 0.919682 0.368172
vn -0.037058 0.635729 0.771023
vn 0.433462 -0.220554 0.873766
vn 0.762621 -0.091179 0.640387
vn -0.037058 0.635729 0.771023
vn 0.082507 0.995736 0.041250
vn -0.136507 0.919682 0.368172
vn -0.014032 0.855192 -0.518121
vn -0.333511 0.507395 -0.794557
vn 0.029228 0.298233 -0.954046
vn 0.888060 -0.433750 0.152348
vn 0.992364 0.117772 -0.036667
vn 0.966678 0.172717 -0.188950
vn 0.888060 -0.433750 0.152348
vn 0.966678 0.172717 -0.188950
vn 0.905415 0.372657 -0.203348
vn 0.992364 0.117772 -0.036667
vn 0.888060 -0.433750 0.152348
vn 0.988175 -0.101433 0.114987
vn 0.754638 0.646937 -0.109516
vn 0.888060 -0.433750 0.152348
vn 0.905415 0.372657 -0.203348
vn -0.882920 -0.129568 0.451291
vn -0.898618 0.001618 0.438729
vn -0.867399 -0.025385 0.496965
vn -0.196787 0.946594 0.255410
vn -0.882920 -0.129568 0.451291
vn -0.867399 -0.025385 0.496965
vn 0.956480 -0.140935 -0.255508
vn 0.980741 0.188484 0.051195
vn 0.318723 0.947745 0.013945
vn 0.874485 0.175339 -0.452253
vn 0.996759 -0.028433 -0.075250
vn 0.424266 0.020123 -0.905314
vn -0.960545 0.272976 0.053261
vn -0.886110 0.285805 0.364862
vn -0.957332 0.033368 0.287056
vn -0.898618 0.001618 0.438729
vn -0.935224 0.046715 0.350961
vn -0.867399 -0.025385 0.496965
vn 0.077251 0.139482 0.987207
vn 0.637446 0.166512 0.752288
vn 0.433462 -0.220554 0.873766
vn 0.077251 0.139482 0.987207
vn 0.433462 -0.220554 0.873766
vn -0.348840 -0.297154 0.888825
vn 0.992364 0.117772 -0.036667
vn 0.934998 0.281748 0.215400
vn 0.966678 0.172717 -0.188950
vn 0.424266 0.020123 -0.905314
vn 0.996759 -0.028433 -0.075250
vn 0.444573 0.348218 -0.825288
vn -0.138466 0.321232 -0.936823
vn -0.102822 0.581093 -0.807316
vn 0.424266 0.020123 -0.905314
vn -0.102822 0.581093 -0.807316
vn 0.874485 0.175339 -0.452253
vn 0.424266 0.020123 -0.905314
vn -0.102822 0.581093 -0.807316
vn 0.318723 0.947745 0.013945
vn 0.874485 0.175339 -0.452253
vn -0.138466 0.321232 -0.936823
vn -0.333511 0.507395 -0.794557
vn -0.102822 0.581093 -0.807316
vn 0.754638 0.646937 -0.109516
vn 0.988175 -0.101433 0.114987
vn 0.888060 -0.433750 0.152348
vn -0.533800 0.205959 0.820145
vn -0.062162 0.045539 0.997027
vn -0.867399 -0.025385 0.496965
vn 0.867398 0.445488 0.221723
vn 0.988175 -0.101433 0.114987
vn 0.082507 0.995736 0.041250
vn 0.988175 -0.101433 0.114987
vn 0.754638 0.646937 -0.109516
vn 0.082507 0.995736 0.041250
vn 0.318723 0.947745 0.013945
vn 0.980741 0.188484 0.051195
vn 0.996759 -0.028433 -0.075250
vn 0.318723 0.947745 0.013945
vn 0.996759 -0.028433 -0.075250
vn 0.874485 0.175339 -0.452253
vn -0.333511 0.507395 -0.794557
vn 0.318723 0.947745 0.013945
vn -0.102822 0.581093 -0.807316
vn -0.014032 0.855192 -0.518121
vn -0.813878 -0.248174 -0.525369
vn -0.889458 -0.209491 -0.406175
vn 0.905415 0.372657 -0.203348
vn 0.966678 0.172717 -0.188950
vn 0.956480 -0.140935 -0.255508
vn 0.905415 0.372657 -0.203348
vn 0.956480 -0.140935 -0.255508
vn 0.318723 0.947745 0.013945
vn 0.318723 0.947745 0.013945
vn 0.075977 0.989958 -0.119207
vn 0.905415 0.372657 -0.203348
vn -0.989446 0.077655 0.122334
vn -0.774807 0.408559 -0.482445
vn -0.926955 -0.001343 -0.375169
vn 0.992364 0.117772 -0.036667
vn 0.997645 0.060580 0.032170
vn 0.934998 0.281748 0.215400
vn -0.394955 -0.134738 0.908766
vn -0.867399 -0.025385 0.496965
vn -0.062162 0.045539 0.997027
vn -0.062162 0.045539 0.997027
vn -0.533800 0.205959 0.820145
vn -0.037374 0.268858 0.962454
vn -0.227646 0.967398 -0.110985
vn 0.075977 0.989958 -0.119207
vn 0.318723 0.947745 0.013945
vn -0.136507 0.919682 0.368172
vn -0.172923 -0.071062 0.982368
vn -0.348840 -0.297154 0.888825
vn -0.136507 0.919682 0.368172
vn -0.348840 -0.297154 0.888825
vn -0.037058 0.635729 0.771023
vn -0.172923 -0.071062 0.982368
vn 0.077251 0.139482 0.987207
vn -0.348840 -0.297154 0.888825
vn 0.969835 0.226110 0.091070
vn 0.988175 -0.101433 0.114987
vn 0.927931 -0.062901 0.367406
vn 0.762621 -0.091179 0.640387
vn 0.433462 -0.220554 0.873766
vn 0.927931 -0.062901 0.367406
vn 0.762621 -0.091179 0.640387
vn 0.927931 -0.062901 0.367406
vn 0.867398 0.445488 0.221723
vn -0.093759 0.985587 -0.140808
vn -0.196787 0.946594 0.255410
vn 0.082507 0.995736 0.041250
vn -0.574123 0.170372 0.800847
vn -0.935224 0.046715 0.350961
vn -0.898618 0.001618 0.438729
vn 0.927931 -0.062901 0.367406
vn 0.988175 -0.101433 0.114987
vn 0.867398 0.445488 0.221723
vn -0.348840 -0.297154 0.888825
vn 0.433462 -0.220554 0.873766
vn -0.037058 0.635729 0.771023
vn -0.992080 -0.124326 0.017879
vn -0.926955 -0.001343 -0.375169
vn -0.898618 0.001618 0.438729
vn -0.992080 -0.124326 0.017879
vn -0.898618 0.001618 0.438729
vn -0.196787 0.946594 0.255410
vn -0.093759 0.985587 -0.140808
vn -0.926955 -0.001343 -0.375169
vn -0.992080 -0.124326 0.017879
vn -0.227646 0.967398 -0.110985
vn -0.926955 -0.001343 -0.375169
vn -0.093759 0.985587 -0.140808
vn -0.227646 0.967398 -0.110985
vn -0.989446 0.077655 0.122334
vn -0.926955 -0.001343 -0.375169
vn -0.813878 -0.248174 -0.525369
vn -0.957332 0.033368 0.287056
vn -0.889458 -0.209491 -0.406175
vn -0.813878 -0.248174 -0.525369
vn -0.434166 0.355962 -0.827521
vn -0.872078 0.308699 -0.379718
vn -0.434166 0.355962 -0.827521
vn -0.762207 0.270268 -0.588214
vn -0.872078 0.308699 -0.379718
vn -0.762207 0.270268 -0.588214
vn -0.960545 0.272976 0.053261
vn -0.872078 0.308699 -0.379718
vn -0.762207 0.270268 -0.588214
vn -0.434166 0.355962 -0.827521
vn -0.080153 0.717929 -0.691486
vn -0.434166 0.355962 -0.827521
vn -0.813878 -0.248174 -0.525369
vn -0.014032 0.855192 -0.518121
vn 0.992364 0.117772 -0.036667
vn 0.969835 0.226110 0.091070
vn 0.997645 0.060580 0.032170
vn -0.992080 -0.124326 0.017879
vn -0.196787 0.946594 0.255410
vn -0.093759 0.985587 -0.140808
vn 0.444573 0.348218 -0.825288
vn -0.138466 0.321232 -0.936823
vn 0.424266 0.020123 -0.905314
vn -0.196787 0.946594 0.255410
vn -0.867399 -0.025385 0.496965
vn -0.394955 -0.134738 0.908766
vn -0.813878 -0.248174 -0.525369
vn -0.872078 0.308699 -0.379718
vn -0.957332 0.033368 0.287056
vn -0.889458 -0.209491 -0.406175
vn -0.957332 0.033368 0.287056
vn -0.755533 0.438514 0.486698
vn -0.755533 0.438514 0.486698
vn -0.014032 0.855192 -0.518121
vn -0.889458 -0.209491 -0.406175
vn -0.989446 0.077655 0.122334
vn -0.886110 0.285805 0.364862
vn -0.774807 0.408559 -0.482445
vn -0.926955 -0.001343 -0.375169
vn -0.774807 0.408559 -0.482445
vn -0.892543 0.447853 0.052863
vn -0.898618 0.001618 0.438729
vn -0.926955 -0.001343 -0.375169
vn -0.892543 0.447853 0.052863
vn -0.957332 0.033368 0.287056
vn -0.886110 0.285805 0.364862
vn -0.989446 0.077655 0.122334
vn -0.755533 0.438514 0.486698
vn -0.957332 0.033368 0.287056
vn -0.989446 0.077655 0.122334
vn -0.755533 0.438514 0.486698
vn -0.989446 0.077655 0.122334
vn -0.227646 0.967398 -0.110985
vn -0.898618 0.001618 0.438729
vn -0.892543 0.447853 0.052863
vn -0.574123 0.170372 0.800847
vn -0.867399 -0.025385 0.496965
vn -0.935224 0.046715 0.350961
vn -0.533800 0.205959 0.820145
vn -0.093759 0.985587 -0.140808
vn 0.075977 0.989958 -0.119207
vn -0.227646 0.967398 -0.110985
vn 0.754638 0.646937 -0.109516
vn 0.905415 0.372657 -0.203348
vn 0.075977 0.989958 -0.119207
vn -0.093759 0.985587 -0.140808
vn 0.082507 0.995736 0.041250
vn 0.075977 0.989958 -0.119207
vn 0.082507 0.995736 0.041250
vn 0.754638 0.646937 -0.109516
vn 0.075977 0.989958 -0.119207
vn -0.872078 0.308699 -0.379718
vn -0.960545 0.272976 0.053261
vn -0.957332 0.033368 0.287056
vn -0.014032 0.855192 -0.518121
vn 0.029228 0.298233 -0.954046
vn -0.434166 0.355962 -0.827521
vn -0.172923 -0.071062 0.982368
vn -0.037374 0.268858 0.962454
vn 0.077251 0.139482 0.987207
vn -0.062162 0.045539 0.997027
vn -0.037374 0.268858 0.962454
vn -0.172923 -0.071062 0.982368
vn -0.014032 0.855192 -0.518121
vn -0.755533 0.438514 0.486698
vn -0.227646 0.967398 -0.110985
vn 0.029228 0.298233 -0.954046
vn -0.333511 0.507395 -0.794557
vn -0.138466 0.321232 -0.936823
vn 0.988175 -0.101433 0.114987
vn 0.969835 0.226110 0.091070
vn 0.992364 0.117772 -0.036667
vn 0.082507 0.995736 0.041250
vn -0.037058 0.635729 0.771023
vn 0.867398 0.445488 0.221723
vn -0.394955 -0.134738 0.908766
vn -0.136507 0.919682 0.368172
vn -0.196787 0.946594 0.255410
vn 0.867398 0.445488 0.221723
vn -0.037058 0.635729 0.771023
vn 0.762621 -0.091179 0.640387
vn -0.434166 0.355962 -0.827521
vn 0.029228 0.298233 -0.954046
vn -0.080153 0.717929 -0.691486
vn 0.966678 0.172717 -0.188950
vn 0.980741 0.188484 0.051195
vn 0.956480 -0.140935 -0.255508
vn 0.934998 0.281748 0.215400
vn 0.917925 0.332595 -0.216318
vn 0.966678 0.172717 -0.188950
vn 0.433462 -0.220554 0.873766
vn 0.637446 0.166512 0.752288
vn 0.927931 -0.062901 0.367406
vn 0.927931 -0.062901 0.367406
vn 0.637446 0.166512 0.752288
vn 0.969835 0.226110 0.091070
vn 0.318723 0.947745 0.013945
vn -0.014032 0.855192 -0.518121
vn -0.227646 0.967398 -0.110985
vn -0.196787 0.946594 0.255410
vn -0.136507 0.919682 0.368172
vn 0.082507 0.995736 0.041250
vn -0.196787 0.946594 0.255410
vn -0.898618 0.001618 0.438729
vn -0.882920 -0.129568 0.451291
vn 0.966678 0.172717 -0.188950
vn 0.917925 0.332595 -0.216318
vn 0.980741 0.188484 0.051195
vn -0.138466 0.321232 -0.936823
vn -0.080153 0.717929 -0.691486
vn 0.029228 0.298233 -0.954046
vn -0.333511 0.507395 -0.794557
vn -0.014032 0.855192 -0.518121
vn 0.318723 0.947745 0.013945
s off
g rock_003_LOD3 rock_003
usemtl lambert8SG
f 1/1/1 2/2/2 3/3/3
f 1/1/4 3/3/5 4/4/6
f 5/5/7 6/6/8 7/7/9
f 5/8/10 8/9/11 4/10/12
f 9/11/13 10/12/14 11/13/15
f 12/14/16 13/15/17 14/16/18
f 12/14/19 14/16/20 15/17/21
f 13/15/22 12/14/23 16/18/24
f 17/19/25 12/14/26 15/17/27
f 18/20/28 19/21/29 20/22/30
f 21/23/31 18/20/32 20/22/33
f 22/24/34 23/25/35 24/26/36
f 25/27/37 26/28/38 27/29/39
f 28/30/40 29/31/41 30/32/42
f 19/21/43 31/33/44 20/22/45
f 32/34/46 33/35/47 6/6/48
f 32/34/49 6/6/50 34/36/51
f 13/15/52 35/37/53 14/16/54
f 27/29/55 26/28/56 36/38/57
f 37/39/58 38/40/59 27/29/60
f 38/40/61 25/27/62 27/29/63
f 38/41/64 24/42/65 25/43/66
f 37/39/67 10/12/68 38/40/69
f 17/19/70 16/18/71 12/14/72
f 39/44/73 2/2/74 20/22/75
f 40/45/76 16/18/77 8/46/78
f 16/18/79 17/19/80 8/47/81
f 24/26/82 23/25/83 26/28/84
f 24/26/85 26/28/86 25/27/87
f 10/48/88 24/42/89 38/41/90
f 9/49/91 41/50/92 42/51/93
f 15/17/94 14/16/95 22/52/96
f 15/17/97 22/52/98 24/53/99
f 24/42/100 43/54/101 15/55/102
f 44/56/103 45/57/104 46/58/105
f 13/15/106 47/59/107 35/37/108
f 1/1/109 20/22/110 2/2/111
f 2/2/112 39/44/113 48/60/114
f 49/61/115 43/54/116 24/42/117
f 4/4/118 3/3/119 34/36/120
f 4/4/121 34/36/122 5/5/123
f 3/3/124 32/34/125 34/36/126
f 50/62/127 16/18/128 51/63/129
f 7/7/130 6/6/131 51/63/132
f 7/7/133 51/63/134 40/45/135
f 52/64/136 21/65/137 8/9/138
f 53/66/139 31/67/140 19/68/141
f 51/63/142 16/18/143 40/45/144
f 34/36/145 6/6/146 5/5/147
f 54/69/148 46/58/149 19/68/150
f 54/69/151 19/68/152 21/70/153
f 52/71/154 46/58/155 54/69/156
f 49/72/157 46/58/158 52/71/159
f 49/72/160 44/56/161 46/58/162
f 41/73/163 30/32/164 42/74/165
f 41/73/166 55/75/167 56/76/168
f 55/75/169 57/77/170 56/76/171
f 57/77/172 28/30/173 56/76/174
f 57/77/175 55/75/176 58/78/177
f 55/75/178 41/73/179 9/11/180
f 13/15/181 50/62/182 47/59/183
f 54/79/184 21/65/185 52/64/186
f 36/38/187 37/39/188 27/29/189
f 21/65/190 20/80/191 1/81/192
f 41/73/193 56/76/194 30/32/195
f 42/74/196 30/32/197 59/82/198
f 59/83/199 9/49/200 42/51/201
f 44/56/202 29/31/203 45/57/204
f 46/58/205 45/57/206 60/84/207
f 19/68/208 46/58/209 60/84/210
f 30/32/211 29/31/212 44/56/213
f 59/82/214 30/32/215 44/56/216
f 59/82/217 44/56/218 49/72/219
f 19/68/220 60/84/221 53/66/222
f 20/22/223 31/33/224 39/44/225
f 52/64/226 43/54/227 49/61/228
f 17/85/229 15/55/230 43/54/231
f 52/64/232 8/9/233 43/54/234
f 8/9/235 17/85/236 43/54/237
f 56/76/238 28/30/239 30/32/240
f 9/11/241 11/13/242 55/75/243
f 3/3/244 48/60/245 32/34/246
f 2/2/247 48/60/248 3/3/249
f 9/49/250 59/83/251 49/61/252
f 11/13/253 10/12/254 37/39/255
f 16/18/256 50/62/257 13/15/258
f 8/9/259 5/8/260 40/86/261
f 1/81/262 4/10/263 21/65/264
f 40/86/265 5/8/266 7/87/267
f 55/88/268 11/89/269 58/78/270
f 14/16/271 23/90/272 22/52/273
f 35/37/274 61/91/275 14/16/276
f 6/6/277 33/35/278 51/63/279
f 51/63/280 33/35/281 50/62/282
f 24/42/283 9/49/284 49/61/285
f 21/65/286 4/10/287 8/9/288
f 21/70/289 19/68/290 18/92/291
f 14/16/292 61/91/293 23/90/294
f 37/39/295 58/78/296 11/89/297
f 10/48/298 9/49/299 24/42/300
